<?xml version="1.0" encoding="UTF-8"?>
<svg data-bbox="0 0 40 40" xmlns="http://www.w3.org/2000/svg" viewBox="0 0 40 40" height="40" width="40" data-type="color">
    <g>
        <path fill="#000000" d="M40 20c0 11.046-8.954 20-20 20S0 31.046 0 20 8.954 0 20 0s20 8.954 20 20" data-color="1"/>
        <path fill="#00CC33" d="M31.813 20.927v-1.854H25.64L33.333 7.88H6.667l7.915 11.194h-6.2v1.854h6.2L6.667 32.12h7.66v-1.717h-4.255l6.123-8.763 3.898 5.601 3.856-5.577 6.106 8.73h-4.23v1.718h7.5l-7.686-11.186zM10.081 9.597h19.974l-6.106 8.738-3.856-5.577-3.898 5.601zm10.012 6.21 2.276 3.258H17.8zm0 8.378L17.8 20.927h4.57z" data-color="2"/>
    </g>
</svg>