<svg width="620" height="112" viewBox="0 0 620 112" fill="none" xmlns="http://www.w3.org/2000/svg">
  <path d="M128.536 79.4413V33.0161H139.466V53.8452C139.466 54.1033 139.673 54.3098 139.932 54.3098H139.99C140.243 54.3098 140.439 54.1091 140.456 53.8624C140.514 53.0019 140.744 52.1587 141.141 51.3326C141.608 50.3574 142.189 49.388 142.88 48.4128L153.943 33.0161H167.073L149.969 55.526L167.315 79.4355H154.058L142.88 63.4939C141.458 61.446 140.312 59.553 139.443 57.8148C139.316 57.5682 139.011 57.4821 138.774 57.6313L138.751 57.6427C138.533 57.7804 138.481 58.0615 138.607 58.2852C138.918 58.813 139.126 59.3522 139.241 59.9029C139.385 60.5913 139.454 61.8131 139.454 63.5513V79.4298H128.536V79.4413Z" fill="black"/>
  <path d="M189.393 79.4413H170.983V33.0161H181.913V69.7008H189.388V79.4355L189.393 79.4413Z" fill="black"/>
  <path d="M204.481 79.4413H193.551V33.0161H204.481V79.4413Z" fill="black"/>
  <path d="M211.87 79.4413V33.0161H229.462L235.693 59.966C235.935 60.9813 236.16 62.2262 236.367 63.7062C236.546 65.0256 236.649 66.3564 236.667 67.693C236.667 67.9626 236.885 68.1806 237.156 68.1806C237.427 68.1806 237.646 67.9626 237.646 67.693C237.663 66.3564 237.767 65.0313 237.945 63.7062C238.147 62.2262 238.371 60.9813 238.619 59.966L244.792 33.0161H262.443V79.4355H251.513V50.237C251.513 48.6939 251.541 47.4376 251.605 46.4624C251.662 45.5847 251.772 44.3858 251.944 42.8771C251.973 42.6075 251.783 42.3608 251.513 42.3264H251.501C251.236 42.292 250.988 42.4813 250.948 42.7451C250.482 45.7338 249.998 48.2349 249.497 50.237L242.471 79.4413H231.847L224.821 50.237C224.32 48.2349 223.836 45.7396 223.37 42.7451C223.329 42.4813 223.082 42.292 222.817 42.3264H222.805C222.535 42.3608 222.345 42.6075 222.374 42.8771C222.546 44.3858 222.661 45.5847 222.713 46.4624C222.777 47.4376 222.805 48.6939 222.805 50.237V79.4413H211.87Z" fill="black"/>
  <path d="M277.893 79.4413H266.289L282.229 33.0161H294.081L310.021 79.4355H298.417L295.912 71.1005H280.398L277.893 79.4355V79.4413ZM283.266 61.6755H293.039L289.802 50.7246C289.1 48.3611 288.714 46.3304 288.65 44.6382C288.639 44.3686 288.426 44.1563 288.155 44.1563C287.884 44.1563 287.666 44.3686 287.66 44.6382C287.597 46.3304 287.211 48.3611 286.508 50.7246L283.272 61.6755H283.266Z" fill="black"/>
  <path d="M315.779 79.4415V33.0163H331.904C336.505 33.0163 340.121 34.1406 342.747 36.3951C345.373 38.6438 346.686 41.8791 346.686 46.1012C346.686 50.3232 345.373 53.461 342.747 55.7728C340.121 58.0846 336.505 59.2434 331.904 59.2434H325.753C322.575 59.2434 319.995 61.8133 319.995 64.9798V79.4415H315.779ZM331.351 55.5893C334.933 55.5893 337.691 54.7804 339.626 53.157C341.561 51.5336 342.528 49.2218 342.528 46.2216C342.528 43.2215 341.549 40.8982 339.597 39.2576C337.645 37.6169 334.892 36.7909 331.351 36.7909H319.989V49.8528C319.989 53.0193 322.569 55.5893 325.748 55.5893H331.351Z" fill="black"/>
  <path d="M350.591 79.4415V33.0163H366.715C371.316 33.0163 374.933 34.1406 377.559 36.3951C380.185 38.6438 381.498 41.8791 381.498 46.1012C381.498 50.7649 379.724 54.3559 376.182 56.8685C375.854 57.1094 375.376 57.3274 374.748 57.5052C374.115 57.6888 373.516 57.7806 372.946 57.7806C372.762 57.7806 372.606 57.7806 372.474 57.7634C372.272 57.7462 372.082 57.8666 371.996 58.0502C371.886 58.2911 371.984 58.5722 372.22 58.6927C372.399 58.7845 372.595 58.9107 372.704 59.0541C372.946 59.3811 373.211 59.8228 373.499 60.3907L381.93 79.4357H377.409L370.717 64.0735C369.439 61.1364 366.531 59.2377 363.323 59.2377H360.571C357.392 59.2377 354.812 61.8076 354.812 64.9741V79.4357H350.596L350.591 79.4415ZM366.168 55.5893C369.75 55.5893 372.508 54.7804 374.443 53.157C376.378 51.5336 377.346 49.2218 377.346 46.2216C377.346 43.2215 376.367 40.8982 374.414 39.2576C372.462 37.6169 369.71 36.7909 366.168 36.7909H354.806V49.8528C354.806 53.0193 357.386 55.5893 360.565 55.5893H366.168Z" fill="black"/>
  <path d="M394.322 76.8199C391.144 74.6687 388.765 71.7775 387.176 68.1521C385.586 64.5209 384.792 60.5398 384.792 56.1973C384.792 51.8548 385.586 47.8852 387.176 44.2712C388.765 40.663 391.144 37.7833 394.322 35.6321C397.501 33.4809 401.388 32.4082 405.99 32.4082C410.591 32.4082 414.478 33.4867 417.657 35.6321C420.835 37.7833 423.214 40.663 424.803 44.2712C426.393 47.8794 427.187 51.8548 427.187 56.1973C427.187 60.5398 426.393 64.5209 424.803 68.1521C423.214 71.7833 420.835 74.6744 417.657 76.8199C414.478 78.971 410.591 80.0438 405.99 80.0438C401.388 80.0438 397.501 78.971 394.322 76.8199ZM415.244 73.6591C417.789 71.9152 419.713 69.5346 421.014 66.5114C422.315 63.4883 422.966 60.0522 422.966 56.1973C422.966 52.3424 422.315 48.9063 421.014 45.8831C419.713 42.86 417.789 40.4909 415.244 38.7642C412.698 37.0433 409.612 36.1771 405.99 36.1771C402.367 36.1771 399.281 37.0375 396.735 38.7642C394.19 40.4909 392.267 42.86 390.965 45.8831C389.664 48.9063 389.013 52.3424 389.013 56.1973C389.013 60.0522 389.664 63.4883 390.965 66.5114C392.267 69.5346 394.19 71.9152 396.735 73.6591C399.281 75.403 402.362 76.2749 405.99 76.2749C409.617 76.2749 412.698 75.403 415.244 73.6591Z" fill="black"/>
  <path d="M445.627 79.4415H441.411V42.5273C441.411 39.3608 438.831 36.7909 435.653 36.7909H425.045V33.0163H462.056V36.7909H451.385C448.206 36.7909 445.627 39.3608 445.627 42.5273V79.4415Z" fill="black"/>
  <path d="M469.571 76.8199C466.392 74.6687 464.014 71.7775 462.425 68.1521C460.835 64.5209 460.041 60.5398 460.041 56.1973C460.041 51.8548 460.835 47.8852 462.425 44.2712C464.014 40.663 466.392 37.7833 469.571 35.6321C472.75 33.4809 476.637 32.4082 481.238 32.4082C485.84 32.4082 489.727 33.4867 492.906 35.6321C496.084 37.7833 498.463 40.663 500.052 44.2712C501.641 47.8794 502.436 51.8548 502.436 56.1973C502.436 60.5398 501.641 64.5209 500.052 68.1521C498.463 71.7833 496.084 74.6744 492.906 76.8199C489.727 78.971 485.84 80.0438 481.238 80.0438C476.637 80.0438 472.75 78.971 469.571 76.8199ZM490.487 73.6591C493.032 71.9152 494.956 69.5346 496.257 66.5114C497.559 63.4883 498.209 60.0522 498.209 56.1973C498.209 52.3424 497.559 48.9063 496.257 45.8831C494.956 42.86 493.032 40.4909 490.487 38.7642C487.942 37.0433 484.855 36.1771 481.233 36.1771C477.61 36.1771 474.524 37.0375 471.978 38.7642C469.433 40.4909 467.51 42.86 466.208 45.8831C464.907 48.9063 464.256 52.3424 464.256 56.1973C464.256 60.0522 464.907 63.4883 466.208 66.5114C467.51 69.5346 469.433 71.9152 471.978 73.6591C474.524 75.403 477.605 76.2749 481.233 76.2749C484.861 76.2749 487.942 75.403 490.487 73.6591Z" fill="black"/>
  <path d="M514.886 76.7912C511.713 74.6228 509.346 71.7316 507.803 68.1234C506.254 64.5152 505.482 60.5398 505.482 56.1973C505.482 51.8548 506.254 47.8852 507.803 44.2712C509.352 40.663 511.713 37.7833 514.886 35.6321C518.065 33.4809 521.952 32.4082 526.553 32.4082C529.813 32.4082 532.709 32.9589 535.255 34.0488C537.8 35.1445 539.873 36.6647 541.486 38.6093C543.092 40.554 544.14 42.7855 544.63 45.3038H540.173C539.562 42.5044 538.025 40.2844 535.56 38.6437C533.095 37.0031 530.055 36.1771 526.427 36.1771C522.799 36.1771 519.741 37.0375 517.236 38.7642C514.731 40.4909 512.848 42.86 511.587 45.8831C510.325 48.9063 509.692 52.3424 509.692 56.1973C509.692 60.0522 510.325 63.4998 511.587 66.5401C512.848 69.5805 514.731 71.9668 517.236 73.6878C519.741 75.4144 522.804 76.2749 526.427 76.2749C530.049 76.2749 533.136 75.403 535.56 73.6591C537.984 71.9152 539.522 69.46 540.173 66.2992H544.63C543.858 70.5155 541.883 73.8656 538.704 76.338C535.525 78.8104 531.477 80.0495 526.548 80.0495C521.946 80.0495 518.059 78.9653 514.881 76.7969L514.886 76.7912Z" fill="black"/>
  <path d="M556.723 76.8199C553.55 74.6687 551.166 71.7775 549.577 68.1521C547.987 64.5209 547.193 60.5398 547.193 56.1973C547.193 51.8548 547.987 47.8852 549.577 44.2712C551.166 40.663 553.545 37.7833 556.723 35.6321C559.902 33.4809 563.789 32.4082 568.39 32.4082C572.992 32.4082 576.879 33.4867 580.058 35.6321C583.231 37.7833 585.615 40.663 587.204 44.2712C588.794 47.8794 589.588 51.8548 589.588 56.1973C589.588 60.5398 588.794 64.5209 587.204 68.1521C585.615 71.7833 583.236 74.6744 580.058 76.8199C576.879 78.971 572.992 80.0438 568.39 80.0438C563.789 80.0438 559.902 78.971 556.723 76.8199ZM577.645 73.6591C580.19 71.9152 582.113 69.5346 583.415 66.5114C584.716 63.4883 585.367 60.0522 585.367 56.1973C585.367 52.3424 584.716 48.9063 583.415 45.8831C582.113 42.86 580.19 40.4909 577.645 38.7642C575.099 37.0433 572.013 36.1771 568.39 36.1771C564.768 36.1771 561.682 37.0375 559.136 38.7642C556.591 40.4909 554.667 42.86 553.366 45.8831C552.065 48.9063 551.414 52.3424 551.414 56.1973C551.414 60.0522 552.065 63.4883 553.366 66.5114C554.667 69.5346 556.591 71.9152 559.136 73.6591C561.682 75.403 564.762 76.2749 568.39 76.2749C572.018 76.2749 575.099 75.403 577.645 73.6591Z" fill="black"/>
  <path d="M620 79.4415H594.408V33.0163H598.624V69.9304C598.624 73.0969 601.204 75.6669 604.382 75.6669H620V79.4415Z" fill="black"/>
  <ellipse cx="56.2171" cy="56" rx="56.2171" ry="56" fill="black"/>
  <path d="M89.4223 58.5956V53.4053H72.0678L93.6953 22.061H18.7391L40.9873 53.4053H23.5612V58.5956H40.9873L18.7391 89.9398H40.2711V85.1315H28.3116L45.5228 60.5953L56.4798 76.2787L67.3174 60.6627L84.4809 85.109H72.593V89.9174H93.6714L72.0678 58.5956H89.4223ZM28.3354 26.8694H84.4809L67.3174 51.3381L56.4798 35.7222L45.5228 51.4055L28.3354 26.8694ZM56.4798 44.2604L62.8773 53.3828H50.0345L56.4798 44.2604ZM56.4798 67.718L50.0345 58.5956H62.8773L56.4798 67.718Z" fill="#00CC33"/>
</svg>
