<svg width="660" height="462.75" viewBox="-10,-10,660,462.75" xmlns="http://www.w3.org/2000/svg" xmlns:xlink="http://www.w3.org/1999/xlink"><svg width="894" height="35" x="0" y="0"><g transform="translate(2.8000000000000007,19)"><svg width="15" height="15" fill="#2ca02c" y="-7.5px"><rect width="100%" height="100%"/></svg><text x="15" dx="5" dy="0.38em" font-family="system-ui, sans-serif" font-size="10px" fill="rgb(27, 30, 35)">Liquidity Schedule</text></g><g transform="translate(135.24000244140623,19)"><svg width="15" height="15" fill="#8c564b" y="-7.5px"><rect width="100%" height="100%"/></svg><text x="15" dx="5" dy="0.38em" font-family="system-ui, sans-serif" font-size="10px" fill="rgb(27, 30, 35)">Discount Curve</text></g><g transform="translate(251.59999389648436,19)"><svg width="15" height="15" fill="#e377c2" y="-7.5px"><rect width="100%" height="100%"/></svg><text x="15" dx="5" dy="0.38em" font-family="system-ui, sans-serif" font-size="10px" fill="rgb(27, 30, 35)">Present-Value Carbon C̄ᵢ = 90%</text></g></svg><svg class="plot-d6a7b5" fill="currentColor" font-family="system-ui, sans-serif" font-size="10" text-anchor="middle" width="640" height="400" viewBox="0 0 640 400" x="0" y="42.75"><style>:where(.plot-d6a7b5) {
  --plot-background: white;
  display: block;
  height: auto;
  height: intrinsic;
  max-width: 100%;
}
:where(.plot-d6a7b5 text),
:where(.plot-d6a7b5 tspan) {
  white-space: pre;
}</style><g aria-label="y-grid" aria-hidden="true" stroke="currentColor" stroke-opacity="0.1" transform="translate(0,0.5)"><line x1="40" x2="600" y1="370" y2="370"/><line x1="40" x2="600" y1="336.6" y2="336.6"/><line x1="40" x2="600" y1="303.2" y2="303.2"/><line x1="40" x2="600" y1="269.8" y2="269.8"/><line x1="40" x2="600" y1="236.4" y2="236.4"/><line x1="40" x2="600" y1="203" y2="203"/><line x1="40" x2="600" y1="169.6" y2="169.6"/><line x1="40" x2="600" y1="136.20000000000002" y2="136.20000000000002"/><line x1="40" x2="600" y1="102.79999999999998" y2="102.79999999999998"/><line x1="40" x2="600" y1="69.39999999999999" y2="69.39999999999999"/><line x1="40" x2="600" y1="36" y2="36"/></g><g aria-label="x-axis tick" aria-hidden="true" fill="none" stroke="currentColor" transform="translate(0.5,0)"><path transform="translate(70.45871559633028,370)" d="M0,0L0,6"/><path transform="translate(170.2752293577982,370)" d="M0,0L0,6"/><path transform="translate(270.0917431192661,370)" d="M0,0L0,6"/><path transform="translate(369.90825688073403,370)" d="M0,0L0,6"/><path transform="translate(469.72477064220186,370)" d="M0,0L0,6"/><path transform="translate(569.5412844036698,370)" d="M0,0L0,6"/></g><g aria-label="x-axis tick label" font-variant="tabular-nums" transform="translate(0.5,9.5)"><text y="0.71em" transform="translate(70.45871559633028,370)">0</text><text y="0.71em" transform="translate(170.2752293577982,370)">2</text><text y="0.71em" transform="translate(270.0917431192661,370)">4</text><text y="0.71em" transform="translate(369.90825688073403,370)">6</text><text y="0.71em" transform="translate(469.72477064220186,370)">8</text><text y="0.71em" transform="translate(569.5412844036698,370)">10</text></g><g aria-label="x-axis label" text-anchor="end" transform="translate(37.5,27.5)"><text transform="translate(600,370)">Time to Expiry (Years) →</text></g><rect aria-label="frame" fill="none" stroke="currentColor" transform="translate(0.5,0.5)" x="40" y="20" width="560" height="350"/><g aria-label="y-axis tick" aria-hidden="true" fill="none" stroke="currentColor" transform="translate(0,0.5)"><path transform="translate(40,370)" d="M0,0L-6,0"/><path transform="translate(40,336.6)" d="M0,0L-6,0"/><path transform="translate(40,303.2)" d="M0,0L-6,0"/><path transform="translate(40,269.8)" d="M0,0L-6,0"/><path transform="translate(40,236.4)" d="M0,0L-6,0"/><path transform="translate(40,203)" d="M0,0L-6,0"/><path transform="translate(40,169.6)" d="M0,0L-6,0"/><path transform="translate(40,136.20000000000002)" d="M0,0L-6,0"/><path transform="translate(40,102.79999999999998)" d="M0,0L-6,0"/><path transform="translate(40,69.39999999999999)" d="M0,0L-6,0"/><path transform="translate(40,36)" d="M0,0L-6,0"/></g><g aria-label="y-axis tick label" text-anchor="end" font-variant="tabular-nums" transform="translate(-8.5,0.5)"><text y="0.32em" transform="translate(40,370)">0</text><text y="0.32em" transform="translate(40,336.6)">10</text><text y="0.32em" transform="translate(40,303.2)">20</text><text y="0.32em" transform="translate(40,269.8)">30</text><text y="0.32em" transform="translate(40,236.4)">40</text><text y="0.32em" transform="translate(40,203)">50</text><text y="0.32em" transform="translate(40,169.6)">60</text><text y="0.32em" transform="translate(40,136.20000000000002)">70</text><text y="0.32em" transform="translate(40,102.79999999999998)">80</text><text y="0.32em" transform="translate(40,69.39999999999999)">90</text><text y="0.32em" transform="translate(40,36)">100</text></g><g aria-label="y-axis label" text-anchor="start" transform="translate(-36.5,-16.5)"><text y="0.71em" transform="translate(40,20)">↑ Quantity of Carbon (%)</text></g><g aria-label="y-axis tick" aria-hidden="true" fill="none" stroke="currentColor" transform="translate(1,0.5)"><path transform="translate(600,370)" d="M0,0L6,0"/><path transform="translate(600,336.6)" d="M0,0L6,0"/><path transform="translate(600,303.2)" d="M0,0L6,0"/><path transform="translate(600,269.8)" d="M0,0L6,0"/><path transform="translate(600,236.4)" d="M0,0L6,0"/><path transform="translate(600,203)" d="M0,0L6,0"/><path transform="translate(600,169.6)" d="M0,0L6,0"/><path transform="translate(600,136.20000000000002)" d="M0,0L6,0"/><path transform="translate(600,102.79999999999998)" d="M0,0L6,0"/><path transform="translate(600,69.39999999999999)" d="M0,0L6,0"/><path transform="translate(600,36)" d="M0,0L6,0"/></g><g aria-label="y-axis tick label" text-anchor="start" font-variant="tabular-nums" transform="translate(9.5,0.5)"><text y="0.32em" transform="translate(600,370)">0</text><text y="0.32em" transform="translate(600,336.6)">10</text><text y="0.32em" transform="translate(600,303.2)">20</text><text y="0.32em" transform="translate(600,269.8)">30</text><text y="0.32em" transform="translate(600,236.4)">40</text><text y="0.32em" transform="translate(600,203)">50</text><text y="0.32em" transform="translate(600,169.6)">60</text><text y="0.32em" transform="translate(600,136.20000000000002)">70</text><text y="0.32em" transform="translate(600,102.79999999999998)">80</text><text y="0.32em" transform="translate(600,69.39999999999999)">90</text><text y="0.32em" transform="translate(600,36)">100</text></g><g aria-label="y-axis label" text-anchor="end" transform="translate(37.5,-16.5)"><text y="0.71em" transform="translate(600,20)">Discount (%) ↑</text></g><clipPath id="plot-clip-3"><rect x="40" y="20" width="560" height="350"/></clipPath><g aria-label="rect" clip-path="url(#plot-clip-3)"><g><rect x="48" y="203" width="44.91743119266056" height="167" fill="#2ca02c"/><rect x="97.90825688073394" y="353.3" width="44.91743119266056" height="16.69999999999999" fill="#2ca02c"/><rect x="97.90825688073394" y="353.3" width="44.91743119266056" height="0" fill="#8c564b"/><rect x="147.8165137614679" y="353.3" width="44.91743119266059" height="16.69999999999999" fill="#2ca02c"/><rect x="147.8165137614679" y="353.3" width="44.91743119266059" height="0" fill="#8c564b"/><rect x="197.72477064220183" y="353.3" width="44.917431192660615" height="16.69999999999999" fill="#2ca02c"/><rect x="197.72477064220183" y="353.3" width="44.917431192660615" height="0" fill="#8c564b"/><rect x="247.63302752293578" y="353.3" width="44.917431192660615" height="16.69999999999999" fill="#2ca02c"/><rect x="247.63302752293578" y="353.3" width="44.917431192660615" height="0" fill="#8c564b"/><rect x="297.54128440366975" y="353.3" width="44.917431192660615" height="16.69999999999999" fill="#2ca02c"/><rect x="297.54128440366975" y="353.3" width="44.917431192660615" height="0" fill="#8c564b"/><rect x="347.44954128440367" y="353.3" width="44.917431192660615" height="16.69999999999999" fill="#2ca02c"/><rect x="347.44954128440367" y="353.3" width="44.917431192660615" height="0" fill="#8c564b"/><rect x="397.35779816513764" y="353.3" width="44.91743119266056" height="16.69999999999999" fill="#2ca02c"/><rect x="397.35779816513764" y="353.3" width="44.91743119266056" height="0" fill="#8c564b"/><rect x="447.26605504587155" y="353.3" width="44.91743119266056" height="16.69999999999999" fill="#2ca02c"/><rect x="447.26605504587155" y="353.3" width="44.91743119266056" height="0" fill="#8c564b"/><rect x="497.1743119266056" y="353.3" width="44.9174311926605" height="16.69999999999999" fill="#2ca02c"/><rect x="497.1743119266056" y="353.3" width="44.9174311926605" height="0" fill="#8c564b"/><rect x="547.0825688073395" y="353.3" width="44.9174311926605" height="16.69999999999999" fill="#2ca02c"/><rect x="547.0825688073395" y="353.3" width="44.9174311926605" height="0" fill="#8c564b"/></g></g><g aria-label="rule" clip-path="url(#plot-clip-3)"><g stroke-width="2" stroke-dasharray="4" transform="translate(0,0.5)"><line x1="40" x2="600" y1="68.04975787340523" y2="68.04975787340523" stroke="#e377c2"/></g></g><g aria-label="line" clip-path="url(#plot-clip-3)"><g fill="none" stroke-width="1.5" stroke-linejoin="round" stroke-linecap="round" transform="translate(0.5,0.5)"><path stroke="#8c564b" d="M120.367,40.689L170.275,51.475L220.183,66.357L270.092,83.406L320,100.932L369.908,117.565L419.817,132.242L469.725,144.149L519.633,152.623L569.541,157.032"/></g></g><g aria-label="dot" clip-path="url(#plot-clip-3)"><g transform="translate(0.5,0.5)"><circle cx="120.36697247706422" cy="40.689254163861406" r="3" fill="#8c564b"/><circle cx="170.2752293577982" cy="51.47514126447896" r="3" fill="#8c564b"/><circle cx="220.18348623853217" cy="66.35745953853547" r="3" fill="#8c564b"/><circle cx="270.0917431192661" cy="83.40565414679607" r="3" fill="#8c564b"/><circle cx="320.00000000000006" cy="100.9319082276755" r="3" fill="#8c564b"/><circle cx="369.90825688073403" cy="117.56462178015504" r="3" fill="#8c564b"/><circle cx="419.81651376146795" cy="132.24177808064846" r="3" fill="#8c564b"/><circle cx="469.72477064220186" cy="144.14899229569838" r="3" fill="#8c564b"/><circle cx="519.6330275229358" cy="152.62302178129028" r="3" fill="#8c564b"/><circle cx="569.5412844036698" cy="157.03219735832772" r="3" fill="#8c564b"/></g></g></svg></svg>