<svg width="660" height="462.75" viewBox="-10,-10,660,462.75" xmlns="http://www.w3.org/2000/svg" xmlns:xlink="http://www.w3.org/1999/xlink"><svg width="894" height="35" x="0" y="0"><g transform="translate(2.8000000000000007,19)"><svg width="15" height="15" fill="gray" y="-7.5px"><rect width="100%" height="100%"/></svg><text x="15" dx="5" dy="0.38em" font-family="system-ui, sans-serif" font-size="10px" fill="rgb(27, 30, 35)">Initial βᵢ²</text></g><g transform="translate(83.87999877929687,19)"><svg width="15" height="15" fill="black" y="-7.5px"><rect width="100%" height="100%"/></svg><text x="15" dx="5" dy="0.38em" font-family="system-ui, sans-serif" font-size="10px" fill="rgb(27, 30, 35)">New βᵢ²</text></g><g transform="translate(160.04000854492188,19)"><svg width="15" height="15" fill="blue" y="-7.5px"><rect width="100%" height="100%"/></svg><text x="15" dx="5" dy="0.38em" font-family="system-ui, sans-serif" font-size="10px" fill="rgb(27, 30, 35)">Initial Gᵢ</text></g><g transform="translate(238.37999877929687,19)"><svg width="15" height="15" fill="red" y="-7.5px"><rect width="100%" height="100%"/></svg><text x="15" dx="5" dy="0.38em" font-family="system-ui, sans-serif" font-size="10px" fill="rgb(27, 30, 35)">New Gᵢ</text></g></svg><svg class="plot-d6a7b5" fill="currentColor" font-family="system-ui, sans-serif" font-size="10" text-anchor="middle" width="640" height="400" viewBox="0 0 640 400" x="0" y="42.75"><style>:where(.plot-d6a7b5) {
  --plot-background: white;
  display: block;
  height: auto;
  height: intrinsic;
  max-width: 100%;
}
:where(.plot-d6a7b5 text),
:where(.plot-d6a7b5 tspan) {
  white-space: pre;
}</style><g aria-label="x-axis tick" aria-hidden="true" fill="none" stroke="currentColor" transform="translate(0.5,0)"><path transform="translate(110.76923076923077,370)" d="M0,0L0,6"/><path transform="translate(250.25641025641025,370)" d="M0,0L0,6"/><path transform="translate(389.7435897435898,370)" d="M0,0L0,6"/><path transform="translate(529.2307692307692,370)" d="M0,0L0,6"/></g><g aria-label="x-axis tick label" font-variant="tabular-nums" transform="translate(0.5,9.5)"><text y="0.71em" transform="translate(110.76923076923077,370)">0.5</text><text y="0.71em" transform="translate(250.25641025641025,370)">0.2</text><text y="0.71em" transform="translate(389.7435897435898,370)">0.1</text><text y="0.71em" transform="translate(529.2307692307692,370)">0.05</text></g><g aria-label="x-axis label" text-anchor="end" transform="translate(37.5,27.5)"><text transform="translate(600,370)">Aᵢ Over 4 Classes →</text></g><rect aria-label="frame" fill="none" stroke="currentColor" transform="translate(0.5,0.5)" x="40" y="20" width="560" height="350"/><g aria-label="y-axis tick" aria-hidden="true" fill="none" stroke="currentColor" transform="translate(0,0.5)"><path transform="translate(40,370)" d="M0,0L-6,0"/><path transform="translate(40,343.80392156862746)" d="M0,0L-6,0"/><path transform="translate(40,317.60784313725486)" d="M0,0L-6,0"/><path transform="translate(40,291.4117647058824)" d="M0,0L-6,0"/><path transform="translate(40,265.21568627450984)" d="M0,0L-6,0"/><path transform="translate(40,239.0196078431373)" d="M0,0L-6,0"/><path transform="translate(40,212.8235294117647)" d="M0,0L-6,0"/><path transform="translate(40,186.62745098039215)" d="M0,0L-6,0"/><path transform="translate(40,160.4313725490196)" d="M0,0L-6,0"/><path transform="translate(40,134.23529411764707)" d="M0,0L-6,0"/><path transform="translate(40,108.03921568627452)" d="M0,0L-6,0"/><path transform="translate(40,81.84313725490195)" d="M0,0L-6,0"/><path transform="translate(40,55.64705882352942)" d="M0,0L-6,0"/></g><g aria-label="y-axis tick label" text-anchor="end" font-variant="tabular-nums" transform="translate(-8.5,0.5)"><text y="0.32em" transform="translate(40,370)">0.00</text><text y="0.32em" transform="translate(40,343.80392156862746)">0.02</text><text y="0.32em" transform="translate(40,317.60784313725486)">0.04</text><text y="0.32em" transform="translate(40,291.4117647058824)">0.06</text><text y="0.32em" transform="translate(40,265.21568627450984)">0.08</text><text y="0.32em" transform="translate(40,239.0196078431373)">0.10</text><text y="0.32em" transform="translate(40,212.8235294117647)">0.12</text><text y="0.32em" transform="translate(40,186.62745098039215)">0.14</text><text y="0.32em" transform="translate(40,160.4313725490196)">0.16</text><text y="0.32em" transform="translate(40,134.23529411764707)">0.18</text><text y="0.32em" transform="translate(40,108.03921568627452)">0.20</text><text y="0.32em" transform="translate(40,81.84313725490195)">0.22</text><text y="0.32em" transform="translate(40,55.64705882352942)">0.24</text></g><g aria-label="y-axis label" text-anchor="start" transform="translate(-36.5,-16.5)"><text y="0.71em" transform="translate(40,20)">↑ βᵢ²</text></g><g aria-label="y-axis tick" aria-hidden="true" fill="none" stroke="currentColor" transform="translate(1,0.5)"><path transform="translate(600,370)" d="M0,0L6,0"/><path transform="translate(600,347.7333333333333)" d="M0,0L6,0"/><path transform="translate(600,325.4666666666667)" d="M0,0L6,0"/><path transform="translate(600,303.2)" d="M0,0L6,0"/><path transform="translate(600,280.9333333333334)" d="M0,0L6,0"/><path transform="translate(600,258.6666666666667)" d="M0,0L6,0"/><path transform="translate(600,236.4)" d="M0,0L6,0"/><path transform="translate(600,214.1333333333333)" d="M0,0L6,0"/><path transform="translate(600,191.86666666666665)" d="M0,0L6,0"/><path transform="translate(600,169.6)" d="M0,0L6,0"/><path transform="translate(600,147.33333333333331)" d="M0,0L6,0"/><path transform="translate(600,125.06666666666665)" d="M0,0L6,0"/><path transform="translate(600,102.79999999999998)" d="M0,0L6,0"/><path transform="translate(600,80.53333333333333)" d="M0,0L6,0"/><path transform="translate(600,58.26666666666662)" d="M0,0L6,0"/><path transform="translate(600,36)" d="M0,0L6,0"/></g><g aria-label="y-axis tick label" text-anchor="start" font-variant="tabular-nums" transform="translate(9.5,0.5)"><text y="0.32em" transform="translate(600,370)">0.00</text><text y="0.32em" transform="translate(600,347.7333333333333)">0.02</text><text y="0.32em" transform="translate(600,325.4666666666667)">0.04</text><text y="0.32em" transform="translate(600,303.2)">0.06</text><text y="0.32em" transform="translate(600,280.9333333333334)">0.08</text><text y="0.32em" transform="translate(600,258.6666666666667)">0.10</text><text y="0.32em" transform="translate(600,236.4)">0.12</text><text y="0.32em" transform="translate(600,214.1333333333333)">0.14</text><text y="0.32em" transform="translate(600,191.86666666666665)">0.16</text><text y="0.32em" transform="translate(600,169.6)">0.18</text><text y="0.32em" transform="translate(600,147.33333333333331)">0.20</text><text y="0.32em" transform="translate(600,125.06666666666665)">0.22</text><text y="0.32em" transform="translate(600,102.79999999999998)">0.24</text><text y="0.32em" transform="translate(600,80.53333333333333)">0.26</text><text y="0.32em" transform="translate(600,58.26666666666662)">0.28</text><text y="0.32em" transform="translate(600,36)">0.30</text></g><g aria-label="y-axis label" text-anchor="end" transform="translate(37.5,-16.5)"><text y="0.71em" transform="translate(600,20)">Gᵢ ↑</text></g><g aria-label="rect"><rect x="48" y="370" width="62.769230769230774" height="0" fill="blue"/><rect x="48" y="36" width="62.769230769230774" height="334" fill="gray"/><rect x="48" y="36" width="62.769230769230774" height="0" fill="red"/><rect x="48" y="36" width="62.769230769230774" height="0" fill="black"/><rect x="187.48717948717945" y="370" width="62.7692307692308" height="0" fill="blue"/><rect x="187.48717948717945" y="320.2274509803922" width="62.7692307692308" height="49.77254901960782" fill="gray"/><rect x="187.48717948717945" y="320.2274509803922" width="62.7692307692308" height="0" fill="red"/><rect x="187.48717948717945" y="320.2274509803922" width="62.7692307692308" height="0" fill="black"/><rect x="326.9743589743589" y="370" width="62.76923076923089" height="0" fill="blue"/><rect x="326.9743589743589" y="357.22941176470584" width="62.76923076923089" height="12.770588235294156" fill="gray"/><rect x="326.9743589743589" y="357.22941176470584" width="62.76923076923089" height="0" fill="red"/><rect x="326.9743589743589" y="357.22941176470584" width="62.76923076923089" height="0" fill="black"/><rect x="466.46153846153845" y="370" width="62.76923076923072" height="0" fill="blue"/><rect x="466.46153846153845" y="368.69674509803923" width="62.76923076923072" height="1.30325490196077" fill="gray"/><rect x="466.46153846153845" y="368.69674509803923" width="62.76923076923072" height="0" fill="red"/><rect x="466.46153846153845" y="368.69674509803923" width="62.76923076923072" height="0" fill="black"/></g><g aria-label="rect"><rect x="110.76923076923077" y="370" width="62.769230769230774" height="0" fill="blue"/><rect x="110.76923076923077" y="370" width="62.769230769230774" height="0" fill="gray"/><rect x="110.76923076923077" y="370" width="62.769230769230774" height="0" fill="red"/><rect x="110.76923076923077" y="356.9674509803922" width="62.769230769230774" height="13.032549019607814" fill="black"/><rect x="250.25641025641025" y="370" width="62.769230769230745" height="0" fill="blue"/><rect x="250.25641025641025" y="370" width="62.769230769230745" height="0" fill="gray"/><rect x="250.25641025641025" y="370" width="62.769230769230745" height="0" fill="red"/><rect x="250.25641025641025" y="344.45882352941175" width="62.769230769230745" height="25.541176470588255" fill="black"/><rect x="389.7435897435898" y="370" width="62.769230769230774" height="0" fill="blue"/><rect x="389.7435897435898" y="370" width="62.769230769230774" height="0" fill="gray"/><rect x="389.7435897435898" y="370" width="62.769230769230774" height="0" fill="red"/><rect x="389.7435897435898" y="345.1137254901961" width="62.769230769230774" height="24.88627450980391" fill="black"/><rect x="529.2307692307692" y="370" width="62.76923076923083" height="0" fill="blue"/><rect x="529.2307692307692" y="370" width="62.76923076923083" height="0" fill="gray"/><rect x="529.2307692307692" y="370" width="62.76923076923083" height="0" fill="red"/><rect x="529.2307692307692" y="336.6" width="62.76923076923083" height="33.39999999999998" fill="black"/></g><g aria-label="line" fill="none" stroke-width="1.5" stroke-linejoin="round" stroke-linecap="round" stroke-dasharray="4" transform="translate(0.5,0.5)"><path stroke="blue" d="M110.769,36L250.256,258.667L389.744,314.333L529.231,358.867"/></g><g aria-label="dot" transform="translate(0.5,0.5)"><circle cx="110.76923076923077" cy="36" r="3" fill="blue"/><circle cx="250.25641025641025" cy="258.6666666666667" r="3" fill="blue"/><circle cx="389.7435897435898" cy="314.3333333333333" r="3" fill="blue"/><circle cx="529.2307692307692" cy="358.8666666666667" r="3" fill="blue"/></g><g aria-label="line" fill="none" stroke-width="1.5" stroke-linejoin="round" stroke-linecap="round" stroke-dasharray="4" transform="translate(0.5,0.5)"><path stroke="red" d="M110.769,358.867L250.256,314.333L389.744,258.667L529.231,36"/></g><g aria-label="dot" transform="translate(0.5,0.5)"><circle cx="110.76923076923077" cy="358.8666666666667" r="3" fill="red"/><circle cx="250.25641025641025" cy="314.3333333333333" r="3" fill="red"/><circle cx="389.7435897435898" cy="258.6666666666667" r="3" fill="red"/><circle cx="529.2307692307692" cy="36" r="3" fill="red"/></g><g aria-label="text" transform="translate(0.5,0.5)"><text y="0.32em" transform="translate(180.5128205128205,68.74509803921568)" fill="blue">Initial β = 0.5511</text></g><g aria-label="text" transform="translate(0.5,0.5)"><text y="0.32em" transform="translate(459.48717948717945,68.74509803921568)" fill="red">New β = 0.2719</text></g></svg></svg>