<svg width="660" height="462.75" viewBox="-10,-10,660,462.75" xmlns="http://www.w3.org/2000/svg" xmlns:xlink="http://www.w3.org/1999/xlink"><svg width="894" height="35" x="0" y="0"><g transform="translate(2.8000000000000007,19)"><svg width="15" height="15" fill="#8c564b" y="-7.5px"><rect width="100%" height="100%"/></svg><text x="15" dx="5" dy="0.38em" font-family="system-ui, sans-serif" font-size="10px" fill="rgb(27, 30, 35)">Proportion of Supply</text></g><g transform="translate(149.18000488281248,19)"><svg width="15" height="15" fill="#7f7f7f" y="-7.5px"><rect width="100%" height="100%"/></svg><text x="15" dx="5" dy="0.38em" font-family="system-ui, sans-serif" font-size="10px" fill="rgb(27, 30, 35)">Rate of Change</text></g><g transform="translate(266.62000732421876,19)"><svg width="15" height="15" fill="#1f77b4" y="-7.5px"><rect width="100%" height="100%"/></svg><text x="15" dx="5" dy="0.38em" font-family="system-ui, sans-serif" font-size="10px" fill="rgb(27, 30, 35)">Initial Issuance P₀ = 7%</text></g><g transform="translate(425.12001953124997,19)"><svg width="15" height="15" fill="#2ca02c" y="-7.5px"><rect width="100%" height="100%"/></svg><text x="15" dx="5" dy="0.38em" font-family="system-ui, sans-serif" font-size="10px" fill="rgb(27, 30, 35)">Inflection Point Time T = 24 months</text></g></svg><svg class="plot-d6a7b5" fill="currentColor" font-family="system-ui, sans-serif" font-size="10" text-anchor="middle" width="640" height="400" viewBox="0 0 640 400" x="0" y="42.75"><style>:where(.plot-d6a7b5) {
  --plot-background: white;
  display: block;
  height: auto;
  height: intrinsic;
  max-width: 100%;
}
:where(.plot-d6a7b5 text),
:where(.plot-d6a7b5 tspan) {
  white-space: pre;
}</style><g aria-label="x-grid" aria-hidden="true" stroke="currentColor" stroke-opacity="0.1" transform="translate(0.5,0)"><line x1="40" x2="40" y1="20" y2="370"/><line x1="152" x2="152" y1="20" y2="370"/><line x1="264" x2="264" y1="20" y2="370"/><line x1="376" x2="376" y1="20" y2="370"/><line x1="488" x2="488" y1="20" y2="370"/><line x1="600" x2="600" y1="20" y2="370"/></g><g aria-label="x-axis tick" aria-hidden="true" fill="none" stroke="currentColor" transform="translate(0.5,0)"><path transform="translate(40,370)" d="M0,0L0,6"/><path transform="translate(152,370)" d="M0,0L0,6"/><path transform="translate(264,370)" d="M0,0L0,6"/><path transform="translate(376,370)" d="M0,0L0,6"/><path transform="translate(488,370)" d="M0,0L0,6"/><path transform="translate(600,370)" d="M0,0L0,6"/></g><g aria-label="x-axis tick label" font-variant="tabular-nums" transform="translate(0.5,9.5)"><text y="0.71em" transform="translate(40,370)">0</text><text y="0.71em" transform="translate(152,370)">12</text><text y="0.71em" transform="translate(264,370)">24</text><text y="0.71em" transform="translate(376,370)">36</text><text y="0.71em" transform="translate(488,370)">48</text><text y="0.71em" transform="translate(600,370)">60</text></g><g aria-label="x-axis label" text-anchor="end" transform="translate(37.5,27.5)"><text transform="translate(600,370)">‘Life’ Span (Months) →</text></g><rect aria-label="frame" fill="none" stroke="currentColor" transform="translate(0.5,0.5)" x="40" y="20" width="560" height="350"/><g aria-label="y-axis tick" aria-hidden="true" fill="none" stroke="currentColor" transform="translate(0,0.5)"><path transform="translate(40,370)" d="M0,0L-6,0"/><path transform="translate(40,336.6)" d="M0,0L-6,0"/><path transform="translate(40,303.2)" d="M0,0L-6,0"/><path transform="translate(40,269.8)" d="M0,0L-6,0"/><path transform="translate(40,236.4)" d="M0,0L-6,0"/><path transform="translate(40,203)" d="M0,0L-6,0"/><path transform="translate(40,169.6)" d="M0,0L-6,0"/><path transform="translate(40,136.20000000000002)" d="M0,0L-6,0"/><path transform="translate(40,102.79999999999998)" d="M0,0L-6,0"/><path transform="translate(40,69.39999999999999)" d="M0,0L-6,0"/><path transform="translate(40,36)" d="M0,0L-6,0"/></g><g aria-label="y-axis tick label" text-anchor="end" font-variant="tabular-nums" transform="translate(-8.5,0.5)"><text y="0.32em" transform="translate(40,370)">0</text><text y="0.32em" transform="translate(40,336.6)">10</text><text y="0.32em" transform="translate(40,303.2)">20</text><text y="0.32em" transform="translate(40,269.8)">30</text><text y="0.32em" transform="translate(40,236.4)">40</text><text y="0.32em" transform="translate(40,203)">50</text><text y="0.32em" transform="translate(40,169.6)">60</text><text y="0.32em" transform="translate(40,136.20000000000002)">70</text><text y="0.32em" transform="translate(40,102.79999999999998)">80</text><text y="0.32em" transform="translate(40,69.39999999999999)">90</text><text y="0.32em" transform="translate(40,36)">100</text></g><g aria-label="y-axis label" text-anchor="start" transform="translate(-36.5,-16.5)"><text y="0.71em" transform="translate(40,20)">↑ Proportion of Supply (%)</text></g><g aria-label="y-axis tick" aria-hidden="true" fill="none" stroke="currentColor" transform="translate(1,0.5)"><path transform="translate(600,370)" d="M0,0L6,0"/><path transform="translate(600,345.208464771264)" d="M0,0L6,0"/><path transform="translate(600,320.4169295425281)" d="M0,0L6,0"/><path transform="translate(600,295.6253943137922)" d="M0,0L6,0"/><path transform="translate(600,270.83385908505625)" d="M0,0L6,0"/><path transform="translate(600,246.0423238563203)" d="M0,0L6,0"/><path transform="translate(600,221.25078862758437)" d="M0,0L6,0"/><path transform="translate(600,196.45925339884843)" d="M0,0L6,0"/><path transform="translate(600,171.6677181701125)" d="M0,0L6,0"/><path transform="translate(600,146.87618294137656)" d="M0,0L6,0"/><path transform="translate(600,122.08464771264065)" d="M0,0L6,0"/><path transform="translate(600,97.29311248390465)" d="M0,0L6,0"/><path transform="translate(600,72.50157725516874)" d="M0,0L6,0"/><path transform="translate(600,47.71004202643281)" d="M0,0L6,0"/></g><g aria-label="y-axis tick label" text-anchor="start" font-variant="tabular-nums" transform="translate(9.5,0.5)"><text y="0.32em" transform="translate(600,370)">0.0</text><text y="0.32em" transform="translate(600,345.208464771264)">0.2</text><text y="0.32em" transform="translate(600,320.4169295425281)">0.4</text><text y="0.32em" transform="translate(600,295.6253943137922)">0.6</text><text y="0.32em" transform="translate(600,270.83385908505625)">0.8</text><text y="0.32em" transform="translate(600,246.0423238563203)">1.0</text><text y="0.32em" transform="translate(600,221.25078862758437)">1.2</text><text y="0.32em" transform="translate(600,196.45925339884843)">1.4</text><text y="0.32em" transform="translate(600,171.6677181701125)">1.6</text><text y="0.32em" transform="translate(600,146.87618294137656)">1.8</text><text y="0.32em" transform="translate(600,122.08464771264065)">2.0</text><text y="0.32em" transform="translate(600,97.29311248390465)">2.2</text><text y="0.32em" transform="translate(600,72.50157725516874)">2.4</text><text y="0.32em" transform="translate(600,47.71004202643281)">2.6</text></g><g aria-label="y-axis label" text-anchor="end" transform="translate(37.5,-16.5)"><text y="0.71em" transform="translate(600,20)">Rate of Change (%/Month) ↑</text></g><clipPath id="plot-clip-6"><rect x="40" y="20" width="560" height="350"/></clipPath><g aria-label="line" clip-path="url(#plot-clip-6)"><g fill="none" stroke-width="2" stroke-linejoin="round" stroke-linecap="round" stroke-dasharray="4" transform="translate(0.5,0.5)"><path stroke="#7f7f7f" d="M40,283.026L49.333,274.654L58.667,265.648L68,256L77.333,245.706L86.667,234.775L96,223.228L105.333,211.102L114.667,198.449L124,185.34L133.333,171.866L142.667,158.141L152,144.298L161.333,130.492L170.667,116.899L180,103.708L189.333,91.124L198.667,79.358L208,68.621L217.333,59.122L226.667,51.051L236,44.58L245.333,39.85L254.667,36.968L264,36L273.333,36.968L282.667,39.85L292,44.58L301.333,51.051L310.667,59.122L320,68.621L329.333,79.358L338.667,91.124L348,103.708L357.333,116.899L366.667,130.492L376,144.298L385.333,158.141L394.667,171.866L404,185.34L413.333,198.449L422.667,211.102L432,223.228L441.333,234.775L450.667,245.706L460,256L469.333,265.648L478.667,274.654L488,283.026L497.333,290.784L506.667,297.949L516,304.547L525.333,310.61L534.667,316.166L544,321.248L553.333,325.888L562.667,330.117L572,333.966L581.333,337.463L590.667,340.638L600,343.517"/></g></g><g aria-label="line" clip-path="url(#plot-clip-6)"><g fill="none" stroke-width="2" stroke-linejoin="round" stroke-linecap="round" transform="translate(0.5,0.5)"><path stroke="#8c564b" d="M40,346.62L49.333,344.165L58.667,341.476L68,338.536L77.333,335.327L86.667,331.832L96,328.034L105.333,323.917L114.667,319.467L124,314.669L133.333,309.512L142.667,303.989L152,298.094L161.333,291.826L170.667,285.189L180,278.19L189.333,270.844L198.667,263.169L208,255.191L217.333,246.939L226.667,238.451L236,229.766L245.333,220.93L254.667,211.991L264,203L273.333,194.009L282.667,185.07L292,176.234L301.333,167.549L310.667,159.061L320,150.809L329.333,142.831L338.667,135.156L348,127.81L357.333,120.811L366.667,114.174L376,107.906L385.333,102.011L394.667,96.488L404,91.331L413.333,86.533L422.667,82.083L432,77.966L441.333,74.168L450.667,70.673L460,67.464L469.333,64.524L478.667,61.835L488,59.38L497.333,57.142L506.667,55.106L516,53.255L525.333,51.574L534.667,50.049L544,48.668L553.333,47.418L562.667,46.288L572,45.266L581.333,44.343L590.667,43.509L600,42.758"/></g></g><g aria-label="area" clip-path="url(#plot-clip-6)"><g fill-opacity="0.3"><path fill="#8c564b" d="M40,370L49.333,370L58.667,370L68,370L77.333,370L86.667,370L96,370L105.333,370L114.667,370L124,370L133.333,370L142.667,370L152,370L161.333,370L170.667,370L180,370L189.333,370L198.667,370L208,370L217.333,370L226.667,370L236,370L245.333,370L254.667,370L264,370L273.333,370L282.667,370L292,370L301.333,370L310.667,370L320,370L329.333,370L338.667,370L348,370L357.333,370L366.667,370L376,370L385.333,370L394.667,370L404,370L413.333,370L422.667,370L432,370L441.333,370L450.667,370L460,370L469.333,370L478.667,370L488,370L497.333,370L506.667,370L516,370L525.333,370L534.667,370L544,370L553.333,370L562.667,370L572,370L581.333,370L590.667,370L600,370L600,370L590.667,370L581.333,370L572,370L562.667,370L553.333,370L544,370L534.667,370L525.333,370L516,370L506.667,370L497.333,370L488,370L478.667,370L469.333,370L460,370L450.667,370L441.333,370L432,370L422.667,370L413.333,370L404,370L394.667,370L385.333,370L376,370L366.667,370L357.333,370L348,370L338.667,370L329.333,370L320,370L310.667,370L301.333,370L292,370L282.667,370L273.333,370L264,370L254.667,370L245.333,370L236,370L226.667,370L217.333,370L208,370L198.667,370L189.333,370L180,370L170.667,370L161.333,370L152,370L142.667,370L133.333,370L124,370L114.667,370L105.333,370L96,370L86.667,370L77.333,370L68,370L58.667,370L49.333,370L40,370Z"/><path fill="#7f7f7f" d="M40,283.026L49.333,274.654L58.667,265.648L68,256L77.333,245.706L86.667,234.775L96,223.228L105.333,211.102L114.667,198.449L124,185.34L133.333,171.866L142.667,158.141L152,144.298L161.333,130.492L170.667,116.899L180,103.708L189.333,91.124L198.667,79.358L208,68.621L217.333,59.122L226.667,51.051L236,44.58L245.333,39.85L254.667,36.968L264,36L273.333,36.968L282.667,39.85L292,44.58L301.333,51.051L310.667,59.122L320,68.621L329.333,79.358L338.667,91.124L348,103.708L357.333,116.899L366.667,130.492L376,144.298L385.333,158.141L394.667,171.866L404,185.34L413.333,198.449L422.667,211.102L432,223.228L441.333,234.775L450.667,245.706L460,256L469.333,265.648L478.667,274.654L488,283.026L497.333,290.784L506.667,297.949L516,304.547L525.333,310.61L534.667,316.166L544,321.248L553.333,325.888L562.667,330.117L572,333.966L581.333,337.463L590.667,340.638L600,343.517L600,370L590.667,370L581.333,370L572,370L562.667,370L553.333,370L544,370L534.667,370L525.333,370L516,370L506.667,370L497.333,370L488,370L478.667,370L469.333,370L460,370L450.667,370L441.333,370L432,370L422.667,370L413.333,370L404,370L394.667,370L385.333,370L376,370L366.667,370L357.333,370L348,370L338.667,370L329.333,370L320,370L310.667,370L301.333,370L292,370L282.667,370L273.333,370L264,370L254.667,370L245.333,370L236,370L226.667,370L217.333,370L208,370L198.667,370L189.333,370L180,370L170.667,370L161.333,370L152,370L142.667,370L133.333,370L124,370L114.667,370L105.333,370L96,370L86.667,370L77.333,370L68,370L58.667,370L49.333,370L40,370Z"/></g></g><g aria-label="area" clip-path="url(#plot-clip-6)"><g fill-opacity="0.3"><path fill="#8c564b" d="M40,346.62L49.333,344.165L58.667,341.476L68,338.536L77.333,335.327L86.667,331.832L96,328.034L105.333,323.917L114.667,319.467L124,314.669L133.333,309.512L142.667,303.989L152,298.094L161.333,291.826L170.667,285.189L180,278.19L189.333,270.844L198.667,263.169L208,255.191L217.333,246.939L226.667,238.451L236,229.766L245.333,220.93L254.667,211.991L264,203L273.333,194.009L282.667,185.07L292,176.234L301.333,167.549L310.667,159.061L320,150.809L329.333,142.831L338.667,135.156L348,127.81L357.333,120.811L366.667,114.174L376,107.906L385.333,102.011L394.667,96.488L404,91.331L413.333,86.533L422.667,82.083L432,77.966L441.333,74.168L450.667,70.673L460,67.464L469.333,64.524L478.667,61.835L488,59.38L497.333,57.142L506.667,55.106L516,53.255L525.333,51.574L534.667,50.049L544,48.668L553.333,47.418L562.667,46.288L572,45.266L581.333,44.343L590.667,43.509L600,42.758L600,370L590.667,370L581.333,370L572,370L562.667,370L553.333,370L544,370L534.667,370L525.333,370L516,370L506.667,370L497.333,370L488,370L478.667,370L469.333,370L460,370L450.667,370L441.333,370L432,370L422.667,370L413.333,370L404,370L394.667,370L385.333,370L376,370L366.667,370L357.333,370L348,370L338.667,370L329.333,370L320,370L310.667,370L301.333,370L292,370L282.667,370L273.333,370L264,370L254.667,370L245.333,370L236,370L226.667,370L217.333,370L208,370L198.667,370L189.333,370L180,370L170.667,370L161.333,370L152,370L142.667,370L133.333,370L124,370L114.667,370L105.333,370L96,370L86.667,370L77.333,370L68,370L58.667,370L49.333,370L40,370Z"/><path fill="#7f7f7f" d="M40,346.62L49.333,344.165L58.667,341.476L68,338.536L77.333,335.327L86.667,331.832L96,328.034L105.333,323.917L114.667,319.467L124,314.669L133.333,309.512L142.667,303.989L152,298.094L161.333,291.826L170.667,285.189L180,278.19L189.333,270.844L198.667,263.169L208,255.191L217.333,246.939L226.667,238.451L236,229.766L245.333,220.93L254.667,211.991L264,203L273.333,194.009L282.667,185.07L292,176.234L301.333,167.549L310.667,159.061L320,150.809L329.333,142.831L338.667,135.156L348,127.81L357.333,120.811L366.667,114.174L376,107.906L385.333,102.011L394.667,96.488L404,91.331L413.333,86.533L422.667,82.083L432,77.966L441.333,74.168L450.667,70.673L460,67.464L469.333,64.524L478.667,61.835L488,59.38L497.333,57.142L506.667,55.106L516,53.255L525.333,51.574L534.667,50.049L544,48.668L553.333,47.418L562.667,46.288L572,45.266L581.333,44.343L590.667,43.509L600,42.758L600,42.758L590.667,43.509L581.333,44.343L572,45.266L562.667,46.288L553.333,47.418L544,48.668L534.667,50.049L525.333,51.574L516,53.255L506.667,55.106L497.333,57.142L488,59.38L478.667,61.835L469.333,64.524L460,67.464L450.667,70.673L441.333,74.168L432,77.966L422.667,82.083L413.333,86.533L404,91.331L394.667,96.488L385.333,102.011L376,107.906L366.667,114.174L357.333,120.811L348,127.81L338.667,135.156L329.333,142.831L320,150.809L310.667,159.061L301.333,167.549L292,176.234L282.667,185.07L273.333,194.009L264,203L254.667,211.991L245.333,220.93L236,229.766L226.667,238.451L217.333,246.939L208,255.191L198.667,263.169L189.333,270.844L180,278.19L170.667,285.189L161.333,291.826L152,298.094L142.667,303.989L133.333,309.512L124,314.669L114.667,319.467L105.333,323.917L96,328.034L86.667,331.832L77.333,335.327L68,338.536L58.667,341.476L49.333,344.165L40,346.62Z"/></g></g><g aria-label="rule" clip-path="url(#plot-clip-6)"><g stroke-width="2" stroke-dasharray="4" transform="translate(0.5,0)"><line x1="264" x2="264" y1="370" y2="203" stroke="#2ca02c"/></g></g><g aria-label="dot" clip-path="url(#plot-clip-6)"><g transform="translate(0.5,0.5)"><circle cx="44.66666666666667" cy="346.61999999999995" r="5" fill="#1f77b4"/><circle cx="264" cy="203" r="5" fill="#2ca02c"/></g></g></svg></svg>