<svg class="plot-d6a7b5" fill="currentColor" font-family="system-ui, sans-serif" font-size="10" text-anchor="middle" width="640" height="400" viewBox="0 0 640 400" xmlns="http://www.w3.org/2000/svg" xmlns:xlink="http://www.w3.org/1999/xlink"><style>:where(.plot-d6a7b5) {
  --plot-background: white;
  display: block;
  height: auto;
  height: intrinsic;
  max-width: 100%;
}
:where(.plot-d6a7b5 text),
:where(.plot-d6a7b5 tspan) {
  white-space: pre;
}</style><g aria-label="y-grid" aria-hidden="true" stroke="currentColor" stroke-opacity="0.1" transform="translate(0,0.5)"><line x1="40" x2="620" y1="370" y2="370"/><line x1="40" x2="620" y1="330.9039265567422" y2="330.9039265567422"/><line x1="40" x2="620" y1="291.8078531134844" y2="291.8078531134844"/><line x1="40" x2="620" y1="252.71177967022655" y2="252.71177967022655"/><line x1="40" x2="620" y1="213.61570622696883" y2="213.61570622696883"/><line x1="40" x2="620" y1="174.51963278371096" y2="174.51963278371096"/><line x1="40" x2="620" y1="135.42355934045318" y2="135.42355934045318"/><line x1="40" x2="620" y1="96.32748589719537" y2="96.32748589719537"/><line x1="40" x2="620" y1="57.23141245393758" y2="57.23141245393758"/></g><g aria-label="y-axis tick" aria-hidden="true" fill="none" stroke="currentColor" transform="translate(0,0.5)"><path transform="translate(40,370)" d="M0,0L-6,0"/><path transform="translate(40,330.9039265567422)" d="M0,0L-6,0"/><path transform="translate(40,291.8078531134844)" d="M0,0L-6,0"/><path transform="translate(40,252.71177967022655)" d="M0,0L-6,0"/><path transform="translate(40,213.61570622696883)" d="M0,0L-6,0"/><path transform="translate(40,174.51963278371096)" d="M0,0L-6,0"/><path transform="translate(40,135.42355934045318)" d="M0,0L-6,0"/><path transform="translate(40,96.32748589719537)" d="M0,0L-6,0"/><path transform="translate(40,57.23141245393758)" d="M0,0L-6,0"/></g><g aria-label="y-axis tick label" text-anchor="end" font-variant="tabular-nums" transform="translate(-8.5,0.5)"><text y="0.32em" transform="translate(40,370)">0</text><text y="0.32em" transform="translate(40,330.9039265567422)">20</text><text y="0.32em" transform="translate(40,291.8078531134844)">40</text><text y="0.32em" transform="translate(40,252.71177967022655)">60</text><text y="0.32em" transform="translate(40,213.61570622696883)">80</text><text y="0.32em" transform="translate(40,174.51963278371096)">100</text><text y="0.32em" transform="translate(40,135.42355934045318)">120</text><text y="0.32em" transform="translate(40,96.32748589719537)">140</text><text y="0.32em" transform="translate(40,57.23141245393758)">160</text></g><g aria-label="y-axis label" text-anchor="start" transform="translate(-36.5,-16.5)"><text y="0.71em" transform="translate(40,20)">↑ Annual Percentage (%)</text></g><g aria-label="x-grid" aria-hidden="true" stroke="currentColor" stroke-opacity="0.1" transform="translate(0.5,0)"><line x1="40" x2="40" y1="20" y2="370"/><line x1="156" x2="156" y1="20" y2="370"/><line x1="272" x2="272" y1="20" y2="370"/><line x1="388" x2="388" y1="20" y2="370"/><line x1="504" x2="504" y1="20" y2="370"/><line x1="620" x2="620" y1="20" y2="370"/></g><g aria-label="x-axis tick" aria-hidden="true" fill="none" stroke="currentColor" transform="translate(0.5,0)"><path transform="translate(40,370)" d="M0,0L0,6"/><path transform="translate(156,370)" d="M0,0L0,6"/><path transform="translate(272,370)" d="M0,0L0,6"/><path transform="translate(388,370)" d="M0,0L0,6"/><path transform="translate(504,370)" d="M0,0L0,6"/><path transform="translate(620,370)" d="M0,0L0,6"/></g><g aria-label="x-axis tick label" font-variant="tabular-nums" transform="translate(0.5,9.5)"><text y="0.71em" transform="translate(40,370)">0</text><text y="0.71em" transform="translate(156,370)">12</text><text y="0.71em" transform="translate(272,370)">24</text><text y="0.71em" transform="translate(388,370)">36</text><text y="0.71em" transform="translate(504,370)">48</text><text y="0.71em" transform="translate(620,370)">60</text></g><g aria-label="x-axis label" text-anchor="end" transform="translate(17.5,27.5)"><text transform="translate(620,370)">Time (Months) →</text></g><rect aria-label="frame" fill="none" stroke="currentColor" transform="translate(0.5,0.5)" x="40" y="20" width="580" height="350"/><clipPath id="plot-clip-20"><rect x="40" y="20" width="580" height="350"/></clipPath><g aria-label="line" clip-path="url(#plot-clip-20)"><g fill="none" stroke-width="2" stroke-linejoin="round" stroke-linecap="round" transform="translate(0.5,0.5)"><path stroke="#17becf" d="M40,83.754L49.667,59.547L59.333,36L69,41.73L78.667,48.471L88.333,56.16L98,64.728L107.667,74.094L117.333,84.173L127,94.869L136.667,106.084L146.333,117.715L156,129.658L165.667,141.806L175.333,154.058L185,166.315L194.667,178.482L204.333,190.475L214,202.215L223.667,213.633L233.333,224.672L243,235.282L252.667,245.425L262.333,255.074L272,264.208L281.667,272.817L291.333,280.897L301,288.453L310.667,295.492L320.333,302.029L330,308.081L339.667,313.669L349.333,318.815L359,323.542L368.667,327.875L378.333,331.84L388,336.508L397.667,340.721L407.333,344.522L417,347.949L426.667,351.038L436.333,353.821L446,356.328L455.667,358.586L465.333,360.618L475,362.447L484.667,364.092L494.333,365.573L504,365.996L513.667,366.382L523.333,366.733L533,367.051L542.667,367.34L552.333,367.601L562,367.838L571.667,368.052L581.333,368.246L591,368.421L600.667,368.578L610.333,368.721L620,368.849"/></g></g><g aria-label="area" clip-path="url(#plot-clip-20)"><g fill-opacity="0.2"><path fill="#17becf" d="M40,83.754L49.667,59.547L59.333,36L69,41.73L78.667,48.471L88.333,56.16L98,64.728L107.667,74.094L117.333,84.173L127,94.869L136.667,106.084L146.333,117.715L156,129.658L165.667,141.806L175.333,154.058L185,166.315L194.667,178.482L204.333,190.475L214,202.215L223.667,213.633L233.333,224.672L243,235.282L252.667,245.425L262.333,255.074L272,264.208L281.667,272.817L291.333,280.897L301,288.453L310.667,295.492L320.333,302.029L330,308.081L339.667,313.669L349.333,318.815L359,323.542L368.667,327.875L378.333,331.84L388,336.508L397.667,340.721L407.333,344.522L417,347.949L426.667,351.038L436.333,353.821L446,356.328L455.667,358.586L465.333,360.618L475,362.447L484.667,364.092L494.333,365.573L504,365.996L513.667,366.382L523.333,366.733L533,367.051L542.667,367.34L552.333,367.601L562,367.838L571.667,368.052L581.333,368.246L591,368.421L600.667,368.578L610.333,368.721L620,368.849L620,370L610.333,370L600.667,370L591,370L581.333,370L571.667,370L562,370L552.333,370L542.667,370L533,370L523.333,370L513.667,370L504,370L494.333,370L484.667,370L475,370L465.333,370L455.667,370L446,370L436.333,370L426.667,370L417,370L407.333,370L397.667,370L388,370L378.333,370L368.667,370L359,370L349.333,370L339.667,370L330,370L320.333,370L310.667,370L301,370L291.333,370L281.667,370L272,370L262.333,370L252.667,370L243,370L233.333,370L223.667,370L214,370L204.333,370L194.667,370L185,370L175.333,370L165.667,370L156,370L146.333,370L136.667,370L127,370L117.333,370L107.667,370L98,370L88.333,370L78.667,370L69,370L59.333,370L49.667,370L40,370Z"/></g></g><g aria-label="line" clip-path="url(#plot-clip-20)"><g fill="none" stroke-width="2" stroke-linejoin="round" stroke-linecap="round" stroke-dasharray="4" transform="translate(0.5,0.5)"><path stroke="#bcbd22" d="M40,199.675L49.667,180.936L59.333,162.51L69,166.193L78.667,170.507L88.333,175.411L98,180.859L107.667,186.802L117.333,193.182L127,199.94L136.667,207.013L146.333,214.335L156,221.84L165.667,229.462L175.333,237.136L185,244.8L194.667,252.396L204.333,259.872L214,267.178L223.667,274.272L233.333,281.12L243,287.692L252.667,293.965L262.333,299.923L272,305.554L281.667,310.854L291.333,315.822L301,320.46L310.667,324.775L320.333,328.777L330,332.477L339.667,335.889L349.333,339.027L359,341.906L368.667,344.543L378.333,346.953L388,350.198L397.667,353.112L407.333,355.729L417,358.078L426.667,360.187L436.333,362.08L446,363.78L455.667,365.305L465.333,366.675L475,367.905L484.667,369.009L494.333,370L504,370L513.667,370L523.333,370L533,370L542.667,370L552.333,370L562,370L571.667,370L581.333,370L591,370L600.667,370L610.333,370L620,370"/></g></g></svg>