<svg width="660" height="461.25" viewBox="-10,-10,660,461.25" xmlns="http://www.w3.org/2000/svg" xmlns:xlink="http://www.w3.org/1999/xlink"><svg width="1152" height="35" x="0" y="0"><g transform="translate(2.8000000000000007,19)"><svg width="15" height="15" fill="#1f77b4" y="-7.5px"><rect width="100%" height="100%"/></svg><text x="15" dx="5" dy="0.38em" font-family="system-ui, sans-serif" font-size="10px" fill="rgb(27, 30, 35)">Incentives</text></g><g transform="translate(91.50000610351562,19)"><svg width="15" height="15" fill="#ff7f0e" y="-7.5px"><rect width="100%" height="100%"/></svg><text x="15" dx="5" dy="0.38em" font-family="system-ui, sans-serif" font-size="10px" fill="rgb(27, 30, 35)">Klima Holders</text></g><g transform="translate(201.05999145507812,19)"><svg width="15" height="15" fill="#2ca02c" y="-7.5px"><rect width="100%" height="100%"/></svg><text x="15" dx="5" dy="0.38em" font-family="system-ui, sans-serif" font-size="10px" fill="rgb(27, 30, 35)">Product Design</text></g><g transform="translate(318.3000244140625,19)"><svg width="15" height="15" fill="#d62728" y="-7.5px"><rect width="100%" height="100%"/></svg><text x="15" dx="5" dy="0.38em" font-family="system-ui, sans-serif" font-size="10px" fill="rgb(27, 30, 35)">Ecosystem Grant</text></g><g transform="translate(442.3,19)"><svg width="15" height="15" fill="#9467bd" y="-7.5px"><rect width="100%" height="100%"/></svg><text x="15" dx="5" dy="0.38em" font-family="system-ui, sans-serif" font-size="10px" fill="rgb(27, 30, 35)">DAO/Treasury</text></g><g transform="translate(551.3200073242188,19)"><svg width="15" height="15" fill="#8c564b" y="-7.5px"><rect width="100%" height="100%"/></svg><text x="15" dx="5" dy="0.38em" font-family="system-ui, sans-serif" font-size="10px" fill="rgb(27, 30, 35)">pKlima Holders</text></g><g transform="translate(667.9399902343749,19)"><svg width="15" height="15" fill="#e377c2" y="-7.5px"><rect width="100%" height="100%"/></svg><text x="15" dx="5" dy="0.38em" font-family="system-ui, sans-serif" font-size="10px" fill="rgb(27, 30, 35)">01X</text></g></svg><svg class="plot-d6a7b5" fill="currentColor" font-family="system-ui, sans-serif" font-size="10" text-anchor="middle" width="640" height="400" viewBox="0 0 640 400" x="0" y="41.25"><style>:where(.plot-d6a7b5) {
  --plot-background: white;
  display: block;
  height: auto;
  height: intrinsic;
  max-width: 100%;
}
:where(.plot-d6a7b5 text),
:where(.plot-d6a7b5 tspan) {
  white-space: pre;
}</style><g aria-label="y-grid" aria-hidden="true" stroke="currentColor" stroke-opacity="0.1" transform="translate(0,0.5)"><line x1="40" x2="620" y1="370" y2="370"/><line x1="40" x2="620" y1="335.9183673469388" y2="335.9183673469388"/><line x1="40" x2="620" y1="301.83673469387753" y2="301.83673469387753"/><line x1="40" x2="620" y1="267.7551020408164" y2="267.7551020408164"/><line x1="40" x2="620" y1="233.67346938775512" y2="233.67346938775512"/><line x1="40" x2="620" y1="199.59183673469389" y2="199.59183673469389"/><line x1="40" x2="620" y1="165.51020408163268" y2="165.51020408163268"/><line x1="40" x2="620" y1="131.42857142857147" y2="131.42857142857147"/><line x1="40" x2="620" y1="97.34693877551024" y2="97.34693877551024"/><line x1="40" x2="620" y1="63.26530612244901" y2="63.26530612244901"/></g><g aria-label="y-axis tick" aria-hidden="true" fill="none" stroke="currentColor" transform="translate(0,0.5)"><path transform="translate(40,370)" d="M0,0L-6,0"/><path transform="translate(40,335.9183673469388)" d="M0,0L-6,0"/><path transform="translate(40,301.83673469387753)" d="M0,0L-6,0"/><path transform="translate(40,267.7551020408164)" d="M0,0L-6,0"/><path transform="translate(40,233.67346938775512)" d="M0,0L-6,0"/><path transform="translate(40,199.59183673469389)" d="M0,0L-6,0"/><path transform="translate(40,165.51020408163268)" d="M0,0L-6,0"/><path transform="translate(40,131.42857142857147)" d="M0,0L-6,0"/><path transform="translate(40,97.34693877551024)" d="M0,0L-6,0"/><path transform="translate(40,63.26530612244901)" d="M0,0L-6,0"/></g><g aria-label="y-axis tick label" text-anchor="end" font-variant="tabular-nums" transform="translate(-8.5,0.5)"><text y="0.32em" transform="translate(40,370)">0</text><text y="0.32em" transform="translate(40,335.9183673469388)">1</text><text y="0.32em" transform="translate(40,301.83673469387753)">2</text><text y="0.32em" transform="translate(40,267.7551020408164)">3</text><text y="0.32em" transform="translate(40,233.67346938775512)">4</text><text y="0.32em" transform="translate(40,199.59183673469389)">5</text><text y="0.32em" transform="translate(40,165.51020408163268)">6</text><text y="0.32em" transform="translate(40,131.42857142857147)">7</text><text y="0.32em" transform="translate(40,97.34693877551024)">8</text><text y="0.32em" transform="translate(40,63.26530612244901)">9</text></g><g aria-label="y-axis label" text-anchor="start" transform="translate(-36.5,-16.5)"><text y="0.71em" transform="translate(40,20)">↑ Rate of Growth (%/Month)</text></g><g aria-label="x-grid" aria-hidden="true" stroke="currentColor" stroke-opacity="0.1" transform="translate(0.5,0)"><line x1="52.16748768472906" x2="52.16748768472906" y1="20" y2="370"/><line x1="163.3004926108374" x2="163.3004926108374" y1="20" y2="370"/><line x1="274.43349753694577" x2="274.43349753694577" y1="20" y2="370"/><line x1="385.5665024630542" x2="385.5665024630542" y1="20" y2="370"/><line x1="496.69950738916253" x2="496.69950738916253" y1="20" y2="370"/><line x1="607.8325123152708" x2="607.8325123152708" y1="20" y2="370"/></g><g aria-label="x-axis tick" aria-hidden="true" fill="none" stroke="currentColor" transform="translate(0.5,0)"><path transform="translate(52.16748768472906,370)" d="M0,0L0,6"/><path transform="translate(163.3004926108374,370)" d="M0,0L0,6"/><path transform="translate(274.43349753694577,370)" d="M0,0L0,6"/><path transform="translate(385.5665024630542,370)" d="M0,0L0,6"/><path transform="translate(496.69950738916253,370)" d="M0,0L0,6"/><path transform="translate(607.8325123152708,370)" d="M0,0L0,6"/></g><g aria-label="x-axis tick label" font-variant="tabular-nums" transform="translate(0.5,9.5)"><text y="0.71em" transform="translate(52.16748768472906,370)">0</text><text y="0.71em" transform="translate(163.3004926108374,370)">12</text><text y="0.71em" transform="translate(274.43349753694577,370)">24</text><text y="0.71em" transform="translate(385.5665024630542,370)">36</text><text y="0.71em" transform="translate(496.69950738916253,370)">48</text><text y="0.71em" transform="translate(607.8325123152708,370)">60</text></g><g aria-label="x-axis label" text-anchor="end" transform="translate(17.5,27.5)"><text transform="translate(620,370)">Time (Months) →</text></g><rect aria-label="frame" fill="none" stroke="currentColor" transform="translate(0.5,0.5)" x="40" y="20" width="580" height="350"/><clipPath id="plot-clip-2"><rect x="40" y="20" width="580" height="350"/></clipPath><g aria-label="rect" clip-path="url(#plot-clip-2)"><g><rect x="48" y="274.57142857142856" width="8.334975369458128" height="95.42857142857144" fill="#1f77b4"/><rect x="48" y="274.57142857142856" width="8.334975369458128" height="0" fill="#ff7f0e"/><rect x="48" y="274.57142857142856" width="8.334975369458128" height="0" fill="#2ca02c"/><rect x="48" y="274.57142857142856" width="8.334975369458128" height="0" fill="#d62728"/><rect x="48" y="274.57142857142856" width="8.334975369458128" height="0" fill="#8c564b"/><rect x="48" y="121.20408163265304" width="8.334975369458128" height="153.3673469387755" fill="#9467bd"/><rect x="48" y="36" width="8.334975369458128" height="85.20408163265304" fill="#e377c2"/><rect x="57.26108374384236" y="359.5139900422283" width="8.334975369458135" height="10.486009957771728" fill="#1f77b4"/><rect x="57.26108374384236" y="359.5139900422283" width="8.334975369458135" height="0" fill="#ff7f0e"/><rect x="57.26108374384236" y="359.5139900422283" width="8.334975369458135" height="0" fill="#2ca02c"/><rect x="57.26108374384236" y="359.5139900422283" width="8.334975369458135" height="0" fill="#d62728"/><rect x="57.26108374384236" y="359.5139900422283" width="8.334975369458135" height="0" fill="#8c564b"/><rect x="57.26108374384236" y="359.5139900422283" width="8.334975369458135" height="0" fill="#9467bd"/><rect x="57.26108374384236" y="359.5139900422283" width="8.334975369458135" height="0" fill="#e377c2"/><rect x="66.52216748768473" y="358.52360055742804" width="8.334975369458135" height="11.47639944257196" fill="#1f77b4"/><rect x="66.52216748768473" y="358.52360055742804" width="8.334975369458135" height="0" fill="#ff7f0e"/><rect x="66.52216748768473" y="358.52360055742804" width="8.334975369458135" height="0" fill="#2ca02c"/><rect x="66.52216748768473" y="358.52360055742804" width="8.334975369458135" height="0" fill="#d62728"/><rect x="66.52216748768473" y="358.52360055742804" width="8.334975369458135" height="0" fill="#8c564b"/><rect x="66.52216748768473" y="358.52360055742804" width="8.334975369458135" height="0" fill="#9467bd"/><rect x="66.52216748768473" y="358.52360055742804" width="8.334975369458135" height="0" fill="#e377c2"/><rect x="75.78325123152709" y="357.4624535151736" width="8.334975369458135" height="12.537546484826407" fill="#1f77b4"/><rect x="75.78325123152709" y="342.479100402135" width="8.334975369458135" height="14.983353113038618" fill="#ff7f0e"/><rect x="75.78325123152709" y="340.60618126300517" width="8.334975369458135" height="1.872919139129806" fill="#2ca02c"/><rect x="75.78325123152709" y="338.73326212387536" width="8.334975369458135" height="1.872919139129806" fill="#d62728"/><rect x="75.78325123152709" y="337.60951064039745" width="8.334975369458135" height="1.1237514834779176" fill="#8c564b"/><rect x="75.78325123152709" y="337.60951064039745" width="8.334975369458135" height="0" fill="#9467bd"/><rect x="75.78325123152709" y="337.60951064039745" width="8.334975369458135" height="0" fill="#e377c2"/><rect x="85.04433497536945" y="356.3303278985625" width="8.334975369458135" height="13.669672101437527" fill="#1f77b4"/><rect x="85.04433497536945" y="339.99399572358925" width="8.334975369458135" height="16.336332174973222" fill="#ff7f0e"/><rect x="85.04433497536945" y="337.9519542017177" width="8.334975369458135" height="2.0420415218715675" fill="#2ca02c"/><rect x="85.04433497536945" y="335.909912679846" width="8.334975369458135" height="2.042041521871681" fill="#d62728"/><rect x="85.04433497536945" y="334.6846877667231" width="8.334975369458135" height="1.2252249131229291" fill="#8c564b"/><rect x="85.04433497536945" y="334.6846877667231" width="8.334975369458135" height="0" fill="#9467bd"/><rect x="85.04433497536945" y="334.6846877667231" width="8.334975369458135" height="0" fill="#e377c2"/><rect x="94.30541871921181" y="355.12816560660997" width="8.334975369458135" height="14.871834393390031" fill="#1f77b4"/><rect x="94.30541871921181" y="337.35515503995117" width="8.334975369458135" height="17.773010566658797" fill="#ff7f0e"/><rect x="94.30541871921181" y="335.13352871911883" width="8.334975369458135" height="2.2216263208323426" fill="#2ca02c"/><rect x="94.30541871921181" y="332.91190239828654" width="8.334975369458135" height="2.2216263208322857" fill="#d62728"/><rect x="94.30541871921181" y="331.5789266057871" width="8.334975369458135" height="1.3329757924994396" fill="#8c564b"/><rect x="94.30541871921181" y="331.5789266057871" width="8.334975369458135" height="0" fill="#9467bd"/><rect x="94.30541871921181" y="331.5789266057871" width="8.334975369458135" height="0" fill="#e377c2"/><rect x="103.56650246305418" y="353.8582971708992" width="8.334975369458135" height="16.14170282910078" fill="#1f77b4"/><rect x="103.56650246305418" y="334.5676940511534" width="8.334975369458135" height="19.29060311974581" fill="#ff7f0e"/><rect x="103.56650246305418" y="332.1563686611852" width="8.334975369458135" height="2.4113253899682263" fill="#2ca02c"/><rect x="103.56650246305418" y="329.745043271217" width="8.334975369458135" height="2.4113253899681695" fill="#d62728"/><rect x="103.56650246305418" y="328.2982480372361" width="8.334975369458135" height="1.4467952339809358" fill="#8c564b"/><rect x="103.56650246305418" y="328.2982480372361" width="8.334975369458135" height="0" fill="#9467bd"/><rect x="103.56650246305418" y="328.2982480372361" width="8.334975369458135" height="0" fill="#e377c2"/><rect x="112.82758620689654" y="352.5246718871853" width="8.334975369458135" height="17.47532811281468" fill="#1f77b4"/><rect x="112.82758620689654" y="331.6402817716709" width="8.334975369458135" height="20.884390115514407" fill="#ff7f0e"/><rect x="112.82758620689654" y="329.0297330072315" width="8.334975369458135" height="2.610548764439386" fill="#2ca02c"/><rect x="112.82758620689654" y="326.4191842427922" width="8.334975369458135" height="2.6105487644393293" fill="#d62728"/><rect x="112.82758620689654" y="324.85285498412867" width="8.334975369458135" height="1.5663292586635293" fill="#8c564b"/><rect x="112.82758620689654" y="324.85285498412867" width="8.334975369458135" height="0" fill="#9467bd"/><rect x="112.82758620689654" y="324.85285498412867" width="8.334975369458135" height="0" fill="#e377c2"/><rect x="122.0886699507389" y="351.13308178009555" width="8.334975369458107" height="18.86691821990445" fill="#1f77b4"/><rect x="122.0886699507389" y="328.5856321506345" width="8.334975369458107" height="22.547449629461028" fill="#ff7f0e"/><rect x="122.0886699507389" y="325.7672009469519" width="8.334975369458107" height="2.8184312036826213" fill="#2ca02c"/><rect x="122.0886699507389" y="322.9487697432693" width="8.334975369458107" height="2.8184312036826213" fill="#d62728"/><rect x="122.0886699507389" y="321.25771102105966" width="8.334975369458107" height="1.6910587222096183" fill="#8c564b"/><rect x="122.0886699507389" y="321.25771102105966" width="8.334975369458107" height="0" fill="#9467bd"/><rect x="122.0886699507389" y="321.25771102105966" width="8.334975369458107" height="0" fill="#e377c2"/><rect x="131.34975369458127" y="349.691365818201" width="8.334975369458135" height="20.308634181798993" fill="#1f77b4"/><rect x="131.34975369458127" y="325.42095233995866" width="8.334975369458135" height="24.270413478242347" fill="#ff7f0e"/><rect x="131.34975369458127" y="322.3871506551784" width="8.334975369458135" height="3.033801684780258" fill="#2ca02c"/><rect x="131.34975369458127" y="319.35334897039814" width="8.334975369458135" height="3.033801684780258" fill="#d62728"/><rect x="131.34975369458127" y="317.53306795952994" width="8.334975369458135" height="1.8202810108682002" fill="#8c564b"/><rect x="131.34975369458127" y="317.53306795952994" width="8.334975369458135" height="0" fill="#9467bd"/><rect x="131.34975369458127" y="317.53306795952994" width="8.334975369458135" height="0" fill="#e377c2"/><rect x="140.61083743842363" y="348.209577903954" width="8.334975369458107" height="21.790422096045972" fill="#1f77b4"/><rect x="140.61083743842363" y="322.1683114454524" width="8.334975369458107" height="26.04126645850164" fill="#ff7f0e"/><rect x="140.61083743842363" y="318.9131531381397" width="8.334975369458107" height="3.2551583073126835" fill="#2ca02c"/><rect x="140.61083743842363" y="315.657994830827" width="8.334975369458107" height="3.2551583073126835" fill="#d62728"/><rect x="140.61083743842363" y="313.70489984643933" width="8.334975369458107" height="1.9530949843876897" fill="#8c564b"/><rect x="140.61083743842363" y="313.70489984643933" width="8.334975369458107" height="0" fill="#9467bd"/><rect x="140.61083743842363" y="313.70489984643933" width="8.334975369458107" height="0" fill="#e377c2"/><rect x="149.871921182266" y="346.700099737597" width="8.334975369458135" height="23.299900262403014" fill="#1f77b4"/><rect x="149.871921182266" y="318.8548882719664" width="8.334975369458135" height="27.845211465630598" fill="#ff7f0e"/><rect x="149.871921182266" y="315.37423683876256" width="8.334975369458135" height="3.480651433203832" fill="#2ca02c"/><rect x="149.871921182266" y="311.8935854055587" width="8.334975369458135" height="3.480651433203832" fill="#d62728"/><rect x="149.871921182266" y="309.8051945456364" width="8.334975369458135" height="2.088390859922299" fill="#8c564b"/><rect x="149.871921182266" y="309.8051945456364" width="8.334975369458135" height="0" fill="#9467bd"/><rect x="149.871921182266" y="309.8051945456364" width="8.334975369458135" height="0" fill="#e377c2"/><rect x="159.13300492610836" y="345.17767814655326" width="8.334975369458135" height="24.822321853446738" fill="#1f77b4"/><rect x="159.13300492610836" y="315.51305326434" width="8.334975369458135" height="29.664624882213275" fill="#ff7f0e"/><rect x="159.13300492610836" y="311.80497515406336" width="8.334975369458135" height="3.708078110276631" fill="#2ca02c"/><rect x="159.13300492610836" y="308.09689704378667" width="8.334975369458135" height="3.7080781102766878" fill="#d62728"/><rect x="159.13300492610836" y="305.8720501776207" width="8.334975369458135" height="2.22484686616599" fill="#8c564b"/><rect x="159.13300492610836" y="305.8720501776207" width="8.334975369458135" height="0" fill="#9467bd"/><rect x="159.13300492610836" y="305.8720501776207" width="8.334975369458135" height="0" fill="#e377c2"/><rect x="168.39408866995075" y="343.6593663922752" width="8.334975369458078" height="26.340633607724783" fill="#1f77b4"/><rect x="168.39408866995075" y="312.18023967132046" width="8.334975369458078" height="31.479126720954753" fill="#ff7f0e"/><rect x="168.39408866995075" y="308.2453488312011" width="8.334975369458078" height="3.934890840119351" fill="#2ca02c"/><rect x="168.39408866995075" y="304.31045799108176" width="8.334975369458078" height="3.934890840119351" fill="#d62728"/><rect x="168.39408866995075" y="301.9495234870102" width="8.334975369458078" height="2.3609345040715652" fill="#8c564b"/><rect x="168.39408866995075" y="301.9495234870102" width="8.334975369458078" height="0" fill="#9467bd"/><rect x="168.39408866995075" y="301.9495234870102" width="8.334975369458078" height="0" fill="#e377c2"/><rect x="177.65517241379308" y="342.1643508268895" width="8.334975369458135" height="27.835649173110482" fill="#1f77b4"/><rect x="177.65517241379308" y="308.89856304328" width="8.334975369458135" height="33.26578778360954" fill="#ff7f0e"/><rect x="177.65517241379308" y="304.7403395703288" width="8.334975369458135" height="4.158223472951192" fill="#2ca02c"/><rect x="177.65517241379308" y="300.5821160973776" width="8.334975369458135" height="4.158223472951192" fill="#d62728"/><rect x="177.65517241379308" y="298.0871820136069" width="8.334975369458135" height="2.4949340837707155" fill="#8c564b"/><rect x="177.65517241379308" y="298.0871820136069" width="8.334975369458135" height="0" fill="#9467bd"/><rect x="177.65517241379308" y="298.0871820136069" width="8.334975369458135" height="0" fill="#e377c2"/><rect x="186.91625615763544" y="340.7136484996223" width="8.334975369458135" height="29.28635150037769" fill="#1f77b4"/><rect x="186.91625615763544" y="305.71415745456073" width="8.334975369458135" height="34.999491045061575" fill="#ff7f0e"/><rect x="186.91625615763544" y="301.33922107392794" width="8.334975369458135" height="4.374936380632789" fill="#2ca02c"/><rect x="186.91625615763544" y="296.9642846932953" width="8.334975369458135" height="4.374936380632619" fill="#d62728"/><rect x="186.91625615763544" y="294.3393228649157" width="8.334975369458135" height="2.6249618283796394" fill="#8c564b"/><rect x="186.91625615763544" y="294.3393228649157" width="8.334975369458135" height="0" fill="#9467bd"/><rect x="186.91625615763544" y="294.3393228649157" width="8.334975369458135" height="0" fill="#e377c2"/><rect x="196.1773399014778" y="339.329668143012" width="8.334975369458107" height="30.670331856988014" fill="#1f77b4"/><rect x="196.1773399014778" y="302.67621183371796" width="8.334975369458107" height="36.65345630929403" fill="#ff7f0e"/><rect x="196.1773399014778" y="298.0945297950562" width="8.334975369458107" height="4.581682038661768" fill="#2ca02c"/><rect x="196.1773399014778" y="293.5128477563944" width="8.334975369458107" height="4.581682038661768" fill="#d62728"/><rect x="196.1773399014778" y="290.76383853319743" width="8.334975369458107" height="2.7490092231969925" fill="#8c564b"/><rect x="196.1773399014778" y="290.76383853319743" width="8.334975369458107" height="0" fill="#9467bd"/><rect x="196.1773399014778" y="290.76383853319743" width="8.334975369458107" height="0" fill="#e377c2"/><rect x="205.4384236453202" y="338.0356363299032" width="8.334975369458107" height="31.964363670096816" fill="#1f77b4"/><rect x="205.4384236453202" y="299.8357103330366" width="8.334975369458107" height="38.19992599686657" fill="#ff7f0e"/><rect x="205.4384236453202" y="295.06071958342835" width="8.334975369458107" height="4.774990749608264" fill="#2ca02c"/><rect x="205.4384236453202" y="290.28572883382003" width="8.334975369458107" height="4.774990749608321" fill="#d62728"/><rect x="205.4384236453202" y="287.42073438405504" width="8.334975369458107" height="2.8649944497649926" fill="#8c564b"/><rect x="205.4384236453202" y="287.42073438405504" width="8.334975369458107" height="0" fill="#9467bd"/><rect x="205.4384236453202" y="287.42073438405504" width="8.334975369458107" height="0" fill="#e377c2"/><rect x="214.69950738916256" y="336.8549020098761" width="8.334975369458107" height="33.14509799012387" fill="#1f77b4"/><rect x="214.69950738916256" y="297.2439057313512" width="8.334975369458107" height="39.61099627852491" fill="#ff7f0e"/><rect x="214.69950738916256" y="292.29253119653566" width="8.334975369458107" height="4.951374534815557" fill="#2ca02c"/><rect x="214.69950738916256" y="287.34115666172" width="8.334975369458107" height="4.95137453481567" fill="#d62728"/><rect x="214.69950738916256" y="284.3703319408307" width="8.334975369458107" height="2.9708247208893113" fill="#8c564b"/><rect x="214.69950738916256" y="284.3703319408307" width="8.334975369458107" height="0" fill="#9467bd"/><rect x="214.69950738916256" y="284.3703319408307" width="8.334975369458107" height="0" fill="#e377c2"/><rect x="223.9605911330049" y="335.8101451832535" width="8.334975369458135" height="34.189854816746504" fill="#1f77b4"/><rect x="223.9605911330049" y="294.9505824113171" width="8.334975369458135" height="40.859562771936396" fill="#ff7f0e"/><rect x="223.9605911330049" y="289.84313706482504" width="8.334975369458135" height="5.107445346492057" fill="#2ca02c"/><rect x="223.9605911330049" y="284.735691718333" width="8.334975369458135" height="5.107445346492057" fill="#d62728"/><rect x="223.9605911330049" y="281.67122451043775" width="8.334975369458135" height="3.064467207895234" fill="#8c564b"/><rect x="223.9605911330049" y="281.67122451043775" width="8.334975369458135" height="0" fill="#9467bd"/><rect x="223.9605911330049" y="281.67122451043775" width="8.334975369458135" height="0" fill="#e377c2"/><rect x="233.2216748768473" y="334.92252780818643" width="8.334975369458135" height="35.07747219181357" fill="#1f77b4"/><rect x="233.2216748768473" y="293.0021925337516" width="8.334975369458135" height="41.92033527443482" fill="#ff7f0e"/><rect x="233.2216748768473" y="287.7621506244473" width="8.334975369458135" height="5.240041909304296" fill="#2ca02c"/><rect x="233.2216748768473" y="282.52210871514296" width="8.334975369458135" height="5.240041909304352" fill="#d62728"/><rect x="233.2216748768473" y="279.3780835695604" width="8.334975369458135" height="3.1440251455825887" fill="#8c564b"/><rect x="233.2216748768473" y="279.3780835695604" width="8.334975369458135" height="0" fill="#9467bd"/><rect x="233.2216748768473" y="279.3780835695604" width="8.334975369458135" height="0" fill="#e377c2"/><rect x="242.48275862068962" y="334.2108355289527" width="8.334975369458135" height="35.789164471047286" fill="#1f77b4"/><rect x="242.48275862068962" y="291.43997206381596" width="8.334975369458135" height="42.770863465136756" fill="#ff7f0e"/><rect x="242.48275862068962" y="286.09361413067387" width="8.334975369458135" height="5.346357933142087" fill="#2ca02c"/><rect x="242.48275862068962" y="280.74725619753184" width="8.334975369458135" height="5.346357933142031" fill="#d62728"/><rect x="242.48275862068962" y="277.53944143764653" width="8.334975369458135" height="3.2078147598853093" fill="#8c564b"/><rect x="242.48275862068962" y="277.53944143764653" width="8.334975369458135" height="0" fill="#9467bd"/><rect x="242.48275862068962" y="277.53944143764653" width="8.334975369458135" height="0" fill="#e377c2"/><rect x="251.743842364532" y="333.6906657692746" width="8.334975369458107" height="36.309334230725426" fill="#1f77b4"/><rect x="251.743842364532" y="290.2981585720555" width="8.334975369458107" height="43.39250719721906" fill="#ff7f0e"/><rect x="251.743842364532" y="284.87409517240314" width="8.334975369458107" height="5.424063399652368" fill="#2ca02c"/><rect x="251.743842364532" y="279.4500317727507" width="8.334975369458107" height="5.424063399652425" fill="#d62728"/><rect x="251.743842364532" y="276.1955937329593" width="8.334975369458107" height="3.2544380397914097" fill="#8c564b"/><rect x="251.743842364532" y="276.1955937329593" width="8.334975369458107" height="0" fill="#9467bd"/><rect x="251.743842364532" y="276.1955937329593" width="8.334975369458107" height="0" fill="#e377c2"/><rect x="261.0049261083744" y="333.3737196998262" width="8.334975369458107" height="36.62628030017379" fill="#1f77b4"/><rect x="261.0049261083744" y="289.60243704745074" width="8.334975369458107" height="43.771282652375476" fill="#ff7f0e"/><rect x="261.0049261083744" y="284.1310267159038" width="8.334975369458107" height="5.471410331546963" fill="#2ca02c"/><rect x="261.0049261083744" y="278.65961638435687" width="8.334975369458107" height="5.471410331546906" fill="#d62728"/><rect x="261.0049261083744" y="275.37677018542877" width="8.334975369458107" height="3.282846198928098" fill="#8c564b"/><rect x="261.0049261083744" y="275.37677018542877" width="8.334975369458107" height="0" fill="#9467bd"/><rect x="261.0049261083744" y="275.37677018542877" width="8.334975369458107" height="0" fill="#e377c2"/><rect x="270.2660098522167" y="333.26725166119417" width="8.334975369458107" height="36.732748338805834" fill="#1f77b4"/><rect x="270.2660098522167" y="289.36873133755614" width="8.334975369458107" height="43.898520323638024" fill="#ff7f0e"/><rect x="270.2660098522167" y="283.88141629710134" width="8.334975369458107" height="5.487315040454803" fill="#2ca02c"/><rect x="270.2660098522167" y="278.3941012566466" width="8.334975369458107" height="5.487315040454746" fill="#d62728"/><rect x="270.2660098522167" y="275.10171223237376" width="8.334975369458107" height="3.292389024272836" fill="#8c564b"/><rect x="270.2660098522167" y="275.10171223237376" width="8.334975369458107" height="0" fill="#9467bd"/><rect x="270.2660098522167" y="275.10171223237376" width="8.334975369458107" height="0" fill="#e377c2"/><rect x="279.52709359605905" y="333.3737196998262" width="8.334975369458164" height="36.62628030017379" fill="#1f77b4"/><rect x="279.52709359605905" y="289.60243704745074" width="8.334975369458164" height="43.771282652375476" fill="#ff7f0e"/><rect x="279.52709359605905" y="284.1310267159038" width="8.334975369458164" height="5.471410331546963" fill="#2ca02c"/><rect x="279.52709359605905" y="278.65961638435687" width="8.334975369458164" height="5.471410331546906" fill="#d62728"/><rect x="279.52709359605905" y="275.37677018542877" width="8.334975369458164" height="3.282846198928098" fill="#8c564b"/><rect x="279.52709359605905" y="275.37677018542877" width="8.334975369458164" height="0" fill="#9467bd"/><rect x="279.52709359605905" y="275.37677018542877" width="8.334975369458164" height="0" fill="#e377c2"/><rect x="288.7881773399015" y="333.6906657692745" width="8.334975369458107" height="36.30933423072548" fill="#1f77b4"/><rect x="288.7881773399015" y="290.2981585720555" width="8.334975369458107" height="43.392507197219004" fill="#ff7f0e"/><rect x="288.7881773399015" y="284.87409517240314" width="8.334975369458107" height="5.424063399652368" fill="#2ca02c"/><rect x="288.7881773399015" y="279.4500317727507" width="8.334975369458107" height="5.424063399652425" fill="#d62728"/><rect x="288.7881773399015" y="276.1955937329593" width="8.334975369458107" height="3.2544380397914097" fill="#8c564b"/><rect x="288.7881773399015" y="276.1955937329593" width="8.334975369458107" height="0" fill="#9467bd"/><rect x="288.7881773399015" y="276.1955937329593" width="8.334975369458107" height="0" fill="#e377c2"/><rect x="298.04926108374383" y="334.2108355289527" width="8.334975369458107" height="35.789164471047286" fill="#1f77b4"/><rect x="298.04926108374383" y="291.43997206381607" width="8.334975369458107" height="42.77086346513664" fill="#ff7f0e"/><rect x="298.04926108374383" y="286.0936141306739" width="8.334975369458107" height="5.346357933142144" fill="#2ca02c"/><rect x="298.04926108374383" y="280.7472561975319" width="8.334975369458107" height="5.346357933142031" fill="#d62728"/><rect x="298.04926108374383" y="277.53944143764664" width="8.334975369458107" height="3.2078147598852524" fill="#8c564b"/><rect x="298.04926108374383" y="277.53944143764664" width="8.334975369458107" height="0" fill="#9467bd"/><rect x="298.04926108374383" y="277.53944143764664" width="8.334975369458107" height="0" fill="#e377c2"/><rect x="307.31034482758616" y="334.92252780818643" width="8.334975369458164" height="35.07747219181357" fill="#1f77b4"/><rect x="307.31034482758616" y="293.0021925337516" width="8.334975369458164" height="41.92033527443482" fill="#ff7f0e"/><rect x="307.31034482758616" y="287.7621506244473" width="8.334975369458164" height="5.240041909304296" fill="#2ca02c"/><rect x="307.31034482758616" y="282.52210871514296" width="8.334975369458164" height="5.240041909304352" fill="#d62728"/><rect x="307.31034482758616" y="279.3780835695604" width="8.334975369458164" height="3.1440251455825887" fill="#8c564b"/><rect x="307.31034482758616" y="279.3780835695604" width="8.334975369458164" height="0" fill="#9467bd"/><rect x="307.31034482758616" y="279.3780835695604" width="8.334975369458164" height="0" fill="#e377c2"/><rect x="316.57142857142856" y="335.8101451832535" width="8.334975369458107" height="34.189854816746504" fill="#1f77b4"/><rect x="316.57142857142856" y="294.9505824113171" width="8.334975369458107" height="40.859562771936396" fill="#ff7f0e"/><rect x="316.57142857142856" y="289.84313706482504" width="8.334975369458107" height="5.107445346492057" fill="#2ca02c"/><rect x="316.57142857142856" y="284.735691718333" width="8.334975369458107" height="5.107445346492057" fill="#d62728"/><rect x="316.57142857142856" y="281.67122451043775" width="8.334975369458107" height="3.064467207895234" fill="#8c564b"/><rect x="316.57142857142856" y="281.67122451043775" width="8.334975369458107" height="0" fill="#9467bd"/><rect x="316.57142857142856" y="281.67122451043775" width="8.334975369458107" height="0" fill="#e377c2"/><rect x="325.8325123152709" y="336.8549020098761" width="8.334975369458107" height="33.14509799012387" fill="#1f77b4"/><rect x="325.8325123152709" y="297.24390573135116" width="8.334975369458107" height="39.610996278524965" fill="#ff7f0e"/><rect x="325.8325123152709" y="292.2925311965355" width="8.334975369458107" height="4.95137453481567" fill="#2ca02c"/><rect x="325.8325123152709" y="287.3411566617199" width="8.334975369458107" height="4.9513745348156135" fill="#d62728"/><rect x="325.8325123152709" y="284.3703319408305" width="8.334975369458107" height="2.970824720889368" fill="#8c564b"/><rect x="325.8325123152709" y="284.3703319408305" width="8.334975369458107" height="0" fill="#9467bd"/><rect x="325.8325123152709" y="284.3703319408305" width="8.334975369458107" height="0" fill="#e377c2"/><rect x="335.0935960591132" y="338.0356363299032" width="8.334975369458107" height="31.964363670096816" fill="#1f77b4"/><rect x="335.0935960591132" y="299.8357103330366" width="8.334975369458107" height="38.19992599686657" fill="#ff7f0e"/><rect x="335.0935960591132" y="295.06071958342835" width="8.334975369458107" height="4.774990749608264" fill="#2ca02c"/><rect x="335.0935960591132" y="290.28572883382003" width="8.334975369458107" height="4.774990749608321" fill="#d62728"/><rect x="335.0935960591132" y="287.42073438405504" width="8.334975369458107" height="2.8649944497649926" fill="#8c564b"/><rect x="335.0935960591132" y="287.42073438405504" width="8.334975369458107" height="0" fill="#9467bd"/><rect x="335.0935960591132" y="287.42073438405504" width="8.334975369458107" height="0" fill="#e377c2"/><rect x="344.3546798029556" y="339.329668143012" width="8.33497536945822" height="30.670331856988014" fill="#1f77b4"/><rect x="344.3546798029556" y="302.6762118337179" width="8.33497536945822" height="36.653456309294086" fill="#ff7f0e"/><rect x="344.3546798029556" y="298.0945297950561" width="8.33497536945822" height="4.581682038661825" fill="#2ca02c"/><rect x="344.3546798029556" y="293.5128477563943" width="8.33497536945822" height="4.581682038661768" fill="#d62728"/><rect x="344.3546798029556" y="290.7638385331973" width="8.33497536945822" height="2.7490092231969925" fill="#8c564b"/><rect x="344.3546798029556" y="290.7638385331973" width="8.33497536945822" height="0" fill="#9467bd"/><rect x="344.3546798029556" y="290.7638385331973" width="8.33497536945822" height="0" fill="#e377c2"/><rect x="353.61576354679806" y="340.7136484996223" width="8.334975369458107" height="29.28635150037769" fill="#1f77b4"/><rect x="353.61576354679806" y="305.7141574545608" width="8.334975369458107" height="34.99949104506152" fill="#ff7f0e"/><rect x="353.61576354679806" y="301.33922107392806" width="8.334975369458107" height="4.374936380632732" fill="#2ca02c"/><rect x="353.61576354679806" y="296.9642846932954" width="8.334975369458107" height="4.3749363806326755" fill="#d62728"/><rect x="353.61576354679806" y="294.33932286491574" width="8.334975369458107" height="2.6249618283796394" fill="#8c564b"/><rect x="353.61576354679806" y="294.33932286491574" width="8.334975369458107" height="0" fill="#9467bd"/><rect x="353.61576354679806" y="294.33932286491574" width="8.334975369458107" height="0" fill="#e377c2"/><rect x="362.8768472906404" y="342.1643508268895" width="8.334975369458164" height="27.835649173110482" fill="#1f77b4"/><rect x="362.8768472906404" y="308.89856304328" width="8.334975369458164" height="33.26578778360954" fill="#ff7f0e"/><rect x="362.8768472906404" y="304.7403395703288" width="8.334975369458164" height="4.158223472951192" fill="#2ca02c"/><rect x="362.8768472906404" y="300.5821160973776" width="8.334975369458164" height="4.158223472951192" fill="#d62728"/><rect x="362.8768472906404" y="298.0871820136069" width="8.334975369458164" height="2.4949340837707155" fill="#8c564b"/><rect x="362.8768472906404" y="298.0871820136069" width="8.334975369458164" height="0" fill="#9467bd"/><rect x="362.8768472906404" y="298.0871820136069" width="8.334975369458164" height="0" fill="#e377c2"/><rect x="372.13793103448273" y="343.6593663922752" width="8.33497536945822" height="26.340633607724783" fill="#1f77b4"/><rect x="372.13793103448273" y="312.1802396713204" width="8.33497536945822" height="31.47912672095481" fill="#ff7f0e"/><rect x="372.13793103448273" y="308.24534883120106" width="8.33497536945822" height="3.934890840119351" fill="#2ca02c"/><rect x="372.13793103448273" y="304.31045799108165" width="8.33497536945822" height="3.934890840119408" fill="#d62728"/><rect x="372.13793103448273" y="301.94952348701" width="8.33497536945822" height="2.360934504071622" fill="#8c564b"/><rect x="372.13793103448273" y="301.94952348701" width="8.33497536945822" height="0" fill="#9467bd"/><rect x="372.13793103448273" y="301.94952348701" width="8.33497536945822" height="0" fill="#e377c2"/><rect x="381.3990147783251" y="345.17767814655326" width="8.334975369458164" height="24.822321853446738" fill="#1f77b4"/><rect x="381.3990147783251" y="315.51305326434" width="8.334975369458164" height="29.664624882213275" fill="#ff7f0e"/><rect x="381.3990147783251" y="311.80497515406324" width="8.334975369458164" height="3.7080781102767446" fill="#2ca02c"/><rect x="381.3990147783251" y="308.0968970437866" width="8.334975369458164" height="3.708078110276631" fill="#d62728"/><rect x="381.3990147783251" y="305.87205017762057" width="8.334975369458164" height="2.2248468661660468" fill="#8c564b"/><rect x="381.3990147783251" y="305.87205017762057" width="8.334975369458164" height="0" fill="#9467bd"/><rect x="381.3990147783251" y="305.87205017762057" width="8.334975369458164" height="0" fill="#e377c2"/><rect x="390.66009852216746" y="346.700099737597" width="8.334975369458164" height="23.299900262403014" fill="#1f77b4"/><rect x="390.66009852216746" y="318.8548882719664" width="8.334975369458164" height="27.845211465630598" fill="#ff7f0e"/><rect x="390.66009852216746" y="315.3742368387625" width="8.334975369458164" height="3.4806514332038887" fill="#2ca02c"/><rect x="390.66009852216746" y="311.89358540555867" width="8.334975369458164" height="3.480651433203832" fill="#d62728"/><rect x="390.66009852216746" y="309.80519454563637" width="8.334975369458164" height="2.088390859922299" fill="#8c564b"/><rect x="390.66009852216746" y="309.80519454563637" width="8.334975369458164" height="0" fill="#9467bd"/><rect x="390.66009852216746" y="309.80519454563637" width="8.334975369458164" height="0" fill="#e377c2"/><rect x="399.9211822660098" y="348.209577903954" width="8.334975369458164" height="21.790422096045972" fill="#1f77b4"/><rect x="399.9211822660098" y="322.16831144545245" width="8.334975369458164" height="26.041266458501582" fill="#ff7f0e"/><rect x="399.9211822660098" y="318.91315313813976" width="8.334975369458164" height="3.2551583073126835" fill="#2ca02c"/><rect x="399.9211822660098" y="315.657994830827" width="8.334975369458164" height="3.2551583073127404" fill="#d62728"/><rect x="399.9211822660098" y="313.7048998464394" width="8.334975369458164" height="1.9530949843876328" fill="#8c564b"/><rect x="399.9211822660098" y="313.7048998464394" width="8.334975369458164" height="0" fill="#9467bd"/><rect x="399.9211822660098" y="313.7048998464394" width="8.334975369458164" height="0" fill="#e377c2"/><rect x="409.18226600985224" y="349.691365818201" width="8.334975369458107" height="20.308634181798993" fill="#1f77b4"/><rect x="409.18226600985224" y="325.42095233995866" width="8.334975369458107" height="24.270413478242347" fill="#ff7f0e"/><rect x="409.18226600985224" y="322.38715065517835" width="8.334975369458107" height="3.0338016847803146" fill="#2ca02c"/><rect x="409.18226600985224" y="319.35334897039803" width="8.334975369458107" height="3.0338016847803146" fill="#d62728"/><rect x="409.18226600985224" y="317.5330679595299" width="8.334975369458107" height="1.8202810108681433" fill="#8c564b"/><rect x="409.18226600985224" y="317.5330679595299" width="8.334975369458107" height="0" fill="#9467bd"/><rect x="409.18226600985224" y="317.5330679595299" width="8.334975369458107" height="0" fill="#e377c2"/><rect x="418.4433497536946" y="351.13308178009555" width="8.334975369458164" height="18.86691821990445" fill="#1f77b4"/><rect x="418.4433497536946" y="328.58563215063447" width="8.334975369458164" height="22.547449629461084" fill="#ff7f0e"/><rect x="418.4433497536946" y="325.7672009469519" width="8.334975369458164" height="2.8184312036825645" fill="#2ca02c"/><rect x="418.4433497536946" y="322.9487697432692" width="8.334975369458164" height="2.818431203682678" fill="#d62728"/><rect x="418.4433497536946" y="321.2577110210596" width="8.334975369458164" height="1.6910587222096183" fill="#8c564b"/><rect x="418.4433497536946" y="321.2577110210596" width="8.334975369458164" height="0" fill="#9467bd"/><rect x="418.4433497536946" y="321.2577110210596" width="8.334975369458164" height="0" fill="#e377c2"/><rect x="427.7044334975369" y="352.5246718871853" width="8.334975369458164" height="17.47532811281468" fill="#1f77b4"/><rect x="427.7044334975369" y="331.6402817716709" width="8.334975369458164" height="20.884390115514407" fill="#ff7f0e"/><rect x="427.7044334975369" y="329.0297330072316" width="8.334975369458164" height="2.6105487644393293" fill="#2ca02c"/><rect x="427.7044334975369" y="326.4191842427923" width="8.334975369458164" height="2.6105487644392724" fill="#d62728"/><rect x="427.7044334975369" y="324.8528549841287" width="8.334975369458164" height="1.5663292586635862" fill="#8c564b"/><rect x="427.7044334975369" y="324.8528549841287" width="8.334975369458164" height="0" fill="#9467bd"/><rect x="427.7044334975369" y="324.8528549841287" width="8.334975369458164" height="0" fill="#e377c2"/><rect x="436.96551724137925" y="353.8582971708992" width="8.33497536945822" height="16.14170282910078" fill="#1f77b4"/><rect x="436.96551724137925" y="334.5676940511535" width="8.33497536945822" height="19.290603119745697" fill="#ff7f0e"/><rect x="436.96551724137925" y="332.15636866118524" width="8.33497536945822" height="2.411325389968283" fill="#2ca02c"/><rect x="436.96551724137925" y="329.745043271217" width="8.33497536945822" height="2.4113253899682263" fill="#d62728"/><rect x="436.96551724137925" y="328.29824803723614" width="8.33497536945822" height="1.446795233980879" fill="#8c564b"/><rect x="436.96551724137925" y="328.29824803723614" width="8.33497536945822" height="0" fill="#9467bd"/><rect x="436.96551724137925" y="328.29824803723614" width="8.33497536945822" height="0" fill="#e377c2"/><rect x="446.22660098522164" y="355.1281656066099" width="8.334975369458164" height="14.871834393390088" fill="#1f77b4"/><rect x="446.22660098522164" y="337.3551550399512" width="8.334975369458164" height="17.773010566658684" fill="#ff7f0e"/><rect x="446.22660098522164" y="335.13352871911894" width="8.334975369458164" height="2.2216263208322857" fill="#2ca02c"/><rect x="446.22660098522164" y="332.9119023982866" width="8.334975369458164" height="2.2216263208323426" fill="#d62728"/><rect x="446.22660098522164" y="331.57892660578716" width="8.334975369458164" height="1.3329757924994396" fill="#8c564b"/><rect x="446.22660098522164" y="331.57892660578716" width="8.334975369458164" height="0" fill="#9467bd"/><rect x="446.22660098522164" y="331.57892660578716" width="8.334975369458164" height="0" fill="#e377c2"/><rect x="455.487684729064" y="356.3303278985625" width="8.334975369458164" height="13.669672101437527" fill="#1f77b4"/><rect x="455.487684729064" y="339.9939957235893" width="8.334975369458164" height="16.336332174973165" fill="#ff7f0e"/><rect x="455.487684729064" y="337.95195420171774" width="8.334975369458164" height="2.0420415218715675" fill="#2ca02c"/><rect x="455.487684729064" y="335.90991267984606" width="8.334975369458164" height="2.042041521871681" fill="#d62728"/><rect x="455.487684729064" y="334.6846877667231" width="8.334975369458164" height="1.225224913122986" fill="#8c564b"/><rect x="455.487684729064" y="334.6846877667231" width="8.334975369458164" height="0" fill="#9467bd"/><rect x="455.487684729064" y="334.6846877667231" width="8.334975369458164" height="0" fill="#e377c2"/><rect x="464.74876847290636" y="357.4624535151736" width="8.334975369458164" height="12.537546484826407" fill="#1f77b4"/><rect x="464.74876847290636" y="342.47910040213503" width="8.334975369458164" height="14.98335311303856" fill="#ff7f0e"/><rect x="464.74876847290636" y="340.6061812630052" width="8.334975369458164" height="1.872919139129806" fill="#2ca02c"/><rect x="464.74876847290636" y="338.7332621238754" width="8.334975369458164" height="1.872919139129806" fill="#d62728"/><rect x="464.74876847290636" y="337.60951064039745" width="8.334975369458164" height="1.1237514834779745" fill="#8c564b"/><rect x="464.74876847290636" y="337.60951064039745" width="8.334975369458164" height="0" fill="#9467bd"/><rect x="464.74876847290636" y="337.60951064039745" width="8.334975369458164" height="0" fill="#e377c2"/><rect x="474.00985221674875" y="358.52360055742804" width="8.334975369458164" height="11.47639944257196" fill="#1f77b4"/><rect x="474.00985221674875" y="344.8084015332453" width="8.334975369458164" height="13.715199024182766" fill="#ff7f0e"/><rect x="474.00985221674875" y="343.0940016552224" width="8.334975369458164" height="1.7143998780228458" fill="#2ca02c"/><rect x="474.00985221674875" y="341.3796017771996" width="8.334975369458164" height="1.7143998780228458" fill="#d62728"/><rect x="474.00985221674875" y="340.3509618503859" width="8.334975369458164" height="1.028639926813696" fill="#8c564b"/><rect x="474.00985221674875" y="340.3509618503859" width="8.334975369458164" height="0" fill="#9467bd"/><rect x="474.00985221674875" y="340.3509618503859" width="8.334975369458164" height="0" fill="#e377c2"/><rect x="483.2709359605911" y="359.5139900422283" width="8.334975369458164" height="10.486009957771728" fill="#1f77b4"/><rect x="483.2709359605911" y="346.98238426638653" width="8.334975369458164" height="12.53160577584174" fill="#ff7f0e"/><rect x="483.2709359605911" y="345.4159335444063" width="8.334975369458164" height="1.5664507219802317" fill="#2ca02c"/><rect x="483.2709359605911" y="343.8494828224261" width="8.334975369458164" height="1.5664507219801749" fill="#d62728"/><rect x="483.2709359605911" y="342.90961238923796" width="8.334975369458164" height="0.9398704331881618" fill="#8c564b"/><rect x="483.2709359605911" y="342.90961238923796" width="8.334975369458164" height="0" fill="#9467bd"/><rect x="483.2709359605911" y="342.90961238923796" width="8.334975369458164" height="0" fill="#e377c2"/><rect x="492.5320197044334" y="360.434792332575" width="8.334975369458164" height="9.565207667425" fill="#1f77b4"/><rect x="492.5320197044334" y="360.434792332575" width="8.334975369458164" height="0" fill="#ff7f0e"/><rect x="492.5320197044334" y="360.434792332575" width="8.334975369458164" height="0" fill="#2ca02c"/><rect x="492.5320197044334" y="360.434792332575" width="8.334975369458164" height="0" fill="#d62728"/><rect x="492.5320197044334" y="360.434792332575" width="8.334975369458164" height="0" fill="#8c564b"/><rect x="492.5320197044334" y="360.434792332575" width="8.334975369458164" height="0" fill="#9467bd"/><rect x="492.5320197044334" y="360.434792332575" width="8.334975369458164" height="0" fill="#e377c2"/><rect x="501.7931034482758" y="361.287930912137" width="8.334975369458164" height="8.712069087862972" fill="#1f77b4"/><rect x="501.7931034482758" y="361.287930912137" width="8.334975369458164" height="0" fill="#ff7f0e"/><rect x="501.7931034482758" y="361.287930912137" width="8.334975369458164" height="0" fill="#2ca02c"/><rect x="501.7931034482758" y="361.287930912137" width="8.334975369458164" height="0" fill="#d62728"/><rect x="501.7931034482758" y="361.287930912137" width="8.334975369458164" height="0" fill="#8c564b"/><rect x="501.7931034482758" y="361.287930912137" width="8.334975369458164" height="0" fill="#9467bd"/><rect x="501.7931034482758" y="361.287930912137" width="8.334975369458164" height="0" fill="#e377c2"/><rect x="511.05418719211815" y="362.0759065687513" width="8.334975369458164" height="7.924093431248707" fill="#1f77b4"/><rect x="511.05418719211815" y="362.0759065687513" width="8.334975369458164" height="0" fill="#ff7f0e"/><rect x="511.05418719211815" y="362.0759065687513" width="8.334975369458164" height="0" fill="#2ca02c"/><rect x="511.05418719211815" y="362.0759065687513" width="8.334975369458164" height="0" fill="#d62728"/><rect x="511.05418719211815" y="362.0759065687513" width="8.334975369458164" height="0" fill="#8c564b"/><rect x="511.05418719211815" y="362.0759065687513" width="8.334975369458164" height="0" fill="#9467bd"/><rect x="511.05418719211815" y="362.0759065687513" width="8.334975369458164" height="0" fill="#e377c2"/><rect x="520.3152709359606" y="362.80164334475114" width="8.334975369458107" height="7.198356655248858" fill="#1f77b4"/><rect x="520.3152709359606" y="362.80164334475114" width="8.334975369458107" height="0" fill="#ff7f0e"/><rect x="520.3152709359606" y="362.80164334475114" width="8.334975369458107" height="0" fill="#2ca02c"/><rect x="520.3152709359606" y="362.80164334475114" width="8.334975369458107" height="0" fill="#d62728"/><rect x="520.3152709359606" y="362.80164334475114" width="8.334975369458107" height="0" fill="#8c564b"/><rect x="520.3152709359606" y="362.80164334475114" width="8.334975369458107" height="0" fill="#9467bd"/><rect x="520.3152709359606" y="362.80164334475114" width="8.334975369458107" height="0" fill="#e377c2"/><rect x="529.576354679803" y="363.4683563148278" width="8.334975369458107" height="6.531643685172185" fill="#1f77b4"/><rect x="529.576354679803" y="363.4683563148278" width="8.334975369458107" height="0" fill="#ff7f0e"/><rect x="529.576354679803" y="363.4683563148278" width="8.334975369458107" height="0" fill="#2ca02c"/><rect x="529.576354679803" y="363.4683563148278" width="8.334975369458107" height="0" fill="#d62728"/><rect x="529.576354679803" y="363.4683563148278" width="8.334975369458107" height="0" fill="#8c564b"/><rect x="529.576354679803" y="363.4683563148278" width="8.334975369458107" height="0" fill="#9467bd"/><rect x="529.576354679803" y="363.4683563148278" width="8.334975369458107" height="0" fill="#e377c2"/><rect x="538.8374384236453" y="364.0794403215638" width="8.33497536945822" height="5.920559678436177" fill="#1f77b4"/><rect x="538.8374384236453" y="364.0794403215638" width="8.33497536945822" height="0" fill="#ff7f0e"/><rect x="538.8374384236453" y="364.0794403215638" width="8.33497536945822" height="0" fill="#2ca02c"/><rect x="538.8374384236453" y="364.0794403215638" width="8.33497536945822" height="0" fill="#d62728"/><rect x="538.8374384236453" y="364.0794403215638" width="8.33497536945822" height="0" fill="#8c564b"/><rect x="538.8374384236453" y="364.0794403215638" width="8.33497536945822" height="0" fill="#9467bd"/><rect x="538.8374384236453" y="364.0794403215638" width="8.33497536945822" height="0" fill="#e377c2"/><rect x="548.0985221674877" y="364.6383781789949" width="8.334975369458107" height="5.361621821005087" fill="#1f77b4"/><rect x="548.0985221674877" y="364.6383781789949" width="8.334975369458107" height="0" fill="#ff7f0e"/><rect x="548.0985221674877" y="364.6383781789949" width="8.334975369458107" height="0" fill="#2ca02c"/><rect x="548.0985221674877" y="364.6383781789949" width="8.334975369458107" height="0" fill="#d62728"/><rect x="548.0985221674877" y="364.6383781789949" width="8.334975369458107" height="0" fill="#8c564b"/><rect x="548.0985221674877" y="364.6383781789949" width="8.334975369458107" height="0" fill="#9467bd"/><rect x="548.0985221674877" y="364.6383781789949" width="8.334975369458107" height="0" fill="#e377c2"/><rect x="557.3596059113299" y="365.1486664860146" width="8.33497536945822" height="4.8513335139854235" fill="#1f77b4"/><rect x="557.3596059113299" y="365.1486664860146" width="8.33497536945822" height="0" fill="#ff7f0e"/><rect x="557.3596059113299" y="365.1486664860146" width="8.33497536945822" height="0" fill="#2ca02c"/><rect x="557.3596059113299" y="365.1486664860146" width="8.33497536945822" height="0" fill="#d62728"/><rect x="557.3596059113299" y="365.1486664860146" width="8.33497536945822" height="0" fill="#8c564b"/><rect x="557.3596059113299" y="365.1486664860146" width="8.33497536945822" height="0" fill="#9467bd"/><rect x="557.3596059113299" y="365.1486664860146" width="8.33497536945822" height="0" fill="#e377c2"/><rect x="566.6206896551723" y="365.61375701704964" width="8.334975369458107" height="4.386242982950364" fill="#1f77b4"/><rect x="566.6206896551723" y="365.61375701704964" width="8.334975369458107" height="0" fill="#ff7f0e"/><rect x="566.6206896551723" y="365.61375701704964" width="8.334975369458107" height="0" fill="#2ca02c"/><rect x="566.6206896551723" y="365.61375701704964" width="8.334975369458107" height="0" fill="#d62728"/><rect x="566.6206896551723" y="365.61375701704964" width="8.334975369458107" height="0" fill="#8c564b"/><rect x="566.6206896551723" y="365.61375701704964" width="8.334975369458107" height="0" fill="#9467bd"/><rect x="566.6206896551723" y="365.61375701704964" width="8.334975369458107" height="0" fill="#e377c2"/><rect x="575.8817733990147" y="366.0370116262708" width="8.33497536945822" height="3.9629883737292175" fill="#1f77b4"/><rect x="575.8817733990147" y="366.0370116262708" width="8.33497536945822" height="0" fill="#ff7f0e"/><rect x="575.8817733990147" y="366.0370116262708" width="8.33497536945822" height="0" fill="#2ca02c"/><rect x="575.8817733990147" y="366.0370116262708" width="8.33497536945822" height="0" fill="#d62728"/><rect x="575.8817733990147" y="366.0370116262708" width="8.33497536945822" height="0" fill="#8c564b"/><rect x="575.8817733990147" y="366.0370116262708" width="8.33497536945822" height="0" fill="#9467bd"/><rect x="575.8817733990147" y="366.0370116262708" width="8.33497536945822" height="0" fill="#e377c2"/><rect x="585.1428571428571" y="366.42166867052566" width="8.33497536945822" height="3.578331329474338" fill="#1f77b4"/><rect x="585.1428571428571" y="366.42166867052566" width="8.33497536945822" height="0" fill="#ff7f0e"/><rect x="585.1428571428571" y="366.42166867052566" width="8.33497536945822" height="0" fill="#2ca02c"/><rect x="585.1428571428571" y="366.42166867052566" width="8.33497536945822" height="0" fill="#d62728"/><rect x="585.1428571428571" y="366.42166867052566" width="8.33497536945822" height="0" fill="#8c564b"/><rect x="585.1428571428571" y="366.42166867052566" width="8.33497536945822" height="0" fill="#9467bd"/><rect x="585.1428571428571" y="366.42166867052566" width="8.33497536945822" height="0" fill="#e377c2"/><rect x="594.4039408866995" y="366.77081909028044" width="8.334975369458107" height="3.2291809097195596" fill="#1f77b4"/><rect x="594.4039408866995" y="366.77081909028044" width="8.334975369458107" height="0" fill="#ff7f0e"/><rect x="594.4039408866995" y="366.77081909028044" width="8.334975369458107" height="0" fill="#2ca02c"/><rect x="594.4039408866995" y="366.77081909028044" width="8.334975369458107" height="0" fill="#d62728"/><rect x="594.4039408866995" y="366.77081909028044" width="8.334975369458107" height="0" fill="#8c564b"/><rect x="594.4039408866995" y="366.77081909028044" width="8.334975369458107" height="0" fill="#9467bd"/><rect x="594.4039408866995" y="366.77081909028044" width="8.334975369458107" height="0" fill="#e377c2"/><rect x="603.6650246305418" y="367.08739046000557" width="8.33497536945822" height="2.9126095399944347" fill="#1f77b4"/><rect x="603.6650246305418" y="367.08739046000557" width="8.33497536945822" height="0" fill="#ff7f0e"/><rect x="603.6650246305418" y="367.08739046000557" width="8.33497536945822" height="0" fill="#2ca02c"/><rect x="603.6650246305418" y="367.08739046000557" width="8.33497536945822" height="0" fill="#d62728"/><rect x="603.6650246305418" y="367.08739046000557" width="8.33497536945822" height="0" fill="#8c564b"/><rect x="603.6650246305418" y="367.08739046000557" width="8.33497536945822" height="0" fill="#9467bd"/><rect x="603.6650246305418" y="367.08739046000557" width="8.33497536945822" height="0" fill="#e377c2"/></g></g></svg></svg>