<svg width="660" height="462.75" viewBox="-10,-10,660,462.75" xmlns="http://www.w3.org/2000/svg" xmlns:xlink="http://www.w3.org/1999/xlink"><svg width="894" height="35" x="0" y="0"><g transform="translate(2.8000000000000007,19)"><svg width="15" height="15" fill="#1f77b4" y="-7.5px"><rect width="100%" height="100%"/></svg><text x="15" dx="5" dy="0.38em" font-family="system-ui, sans-serif" font-size="10px" fill="rgb(27, 30, 35)">Incentives</text></g><g transform="translate(91.50000610351562,19)"><svg width="15" height="15" fill="#ff7f0e" y="-7.5px"><rect width="100%" height="100%"/></svg><text x="15" dx="5" dy="0.38em" font-family="system-ui, sans-serif" font-size="10px" fill="rgb(27, 30, 35)">Klima Holders</text></g><g transform="translate(201.05999145507812,19)"><svg width="15" height="15" fill="#2ca02c" y="-7.5px"><rect width="100%" height="100%"/></svg><text x="15" dx="5" dy="0.38em" font-family="system-ui, sans-serif" font-size="10px" fill="rgb(27, 30, 35)">Product Design</text></g><g transform="translate(318.3000244140625,19)"><svg width="15" height="15" fill="#d62728" y="-7.5px"><rect width="100%" height="100%"/></svg><text x="15" dx="5" dy="0.38em" font-family="system-ui, sans-serif" font-size="10px" fill="rgb(27, 30, 35)">Ecosystem Grant</text></g><g transform="translate(442.3,19)"><svg width="15" height="15" fill="#9467bd" y="-7.5px"><rect width="100%" height="100%"/></svg><text x="15" dx="5" dy="0.38em" font-family="system-ui, sans-serif" font-size="10px" fill="rgb(27, 30, 35)">DAO/Treasury</text></g><g transform="translate(551.3200073242188,19)"><svg width="15" height="15" fill="#8c564b" y="-7.5px"><rect width="100%" height="100%"/></svg><text x="15" dx="5" dy="0.38em" font-family="system-ui, sans-serif" font-size="10px" fill="rgb(27, 30, 35)">pKlima Holders</text></g><g transform="translate(667.9399902343749,19)"><svg width="15" height="15" fill="#e377c2" y="-7.5px"><rect width="100%" height="100%"/></svg><text x="15" dx="5" dy="0.38em" font-family="system-ui, sans-serif" font-size="10px" fill="rgb(27, 30, 35)">01X</text></g></svg><svg class="plot-d6a7b5" fill="currentColor" font-family="system-ui, sans-serif" font-size="10" text-anchor="middle" width="640" height="400" viewBox="0 0 640 400" x="0" y="42.75"><style>:where(.plot-d6a7b5) {
  --plot-background: white;
  display: block;
  height: auto;
  height: intrinsic;
  max-width: 100%;
}
:where(.plot-d6a7b5 text),
:where(.plot-d6a7b5 tspan) {
  white-space: pre;
}</style><g aria-label="y-grid" aria-hidden="true" stroke="currentColor" stroke-opacity="0.1" transform="translate(0,0.5)"><line x1="40" x2="620" y1="370" y2="370"/><line x1="40" x2="620" y1="335" y2="335"/><line x1="40" x2="620" y1="300" y2="300"/><line x1="40" x2="620" y1="265" y2="265"/><line x1="40" x2="620" y1="230" y2="230"/><line x1="40" x2="620" y1="195" y2="195"/><line x1="40" x2="620" y1="160" y2="160"/><line x1="40" x2="620" y1="125.00000000000001" y2="125.00000000000001"/><line x1="40" x2="620" y1="89.99999999999999" y2="89.99999999999999"/><line x1="40" x2="620" y1="54.99999999999999" y2="54.99999999999999"/><line x1="40" x2="620" y1="20" y2="20"/></g><g aria-label="y-axis tick" aria-hidden="true" fill="none" stroke="currentColor" transform="translate(0,0.5)"><path transform="translate(40,370)" d="M0,0L-6,0"/><path transform="translate(40,335)" d="M0,0L-6,0"/><path transform="translate(40,300)" d="M0,0L-6,0"/><path transform="translate(40,265)" d="M0,0L-6,0"/><path transform="translate(40,230)" d="M0,0L-6,0"/><path transform="translate(40,195)" d="M0,0L-6,0"/><path transform="translate(40,160)" d="M0,0L-6,0"/><path transform="translate(40,125.00000000000001)" d="M0,0L-6,0"/><path transform="translate(40,89.99999999999999)" d="M0,0L-6,0"/><path transform="translate(40,54.99999999999999)" d="M0,0L-6,0"/><path transform="translate(40,20)" d="M0,0L-6,0"/></g><g aria-label="y-axis tick label" text-anchor="end" font-variant="tabular-nums" transform="translate(-8.5,0.5)"><text y="0.32em" transform="translate(40,370)">0</text><text y="0.32em" transform="translate(40,335)">10</text><text y="0.32em" transform="translate(40,300)">20</text><text y="0.32em" transform="translate(40,265)">30</text><text y="0.32em" transform="translate(40,230)">40</text><text y="0.32em" transform="translate(40,195)">50</text><text y="0.32em" transform="translate(40,160)">60</text><text y="0.32em" transform="translate(40,125.00000000000001)">70</text><text y="0.32em" transform="translate(40,89.99999999999999)">80</text><text y="0.32em" transform="translate(40,54.99999999999999)">90</text><text y="0.32em" transform="translate(40,20)">100</text></g><g aria-label="y-axis label" text-anchor="start" transform="translate(-36.5,-16.5)"><text y="0.71em" transform="translate(40,20)">↑ Circulating Supply (%)</text></g><g aria-label="x-grid" aria-hidden="true" stroke="currentColor" stroke-opacity="0.1" transform="translate(0.5,0)"><line x1="40" x2="40" y1="20" y2="370"/><line x1="156" x2="156" y1="20" y2="370"/><line x1="272" x2="272" y1="20" y2="370"/><line x1="388" x2="388" y1="20" y2="370"/><line x1="504" x2="504" y1="20" y2="370"/><line x1="620" x2="620" y1="20" y2="370"/></g><g aria-label="x-axis tick" aria-hidden="true" fill="none" stroke="currentColor" transform="translate(0.5,0)"><path transform="translate(40,370)" d="M0,0L0,6"/><path transform="translate(156,370)" d="M0,0L0,6"/><path transform="translate(272,370)" d="M0,0L0,6"/><path transform="translate(388,370)" d="M0,0L0,6"/><path transform="translate(504,370)" d="M0,0L0,6"/><path transform="translate(620,370)" d="M0,0L0,6"/></g><g aria-label="x-axis tick label" font-variant="tabular-nums" transform="translate(0.5,9.5)"><text y="0.71em" transform="translate(40,370)">0</text><text y="0.71em" transform="translate(156,370)">12</text><text y="0.71em" transform="translate(272,370)">24</text><text y="0.71em" transform="translate(388,370)">36</text><text y="0.71em" transform="translate(504,370)">48</text><text y="0.71em" transform="translate(620,370)">60</text></g><g aria-label="x-axis label" text-anchor="end" transform="translate(17.5,27.5)"><text transform="translate(620,370)">Time (Months) →</text></g><rect aria-label="frame" fill="none" stroke="currentColor" transform="translate(0.5,0.5)" x="40" y="20" width="580" height="350"/><clipPath id="plot-clip-29"><rect x="40" y="20" width="580" height="350"/></clipPath><g aria-label="line" clip-path="url(#plot-clip-29)"><g fill="none" stroke-width="2" stroke-linejoin="round" stroke-linecap="round" transform="translate(0.5,0.5)"><path stroke="#e377c2" d="M40,280.714L49.667,283.315L59.333,285.995L69,292.912L78.667,299.265L88.333,305.087L98,310.413L107.667,315.276L117.333,319.71L127,323.746L136.667,327.415L146.333,330.747L156,333.769L165.667,336.507L175.333,338.986L185,341.228L194.667,343.255L204.333,345.086L214,346.739L223.667,348.23L233.333,349.575L243,350.787L252.667,351.879L262.333,352.863L272,353.749L281.667,354.547L291.333,355.264L301,355.91L310.667,356.491L320.333,357.013L330,357.483L339.667,357.905L349.333,358.285L359,358.626L368.667,358.932L378.333,359.208L388,359.456L397.667,359.678L407.333,359.878L417,360.057L426.667,360.219L436.333,360.364L446,360.494L455.667,360.611L465.333,360.716L475,360.81L484.667,360.895L494.333,360.971L504,360.998L513.667,361.023L523.333,361.045L533,361.065L542.667,361.084L552.333,361.1L562,361.115L571.667,361.129L581.333,361.141L591,361.152L600.667,361.162L610.333,361.171L620,361.179"/><path stroke="#8c564b" d="M40,280.714L49.667,283.315L59.333,285.995L69,291.895L78.667,297.315L88.333,302.282L98,306.826L107.667,310.976L117.333,314.76L127,318.205L136.667,321.338L146.333,324.183L156,326.764L165.667,329.104L175.333,331.222L185,333.14L194.667,334.873L204.333,336.44L214,337.856L223.667,339.133L233.333,340.286L243,341.327L252.667,342.265L262.333,343.11L272,343.872L281.667,344.559L291.333,345.178L301,345.735L310.667,346.236L320.333,346.688L330,347.095L339.667,347.461L349.333,347.79L359,348.087L368.667,348.353L378.333,348.593L388,348.809L397.667,349.003L407.333,349.178L417,349.335L426.667,349.476L436.333,349.603L446,349.717L455.667,349.819L465.333,349.911L475,349.994L484.667,350.069L494.333,350.135L504,350.195L513.667,350.25L523.333,350.299L533,350.344L542.667,350.384L552.333,350.421L562,350.453L571.667,350.483L581.333,350.51L591,350.534L600.667,350.556L610.333,350.575L620,350.593"/><path stroke="#9467bd" d="M40,120L49.667,127.281L59.333,134.786L69,153.137L78.667,169.991L88.333,185.439L98,199.569L107.667,212.473L117.333,224.237L127,234.947L136.667,244.684L146.333,253.527L156,261.548L165.667,268.816L175.333,275.397L185,281.351L194.667,286.733L204.333,291.595L214,295.986L223.667,299.947L233.333,303.521L243,306.743L252.667,309.647L262.333,312.264L272,314.621L281.667,316.743L291.333,318.653L301,320.372L310.667,321.92L320.333,323.312L330,324.564L339.667,325.69L349.333,326.703L359,327.613L368.667,328.432L378.333,329.168L388,329.829L397.667,330.424L407.333,330.958L417,331.438L426.667,331.87L436.333,332.257L446,332.606L455.667,332.918L465.333,333.2L475,333.452L484.667,333.679L494.333,333.883L504,333.992L513.667,334.091L523.333,334.18L533,334.261L542.667,334.335L552.333,334.401L562,334.461L571.667,334.515L581.333,334.563L591,334.607L600.667,334.647L610.333,334.682L620,334.714"/><path stroke="#d62728" d="M40,120L49.667,127.281L59.333,134.786L69,151.442L78.667,166.741L88.333,180.764L98,193.591L107.667,205.306L117.333,215.988L127,225.713L136.667,234.556L146.333,242.587L156,249.873L165.667,256.477L175.333,262.458L185,267.869L194.667,272.763L204.333,277.186L214,281.18L223.667,284.786L233.333,288.041L243,290.976L252.667,293.623L262.333,296.009L272,298.159L281.667,300.097L291.333,301.842L301,303.414L310.667,304.829L320.333,306.104L330,307.251L339.667,308.283L349.333,309.212L359,310.048L368.667,310.8L378.333,311.477L388,312.085L397.667,312.633L407.333,313.125L417,313.567L426.667,313.965L436.333,314.322L446,314.644L455.667,314.933L465.333,315.192L475,315.426L484.667,315.635L494.333,315.824L504,315.988L513.667,316.136L523.333,316.271L533,316.392L542.667,316.502L552.333,316.602L562,316.691L571.667,316.772L581.333,316.845L591,316.911L600.667,316.97L610.333,317.024L620,317.072"/><path stroke="#2ca02c" d="M40,120L49.667,127.281L59.333,134.786L69,149.748L78.667,163.491L88.333,176.088L98,187.614L107.667,198.14L117.333,207.738L127,216.478L136.667,224.427L146.333,231.647L156,238.198L165.667,244.138L175.333,249.518L185,254.388L194.667,258.794L204.333,262.776L214,266.375L223.667,269.625L233.333,272.56L243,275.208L252.667,277.598L262.333,279.754L272,281.698L281.667,283.451L291.333,285.031L301,286.455L310.667,287.739L320.333,288.896L330,289.938L339.667,290.876L349.333,291.722L359,292.483L368.667,293.169L378.333,293.786L388,294.341L397.667,294.841L407.333,295.291L417,295.696L426.667,296.06L436.333,296.388L446,296.682L455.667,296.947L465.333,297.185L475,297.399L484.667,297.592L494.333,297.765L504,297.984L513.667,298.182L523.333,298.361L533,298.523L542.667,298.67L552.333,298.802L562,298.922L571.667,299.03L581.333,299.127L591,299.215L600.667,299.294L610.333,299.365L620,299.429"/><path stroke="#ff7f0e" d="M40,120L49.667,127.281L59.333,134.786L69,136.192L78.667,137.49L88.333,138.687L98,139.79L107.667,140.806L117.333,141.741L127,142.602L136.667,143.396L146.333,144.127L156,144.802L165.667,145.426L175.333,146.004L185,146.54L194.667,147.037L204.333,147.501L214,147.933L223.667,148.336L233.333,148.714L243,149.069L252.667,149.401L262.333,149.714L272,150.007L281.667,150.284L291.333,150.543L301,150.788L310.667,151.017L320.333,151.232L330,151.434L339.667,151.622L349.333,151.799L359,151.963L368.667,152.116L378.333,152.258L388,152.389L397.667,152.511L407.333,152.623L417,152.726L426.667,152.821L436.333,152.909L446,152.989L455.667,153.062L465.333,153.128L475,153.189L484.667,153.245L494.333,153.295L504,153.951L513.667,154.545L523.333,155.082L533,155.569L542.667,156.009L552.333,156.406L562,156.765L571.667,157.089L581.333,157.38L591,157.644L600.667,157.881L610.333,158.094L620,158.287"/><path stroke="#1f77b4" d="M40,20L49.667,20L59.333,20L69,20L78.667,20L88.333,20L98,20L107.667,20L117.333,20L127,20L136.667,20L146.333,20L156,20L165.667,20L175.333,20L185,20L194.667,20L204.333,20L214,20L223.667,20L233.333,20L243,20L252.667,20L262.333,20L272,20L281.667,20L291.333,20L301,20L310.667,20L320.333,20L330,20L339.667,20L349.333,20L359,20L368.667,20L378.333,20L388,20L397.667,20L407.333,20L417,20L426.667,20L436.333,20L446,20L455.667,20L465.333,20L475,20L484.667,20L494.333,20L504,20L513.667,20L523.333,20L533,20L542.667,20L552.333,20L562,20L571.667,20L581.333,20L591,20L600.667,20L610.333,20L620,20"/></g></g><g aria-label="area" clip-path="url(#plot-clip-29)"><g fill-opacity="0.5"><path fill="#e377c2" d="M40,280.714L49.667,283.315L59.333,285.995L69,292.912L78.667,299.265L88.333,305.087L98,310.413L107.667,315.276L117.333,319.71L127,323.746L136.667,327.415L146.333,330.747L156,333.769L165.667,336.507L175.333,338.986L185,341.228L194.667,343.255L204.333,345.086L214,346.739L223.667,348.23L233.333,349.575L243,350.787L252.667,351.879L262.333,352.863L272,353.749L281.667,354.547L291.333,355.264L301,355.91L310.667,356.491L320.333,357.013L330,357.483L339.667,357.905L349.333,358.285L359,358.626L368.667,358.932L378.333,359.208L388,359.456L397.667,359.678L407.333,359.878L417,360.057L426.667,360.219L436.333,360.364L446,360.494L455.667,360.611L465.333,360.716L475,360.81L484.667,360.895L494.333,360.971L504,360.998L513.667,361.023L523.333,361.045L533,361.065L542.667,361.084L552.333,361.1L562,361.115L571.667,361.129L581.333,361.141L591,361.152L600.667,361.162L610.333,361.171L620,361.179L620,370L610.333,370L600.667,370L591,370L581.333,370L571.667,370L562,370L552.333,370L542.667,370L533,370L523.333,370L513.667,370L504,370L494.333,370L484.667,370L475,370L465.333,370L455.667,370L446,370L436.333,370L426.667,370L417,370L407.333,370L397.667,370L388,370L378.333,370L368.667,370L359,370L349.333,370L339.667,370L330,370L320.333,370L310.667,370L301,370L291.333,370L281.667,370L272,370L262.333,370L252.667,370L243,370L233.333,370L223.667,370L214,370L204.333,370L194.667,370L185,370L175.333,370L165.667,370L156,370L146.333,370L136.667,370L127,370L117.333,370L107.667,370L98,370L88.333,370L78.667,370L69,370L59.333,370L49.667,370L40,370Z"/><path fill="#8c564b" d="M40,280.714L49.667,283.315L59.333,285.995L69,291.895L78.667,297.315L88.333,302.282L98,306.826L107.667,310.976L117.333,314.76L127,318.205L136.667,321.338L146.333,324.183L156,326.764L165.667,329.104L175.333,331.222L185,333.14L194.667,334.873L204.333,336.44L214,337.856L223.667,339.133L233.333,340.286L243,341.327L252.667,342.265L262.333,343.11L272,343.872L281.667,344.559L291.333,345.178L301,345.735L310.667,346.236L320.333,346.688L330,347.095L339.667,347.461L349.333,347.79L359,348.087L368.667,348.353L378.333,348.593L388,348.809L397.667,349.003L407.333,349.178L417,349.335L426.667,349.476L436.333,349.603L446,349.717L455.667,349.819L465.333,349.911L475,349.994L484.667,350.069L494.333,350.135L504,350.195L513.667,350.25L523.333,350.299L533,350.344L542.667,350.384L552.333,350.421L562,350.453L571.667,350.483L581.333,350.51L591,350.534L600.667,350.556L610.333,350.575L620,350.593L620,361.179L610.333,361.171L600.667,361.162L591,361.152L581.333,361.141L571.667,361.129L562,361.115L552.333,361.1L542.667,361.084L533,361.065L523.333,361.045L513.667,361.023L504,360.998L494.333,360.971L484.667,360.895L475,360.81L465.333,360.716L455.667,360.611L446,360.494L436.333,360.364L426.667,360.219L417,360.057L407.333,359.878L397.667,359.678L388,359.456L378.333,359.208L368.667,358.932L359,358.626L349.333,358.285L339.667,357.905L330,357.483L320.333,357.013L310.667,356.491L301,355.91L291.333,355.264L281.667,354.547L272,353.749L262.333,352.863L252.667,351.879L243,350.787L233.333,349.575L223.667,348.23L214,346.739L204.333,345.086L194.667,343.255L185,341.228L175.333,338.986L165.667,336.507L156,333.769L146.333,330.747L136.667,327.415L127,323.746L117.333,319.71L107.667,315.276L98,310.413L88.333,305.087L78.667,299.265L69,292.912L59.333,285.995L49.667,283.315L40,280.714Z"/><path fill="#9467bd" d="M40,120L49.667,127.281L59.333,134.786L69,153.137L78.667,169.991L88.333,185.439L98,199.569L107.667,212.473L117.333,224.237L127,234.947L136.667,244.684L146.333,253.527L156,261.548L165.667,268.816L175.333,275.397L185,281.351L194.667,286.733L204.333,291.595L214,295.986L223.667,299.947L233.333,303.521L243,306.743L252.667,309.647L262.333,312.264L272,314.621L281.667,316.743L291.333,318.653L301,320.372L310.667,321.92L320.333,323.312L330,324.564L339.667,325.69L349.333,326.703L359,327.613L368.667,328.432L378.333,329.168L388,329.829L397.667,330.424L407.333,330.958L417,331.438L426.667,331.87L436.333,332.257L446,332.606L455.667,332.918L465.333,333.2L475,333.452L484.667,333.679L494.333,333.883L504,333.992L513.667,334.091L523.333,334.18L533,334.261L542.667,334.335L552.333,334.401L562,334.461L571.667,334.515L581.333,334.563L591,334.607L600.667,334.647L610.333,334.682L620,334.714L620,350.593L610.333,350.575L600.667,350.556L591,350.534L581.333,350.51L571.667,350.483L562,350.453L552.333,350.421L542.667,350.384L533,350.344L523.333,350.299L513.667,350.25L504,350.195L494.333,350.135L484.667,350.069L475,349.994L465.333,349.911L455.667,349.819L446,349.717L436.333,349.603L426.667,349.476L417,349.335L407.333,349.178L397.667,349.003L388,348.809L378.333,348.593L368.667,348.353L359,348.087L349.333,347.79L339.667,347.461L330,347.095L320.333,346.688L310.667,346.236L301,345.735L291.333,345.178L281.667,344.559L272,343.872L262.333,343.11L252.667,342.265L243,341.327L233.333,340.286L223.667,339.133L214,337.856L204.333,336.44L194.667,334.873L185,333.14L175.333,331.222L165.667,329.104L156,326.764L146.333,324.183L136.667,321.338L127,318.205L117.333,314.76L107.667,310.976L98,306.826L88.333,302.282L78.667,297.315L69,291.895L59.333,285.995L49.667,283.315L40,280.714Z"/><path fill="#d62728" d="M40,120L49.667,127.281L59.333,134.786L69,151.442L78.667,166.741L88.333,180.764L98,193.591L107.667,205.306L117.333,215.988L127,225.713L136.667,234.556L146.333,242.587L156,249.873L165.667,256.477L175.333,262.458L185,267.869L194.667,272.763L204.333,277.186L214,281.18L223.667,284.786L233.333,288.041L243,290.976L252.667,293.623L262.333,296.009L272,298.159L281.667,300.097L291.333,301.842L301,303.414L310.667,304.829L320.333,306.104L330,307.251L339.667,308.283L349.333,309.212L359,310.048L368.667,310.8L378.333,311.477L388,312.085L397.667,312.633L407.333,313.125L417,313.567L426.667,313.965L436.333,314.322L446,314.644L455.667,314.933L465.333,315.192L475,315.426L484.667,315.635L494.333,315.824L504,315.988L513.667,316.136L523.333,316.271L533,316.392L542.667,316.502L552.333,316.602L562,316.691L571.667,316.772L581.333,316.845L591,316.911L600.667,316.97L610.333,317.024L620,317.072L620,334.714L610.333,334.682L600.667,334.647L591,334.607L581.333,334.563L571.667,334.515L562,334.461L552.333,334.401L542.667,334.335L533,334.261L523.333,334.18L513.667,334.091L504,333.992L494.333,333.883L484.667,333.679L475,333.452L465.333,333.2L455.667,332.918L446,332.606L436.333,332.257L426.667,331.87L417,331.438L407.333,330.958L397.667,330.424L388,329.829L378.333,329.168L368.667,328.432L359,327.613L349.333,326.703L339.667,325.69L330,324.564L320.333,323.312L310.667,321.92L301,320.372L291.333,318.653L281.667,316.743L272,314.621L262.333,312.264L252.667,309.647L243,306.743L233.333,303.521L223.667,299.947L214,295.986L204.333,291.595L194.667,286.733L185,281.351L175.333,275.397L165.667,268.816L156,261.548L146.333,253.527L136.667,244.684L127,234.947L117.333,224.237L107.667,212.473L98,199.569L88.333,185.439L78.667,169.991L69,153.137L59.333,134.786L49.667,127.281L40,120Z"/><path fill="#2ca02c" d="M40,120L49.667,127.281L59.333,134.786L69,149.748L78.667,163.491L88.333,176.088L98,187.614L107.667,198.14L117.333,207.738L127,216.478L136.667,224.427L146.333,231.647L156,238.198L165.667,244.138L175.333,249.518L185,254.388L194.667,258.794L204.333,262.776L214,266.375L223.667,269.625L233.333,272.56L243,275.208L252.667,277.598L262.333,279.754L272,281.698L281.667,283.451L291.333,285.031L301,286.455L310.667,287.739L320.333,288.896L330,289.938L339.667,290.876L349.333,291.722L359,292.483L368.667,293.169L378.333,293.786L388,294.341L397.667,294.841L407.333,295.291L417,295.696L426.667,296.06L436.333,296.388L446,296.682L455.667,296.947L465.333,297.185L475,297.399L484.667,297.592L494.333,297.765L504,297.984L513.667,298.182L523.333,298.361L533,298.523L542.667,298.67L552.333,298.802L562,298.922L571.667,299.03L581.333,299.127L591,299.215L600.667,299.294L610.333,299.365L620,299.429L620,317.072L610.333,317.024L600.667,316.97L591,316.911L581.333,316.845L571.667,316.772L562,316.691L552.333,316.602L542.667,316.502L533,316.392L523.333,316.271L513.667,316.136L504,315.988L494.333,315.824L484.667,315.635L475,315.426L465.333,315.192L455.667,314.933L446,314.644L436.333,314.322L426.667,313.965L417,313.567L407.333,313.125L397.667,312.633L388,312.085L378.333,311.477L368.667,310.8L359,310.048L349.333,309.212L339.667,308.283L330,307.251L320.333,306.104L310.667,304.829L301,303.414L291.333,301.842L281.667,300.097L272,298.159L262.333,296.009L252.667,293.623L243,290.976L233.333,288.041L223.667,284.786L214,281.18L204.333,277.186L194.667,272.763L185,267.869L175.333,262.458L165.667,256.477L156,249.873L146.333,242.587L136.667,234.556L127,225.713L117.333,215.988L107.667,205.306L98,193.591L88.333,180.764L78.667,166.741L69,151.442L59.333,134.786L49.667,127.281L40,120Z"/><path fill="#ff7f0e" d="M40,120L49.667,127.281L59.333,134.786L69,136.192L78.667,137.49L88.333,138.687L98,139.79L107.667,140.806L117.333,141.741L127,142.602L136.667,143.396L146.333,144.127L156,144.802L165.667,145.426L175.333,146.004L185,146.54L194.667,147.037L204.333,147.501L214,147.933L223.667,148.336L233.333,148.714L243,149.069L252.667,149.401L262.333,149.714L272,150.007L281.667,150.284L291.333,150.543L301,150.788L310.667,151.017L320.333,151.232L330,151.434L339.667,151.622L349.333,151.799L359,151.963L368.667,152.116L378.333,152.258L388,152.389L397.667,152.511L407.333,152.623L417,152.726L426.667,152.821L436.333,152.909L446,152.989L455.667,153.062L465.333,153.128L475,153.189L484.667,153.245L494.333,153.295L504,153.951L513.667,154.545L523.333,155.082L533,155.569L542.667,156.009L552.333,156.406L562,156.765L571.667,157.089L581.333,157.38L591,157.644L600.667,157.881L610.333,158.094L620,158.287L620,299.429L610.333,299.365L600.667,299.294L591,299.215L581.333,299.127L571.667,299.03L562,298.922L552.333,298.802L542.667,298.67L533,298.523L523.333,298.361L513.667,298.182L504,297.984L494.333,297.765L484.667,297.592L475,297.399L465.333,297.185L455.667,296.947L446,296.682L436.333,296.388L426.667,296.06L417,295.696L407.333,295.291L397.667,294.841L388,294.341L378.333,293.786L368.667,293.169L359,292.483L349.333,291.722L339.667,290.876L330,289.938L320.333,288.896L310.667,287.739L301,286.455L291.333,285.031L281.667,283.451L272,281.698L262.333,279.754L252.667,277.598L243,275.208L233.333,272.56L223.667,269.625L214,266.375L204.333,262.776L194.667,258.794L185,254.388L175.333,249.518L165.667,244.138L156,238.198L146.333,231.647L136.667,224.427L127,216.478L117.333,207.738L107.667,198.14L98,187.614L88.333,176.088L78.667,163.491L69,149.748L59.333,134.786L49.667,127.281L40,120Z"/><path fill="#1f77b4" d="M40,20L49.667,20L59.333,20L69,20L78.667,20L88.333,20L98,20L107.667,20L117.333,20L127,20L136.667,20L146.333,20L156,20L165.667,20L175.333,20L185,20L194.667,20L204.333,20L214,20L223.667,20L233.333,20L243,20L252.667,20L262.333,20L272,20L281.667,20L291.333,20L301,20L310.667,20L320.333,20L330,20L339.667,20L349.333,20L359,20L368.667,20L378.333,20L388,20L397.667,20L407.333,20L417,20L426.667,20L436.333,20L446,20L455.667,20L465.333,20L475,20L484.667,20L494.333,20L504,20L513.667,20L523.333,20L533,20L542.667,20L552.333,20L562,20L571.667,20L581.333,20L591,20L600.667,20L610.333,20L620,20L620,158.287L610.333,158.094L600.667,157.881L591,157.644L581.333,157.38L571.667,157.089L562,156.765L552.333,156.406L542.667,156.009L533,155.569L523.333,155.082L513.667,154.545L504,153.951L494.333,153.295L484.667,153.245L475,153.189L465.333,153.128L455.667,153.062L446,152.989L436.333,152.909L426.667,152.821L417,152.726L407.333,152.623L397.667,152.511L388,152.389L378.333,152.258L368.667,152.116L359,151.963L349.333,151.799L339.667,151.622L330,151.434L320.333,151.232L310.667,151.017L301,150.788L291.333,150.543L281.667,150.284L272,150.007L262.333,149.714L252.667,149.401L243,149.069L233.333,148.714L223.667,148.336L214,147.933L204.333,147.501L194.667,147.037L185,146.54L175.333,146.004L165.667,145.426L156,144.802L146.333,144.127L136.667,143.396L127,142.602L117.333,141.741L107.667,140.806L98,139.79L88.333,138.687L78.667,137.49L69,136.192L59.333,134.786L49.667,127.281L40,120Z"/></g></g></svg></svg>