<svg width="660" height="702.75" viewBox="-10,-10,660,702.75" xmlns="http://www.w3.org/2000/svg" xmlns:xlink="http://www.w3.org/1999/xlink"><svg width="894" height="35" x="0" y="0"><g transform="translate(2.8000000000000007,19)"><svg width="15" height="15" fill="#1f77b4" y="-7.5px"><rect width="100%" height="100%"/></svg><text x="15" dx="5" dy="0.38em" font-family="system-ui, sans-serif" font-size="10px" fill="rgb(27, 30, 35)">Incentives</text></g><g transform="translate(91.50000610351562,19)"><svg width="15" height="15" fill="#ff7f0e" y="-7.5px"><rect width="100%" height="100%"/></svg><text x="15" dx="5" dy="0.38em" font-family="system-ui, sans-serif" font-size="10px" fill="rgb(27, 30, 35)">Klima Holders</text></g><g transform="translate(201.05999145507812,19)"><svg width="15" height="15" fill="#2ca02c" y="-7.5px"><rect width="100%" height="100%"/></svg><text x="15" dx="5" dy="0.38em" font-family="system-ui, sans-serif" font-size="10px" fill="rgb(27, 30, 35)">Product Design</text></g><g transform="translate(318.3000244140625,19)"><svg width="15" height="15" fill="#d62728" y="-7.5px"><rect width="100%" height="100%"/></svg><text x="15" dx="5" dy="0.38em" font-family="system-ui, sans-serif" font-size="10px" fill="rgb(27, 30, 35)">Ecosystem Grant</text></g><g transform="translate(442.3,19)"><svg width="15" height="15" fill="#9467bd" y="-7.5px"><rect width="100%" height="100%"/></svg><text x="15" dx="5" dy="0.38em" font-family="system-ui, sans-serif" font-size="10px" fill="rgb(27, 30, 35)">DAO/Treasury</text></g><g transform="translate(551.3200073242188,19)"><svg width="15" height="15" fill="#8c564b" y="-7.5px"><rect width="100%" height="100%"/></svg><text x="15" dx="5" dy="0.38em" font-family="system-ui, sans-serif" font-size="10px" fill="rgb(27, 30, 35)">pKlima Holders</text></g><g transform="translate(667.9399902343749,19)"><svg width="15" height="15" fill="#e377c2" y="-7.5px"><rect width="100%" height="100%"/></svg><text x="15" dx="5" dy="0.38em" font-family="system-ui, sans-serif" font-size="10px" fill="rgb(27, 30, 35)">01X</text></g></svg><svg class="plot-d6a7b5" fill="currentColor" font-family="system-ui, sans-serif" font-size="10" text-anchor="middle" width="640" height="640" viewBox="0 0 640 640" x="0" y="42.75"><style>:where(.plot-d6a7b5) {
  --plot-background: white;
  display: block;
  height: auto;
  height: intrinsic;
  max-width: 100%;
}
:where(.plot-d6a7b5 text),
:where(.plot-d6a7b5 tspan) {
  white-space: pre;
}</style><g aria-label="area"><path fill="#e377c2" d="M319.5,35.5L323.961,35.535L328.421,35.64L332.878,35.815L337.333,36.06L341.782,36.375L346.227,36.76L350.665,37.215L355.095,37.739L359.516,38.333L363.927,38.997L350.044,126.654L347.011,126.198L343.971,125.79L340.926,125.429L337.875,125.117L334.819,124.852L331.76,124.635L328.698,124.467L325.633,124.346L322.567,124.274L319.5,124.25Z"/><path fill="#8c564b" d="M363.927,38.997L368.328,39.729L372.716,40.53L377.092,41.401L381.453,42.34L385.798,43.347L390.128,44.422L394.44,45.566L398.733,46.777L403.007,48.055L407.261,49.4L411.493,50.812L415.702,52.29L385.639,135.793L382.745,134.777L379.836,133.806L376.911,132.881L373.973,132.003L371.021,131.17L368.057,130.384L365.08,129.645L362.092,128.952L359.094,128.307L356.086,127.708L353.069,127.157L350.044,126.654Z"/><path fill="#9467bd" d="M415.702,52.29L419.887,53.834L424.047,55.443L428.182,57.118L432.29,58.858L436.37,60.661L440.421,62.529L444.443,64.46L448.433,66.454L452.392,68.511L456.318,70.629L460.21,72.809L464.068,75.049L467.89,77.35L471.675,79.711L475.422,82.131L479.132,84.609L482.801,87.145L486.431,89.739L434.265,161.539L431.77,159.756L429.247,158.013L426.697,156.309L424.12,154.645L421.518,153.022L418.89,151.44L416.238,149.9L413.562,148.401L410.863,146.945L408.142,145.531L405.398,144.16L402.633,142.833L399.848,141.549L397.043,140.308L394.219,139.113L391.376,137.961L388.516,136.855L385.639,135.793Z"/><path fill="#d62728" d="M486.431,89.739L490.019,92.39L493.566,95.096L497.069,97.858L500.528,100.674L503.943,103.545L507.313,106.468L510.636,109.445L513.911,112.473L517.139,115.552L520.318,118.682L523.448,121.861L526.527,125.089L529.555,128.364L532.532,131.687L535.455,135.057L538.326,138.472L541.142,141.931L543.904,145.434L546.61,148.981L549.261,152.569L477.461,204.735L475.638,202.268L473.778,199.83L471.879,197.421L469.943,195.043L467.969,192.695L465.959,190.379L463.913,188.094L461.831,185.842L459.714,183.623L457.563,181.437L455.377,179.286L453.158,177.169L450.906,175.087L448.621,173.041L446.305,171.031L443.957,169.057L441.579,167.121L439.17,165.222L436.732,163.362L434.265,161.539Z"/><path fill="#2ca02c" d="M549.261,152.569L551.855,156.199L554.391,159.868L556.869,163.578L559.289,167.325L561.65,171.11L563.951,174.932L566.191,178.79L568.371,182.682L570.489,186.608L572.546,190.567L574.54,194.557L576.471,198.579L578.339,202.63L580.142,206.71L581.882,210.818L583.557,214.953L585.166,219.113L586.71,223.298L588.188,227.507L589.6,231.739L505.194,259.164L504.223,256.255L503.207,253.361L502.145,250.484L501.039,247.624L499.887,244.781L498.692,241.957L497.451,239.152L496.167,236.367L494.84,233.602L493.469,230.858L492.055,228.137L490.599,225.438L489.1,222.762L487.56,220.11L485.978,217.482L484.355,214.88L482.691,212.303L480.987,209.753L479.244,207.23L477.461,204.735Z"/><path fill="#ff7f0e" d="M589.6,231.739L590.945,235.993L592.223,240.267L593.434,244.56L594.578,248.872L595.653,253.202L596.66,257.547L597.599,261.908L598.47,266.284L599.271,270.672L600.003,275.073L600.667,279.484L601.261,283.905L601.785,288.335L602.24,292.773L602.625,297.218L602.94,301.667L603.185,306.122L603.36,310.579L603.465,315.039L603.5,319.5L603.465,323.961L603.36,328.421L603.185,332.878L602.94,337.333L602.625,341.782L602.24,346.227L601.785,350.665L601.261,355.095L600.667,359.516L600.003,363.927L599.271,368.328L598.47,372.716L597.599,377.092L596.66,381.453L595.653,385.798L594.578,390.128L593.434,394.44L592.223,398.733L590.945,403.007L589.6,407.261L588.188,411.493L586.71,415.702L585.166,419.887L583.557,424.047L581.882,428.182L580.142,432.29L578.339,436.37L576.471,440.421L574.54,444.443L572.546,448.433L570.489,452.392L568.371,456.318L566.191,460.21L563.951,464.068L561.65,467.89L559.289,471.675L556.869,475.422L554.391,479.132L551.855,482.801L549.261,486.431L546.61,490.019L543.904,493.566L541.142,497.069L538.326,500.528L535.455,503.943L532.532,507.313L529.555,510.636L526.527,513.911L523.448,517.139L520.318,520.318L517.139,523.448L513.911,526.527L510.636,529.555L507.313,532.532L503.943,535.455L500.528,538.326L497.069,541.142L493.566,543.904L490.019,546.61L486.431,549.261L482.801,551.855L479.132,554.391L475.422,556.869L471.675,559.289L467.89,561.65L464.068,563.951L460.21,566.191L456.318,568.371L452.392,570.489L448.433,572.546L444.443,574.54L440.421,576.471L436.37,578.339L432.29,580.142L428.182,581.882L424.047,583.557L419.887,585.166L415.702,586.71L411.493,588.188L407.261,589.6L403.007,590.945L398.733,592.223L394.44,593.434L390.128,594.578L385.798,595.653L381.453,596.66L377.092,597.599L372.716,598.47L368.328,599.271L363.927,600.003L359.516,600.667L355.095,601.261L350.665,601.785L346.227,602.24L341.782,602.625L337.333,602.94L332.878,603.185L328.421,603.36L323.961,603.465L319.5,603.5L315.039,603.465L310.579,603.36L306.122,603.185L301.667,602.94L297.218,602.625L292.773,602.24L288.335,601.785L283.905,601.261L279.484,600.667L275.073,600.003L270.672,599.271L266.284,598.47L261.908,597.599L257.547,596.66L253.202,595.653L248.872,594.578L244.56,593.434L240.267,592.223L235.993,590.945L231.739,589.6L227.507,588.188L223.298,586.71L219.113,585.166L214.953,583.557L210.818,581.882L206.71,580.142L202.63,578.339L198.579,576.471L194.557,574.54L190.567,572.546L186.608,570.489L182.682,568.371L178.79,566.191L174.932,563.951L171.11,561.65L167.325,559.289L163.578,556.869L159.868,554.391L156.199,551.855L152.569,549.261L204.735,477.461L207.23,479.244L209.753,480.987L212.303,482.691L214.88,484.355L217.482,485.978L220.11,487.56L222.762,489.1L225.438,490.599L228.137,492.055L230.858,493.469L233.602,494.84L236.367,496.167L239.152,497.451L241.957,498.692L244.781,499.887L247.624,501.039L250.484,502.145L253.361,503.207L256.255,504.223L259.164,505.194L262.089,506.119L265.027,506.997L267.979,507.83L270.943,508.616L273.92,509.355L276.908,510.048L279.906,510.693L282.914,511.292L285.931,511.843L288.956,512.346L291.989,512.802L295.029,513.21L298.074,513.571L301.125,513.883L304.181,514.148L307.24,514.365L310.302,514.533L313.367,514.654L316.433,514.726L319.5,514.75L322.567,514.726L325.633,514.654L328.698,514.533L331.76,514.365L334.819,514.148L337.875,513.883L340.926,513.571L343.971,513.21L347.011,512.802L350.044,512.346L353.069,511.843L356.086,511.292L359.094,510.693L362.092,510.048L365.08,509.355L368.057,508.616L371.021,507.83L373.973,506.997L376.911,506.119L379.836,505.194L382.745,504.223L385.639,503.207L388.516,502.145L391.376,501.039L394.219,499.887L397.043,498.692L399.848,497.451L402.633,496.167L405.398,494.84L408.142,493.469L410.863,492.055L413.562,490.599L416.238,489.1L418.89,487.56L421.518,485.978L424.12,484.355L426.697,482.691L429.247,480.987L431.77,479.244L434.265,477.461L436.732,475.638L439.17,473.778L441.579,471.879L443.957,469.943L446.305,467.969L448.621,465.959L450.906,463.913L453.158,461.831L455.377,459.714L457.563,457.563L459.714,455.377L461.831,453.158L463.913,450.906L465.959,448.621L467.969,446.305L469.943,443.957L471.879,441.579L473.778,439.17L475.638,436.732L477.461,434.265L479.244,431.77L480.987,429.247L482.691,426.697L484.355,424.12L485.978,421.518L487.56,418.89L489.1,416.238L490.599,413.562L492.055,410.863L493.469,408.142L494.84,405.398L496.167,402.633L497.451,399.848L498.692,397.043L499.887,394.219L501.039,391.376L502.145,388.516L503.207,385.639L504.223,382.745L505.194,379.836L506.119,376.911L506.997,373.973L507.83,371.021L508.616,368.057L509.355,365.08L510.048,362.092L510.693,359.094L511.292,356.086L511.843,353.069L512.346,350.044L512.802,347.011L513.21,343.971L513.571,340.926L513.883,337.875L514.148,334.819L514.365,331.76L514.533,328.698L514.654,325.633L514.726,322.567L514.75,319.5L514.726,316.433L514.654,313.367L514.533,310.302L514.365,307.24L514.148,304.181L513.883,301.125L513.571,298.074L513.21,295.029L512.802,291.989L512.346,288.956L511.843,285.931L511.292,282.914L510.693,279.906L510.048,276.908L509.355,273.92L508.616,270.943L507.83,267.979L506.997,265.027L506.119,262.089L505.194,259.164Z"/><path fill="#1f77b4" d="M152.569,549.261L148.981,546.61L145.434,543.904L141.931,541.142L138.472,538.326L135.057,535.455L131.687,532.532L128.364,529.555L125.089,526.527L121.861,523.448L118.682,520.318L115.552,517.139L112.473,513.911L109.445,510.636L106.468,507.313L103.545,503.943L100.674,500.528L97.858,497.069L95.096,493.566L92.39,490.019L89.739,486.431L87.145,482.801L84.609,479.132L82.131,475.422L79.711,471.675L77.35,467.89L75.049,464.068L72.809,460.21L70.629,456.318L68.511,452.392L66.454,448.433L64.46,444.443L62.529,440.421L60.661,436.37L58.858,432.29L57.118,428.182L55.443,424.047L53.834,419.887L52.29,415.702L50.812,411.493L49.4,407.261L48.055,403.007L46.777,398.733L45.566,394.44L44.422,390.128L43.347,385.798L42.34,381.453L41.401,377.092L40.53,372.716L39.729,368.328L38.997,363.927L38.333,359.516L37.739,355.095L37.215,350.665L36.76,346.227L36.375,341.782L36.06,337.333L35.815,332.878L35.64,328.421L35.535,323.961L35.5,319.5L35.535,315.039L35.64,310.579L35.815,306.122L36.06,301.667L36.375,297.218L36.76,292.773L37.215,288.335L37.739,283.905L38.333,279.484L38.997,275.073L39.729,270.672L40.53,266.284L41.401,261.908L42.34,257.547L43.347,253.202L44.422,248.872L45.566,244.56L46.777,240.267L48.055,235.993L49.4,231.739L50.812,227.507L52.29,223.298L53.834,219.113L55.443,214.953L57.118,210.818L58.858,206.71L60.661,202.63L62.529,198.579L64.46,194.557L66.454,190.567L68.511,186.608L70.629,182.682L72.809,178.79L75.049,174.932L77.35,171.11L79.711,167.325L82.131,163.578L84.609,159.868L87.145,156.199L89.739,152.569L92.39,148.981L95.096,145.434L97.858,141.931L100.674,138.472L103.545,135.057L106.468,131.687L109.445,128.364L112.473,125.089L115.552,121.861L118.682,118.682L121.861,115.552L125.089,112.473L128.364,109.445L131.687,106.468L135.057,103.545L138.472,100.674L141.931,97.858L145.434,95.096L148.981,92.39L152.569,89.739L156.199,87.145L159.868,84.609L163.578,82.131L167.325,79.711L171.11,77.35L174.932,75.049L178.79,72.809L182.682,70.629L186.608,68.511L190.567,66.454L194.557,64.46L198.579,62.529L202.63,60.661L206.71,58.858L210.818,57.118L214.953,55.443L219.113,53.834L223.298,52.29L227.507,50.812L231.739,49.4L235.993,48.055L240.267,46.777L244.56,45.566L248.872,44.422L253.202,43.347L257.547,42.34L261.908,41.401L266.284,40.53L270.672,39.729L275.073,38.997L279.484,38.333L283.905,37.739L288.335,37.215L292.773,36.76L297.218,36.375L301.667,36.06L306.122,35.815L310.579,35.64L315.039,35.535L319.5,35.5L319.5,124.25L316.433,124.274L313.367,124.346L310.302,124.467L307.24,124.635L304.181,124.852L301.125,125.117L298.074,125.429L295.029,125.79L291.989,126.198L288.956,126.654L285.931,127.157L282.914,127.708L279.906,128.307L276.908,128.952L273.92,129.645L270.943,130.384L267.979,131.17L265.027,132.003L262.089,132.881L259.164,133.806L256.255,134.777L253.361,135.793L250.484,136.855L247.624,137.961L244.781,139.113L241.957,140.308L239.152,141.549L236.367,142.833L233.602,144.16L230.858,145.531L228.137,146.945L225.438,148.401L222.762,149.9L220.11,151.44L217.482,153.022L214.88,154.645L212.303,156.309L209.753,158.013L207.23,159.756L204.735,161.539L202.268,163.362L199.83,165.222L197.421,167.121L195.043,169.057L192.695,171.031L190.379,173.041L188.094,175.087L185.842,177.169L183.623,179.286L181.437,181.437L179.286,183.623L177.169,185.842L175.087,188.094L173.041,190.379L171.031,192.695L169.057,195.043L167.121,197.421L165.222,199.83L163.362,202.268L161.539,204.735L159.756,207.23L158.013,209.753L156.309,212.303L154.645,214.88L153.022,217.482L151.44,220.11L149.9,222.762L148.401,225.438L146.945,228.137L145.531,230.858L144.16,233.602L142.833,236.367L141.549,239.152L140.308,241.957L139.113,244.781L137.961,247.624L136.855,250.484L135.793,253.361L134.777,256.255L133.806,259.164L132.881,262.089L132.003,265.027L131.17,267.979L130.384,270.943L129.645,273.92L128.952,276.908L128.307,279.906L127.708,282.914L127.157,285.931L126.654,288.956L126.198,291.989L125.79,295.029L125.429,298.074L125.117,301.125L124.852,304.181L124.635,307.24L124.467,310.302L124.346,313.367L124.274,316.433L124.25,319.5L124.274,322.567L124.346,325.633L124.467,328.698L124.635,331.76L124.852,334.819L125.117,337.875L125.429,340.926L125.79,343.971L126.198,347.011L126.654,350.044L127.157,353.069L127.708,356.086L128.307,359.094L128.952,362.092L129.645,365.08L130.384,368.057L131.17,371.021L132.003,373.973L132.881,376.911L133.806,379.836L134.777,382.745L135.793,385.639L136.855,388.516L137.961,391.376L139.113,394.219L140.308,397.043L141.549,399.848L142.833,402.633L144.16,405.398L145.531,408.142L146.945,410.863L148.401,413.562L149.9,416.238L151.44,418.89L153.022,421.518L154.645,424.12L156.309,426.697L158.013,429.247L159.756,431.77L161.539,434.265L163.362,436.732L165.222,439.17L167.121,441.579L169.057,443.957L171.031,446.305L173.041,448.621L175.087,450.906L177.169,453.158L179.286,455.377L181.437,457.563L183.623,459.714L185.842,461.831L188.094,463.913L190.379,465.959L192.695,467.969L195.043,469.943L197.421,471.879L199.83,473.778L202.268,475.638L204.735,477.461Z"/></g></svg></svg>