<svg width="660" height="462.75" viewBox="-10,-10,660,462.75" xmlns="http://www.w3.org/2000/svg" xmlns:xlink="http://www.w3.org/1999/xlink"><svg width="894" height="35" x="0" y="0"><g transform="translate(2.8000000000000007,19)"><svg width="15" height="15" fill="#1f77b4" y="-7.5px"><rect width="100%" height="100%"/></svg><text x="15" dx="5" dy="0.38em" font-family="system-ui, sans-serif" font-size="10px" fill="rgb(27, 30, 35)">Incentives</text></g><g transform="translate(91.50000610351562,19)"><svg width="15" height="15" fill="#ff7f0e" y="-7.5px"><rect width="100%" height="100%"/></svg><text x="15" dx="5" dy="0.38em" font-family="system-ui, sans-serif" font-size="10px" fill="rgb(27, 30, 35)">Klima Holders</text></g><g transform="translate(201.05999145507812,19)"><svg width="15" height="15" fill="#2ca02c" y="-7.5px"><rect width="100%" height="100%"/></svg><text x="15" dx="5" dy="0.38em" font-family="system-ui, sans-serif" font-size="10px" fill="rgb(27, 30, 35)">Product Design</text></g><g transform="translate(318.3000244140625,19)"><svg width="15" height="15" fill="#d62728" y="-7.5px"><rect width="100%" height="100%"/></svg><text x="15" dx="5" dy="0.38em" font-family="system-ui, sans-serif" font-size="10px" fill="rgb(27, 30, 35)">Ecosystem Grant</text></g><g transform="translate(442.3,19)"><svg width="15" height="15" fill="#9467bd" y="-7.5px"><rect width="100%" height="100%"/></svg><text x="15" dx="5" dy="0.38em" font-family="system-ui, sans-serif" font-size="10px" fill="rgb(27, 30, 35)">DAO/Treasury</text></g><g transform="translate(551.3200073242188,19)"><svg width="15" height="15" fill="#8c564b" y="-7.5px"><rect width="100%" height="100%"/></svg><text x="15" dx="5" dy="0.38em" font-family="system-ui, sans-serif" font-size="10px" fill="rgb(27, 30, 35)">pKlima Holders</text></g><g transform="translate(667.9399902343749,19)"><svg width="15" height="15" fill="#e377c2" y="-7.5px"><rect width="100%" height="100%"/></svg><text x="15" dx="5" dy="0.38em" font-family="system-ui, sans-serif" font-size="10px" fill="rgb(27, 30, 35)">01X</text></g></svg><svg class="plot-d6a7b5" fill="currentColor" font-family="system-ui, sans-serif" font-size="10" text-anchor="middle" width="640" height="400" viewBox="0 0 640 400" x="0" y="42.75"><style>:where(.plot-d6a7b5) {
  --plot-background: white;
  display: block;
  height: auto;
  height: intrinsic;
  max-width: 100%;
}
:where(.plot-d6a7b5 text),
:where(.plot-d6a7b5 tspan) {
  white-space: pre;
}</style><g aria-label="y-grid" aria-hidden="true" stroke="currentColor" stroke-opacity="0.1" transform="translate(0,0.5)"><line x1="40" x2="620" y1="370" y2="370"/><line x1="40" x2="620" y1="335" y2="335"/><line x1="40" x2="620" y1="300" y2="300"/><line x1="40" x2="620" y1="265" y2="265"/><line x1="40" x2="620" y1="230" y2="230"/><line x1="40" x2="620" y1="195" y2="195"/><line x1="40" x2="620" y1="160" y2="160"/><line x1="40" x2="620" y1="125.00000000000001" y2="125.00000000000001"/><line x1="40" x2="620" y1="89.99999999999999" y2="89.99999999999999"/><line x1="40" x2="620" y1="54.99999999999999" y2="54.99999999999999"/><line x1="40" x2="620" y1="20" y2="20"/></g><g aria-label="y-axis tick" aria-hidden="true" fill="none" stroke="currentColor" transform="translate(0,0.5)"><path transform="translate(40,370)" d="M0,0L-6,0"/><path transform="translate(40,335)" d="M0,0L-6,0"/><path transform="translate(40,300)" d="M0,0L-6,0"/><path transform="translate(40,265)" d="M0,0L-6,0"/><path transform="translate(40,230)" d="M0,0L-6,0"/><path transform="translate(40,195)" d="M0,0L-6,0"/><path transform="translate(40,160)" d="M0,0L-6,0"/><path transform="translate(40,125.00000000000001)" d="M0,0L-6,0"/><path transform="translate(40,89.99999999999999)" d="M0,0L-6,0"/><path transform="translate(40,54.99999999999999)" d="M0,0L-6,0"/><path transform="translate(40,20)" d="M0,0L-6,0"/></g><g aria-label="y-axis tick label" text-anchor="end" font-variant="tabular-nums" transform="translate(-8.5,0.5)"><text y="0.32em" transform="translate(40,370)">0</text><text y="0.32em" transform="translate(40,335)">10</text><text y="0.32em" transform="translate(40,300)">20</text><text y="0.32em" transform="translate(40,265)">30</text><text y="0.32em" transform="translate(40,230)">40</text><text y="0.32em" transform="translate(40,195)">50</text><text y="0.32em" transform="translate(40,160)">60</text><text y="0.32em" transform="translate(40,125.00000000000001)">70</text><text y="0.32em" transform="translate(40,89.99999999999999)">80</text><text y="0.32em" transform="translate(40,54.99999999999999)">90</text><text y="0.32em" transform="translate(40,20)">100</text></g><g aria-label="y-axis label" text-anchor="start" transform="translate(-36.5,-16.5)"><text y="0.71em" transform="translate(40,20)">↑ Total Supply (%)</text></g><g aria-label="x-grid" aria-hidden="true" stroke="currentColor" stroke-opacity="0.1" transform="translate(0.5,0)"><line x1="40" x2="40" y1="20" y2="370"/><line x1="156" x2="156" y1="20" y2="370"/><line x1="272" x2="272" y1="20" y2="370"/><line x1="388" x2="388" y1="20" y2="370"/><line x1="504" x2="504" y1="20" y2="370"/><line x1="620" x2="620" y1="20" y2="370"/></g><g aria-label="x-axis tick" aria-hidden="true" fill="none" stroke="currentColor" transform="translate(0.5,0)"><path transform="translate(40,370)" d="M0,0L0,6"/><path transform="translate(156,370)" d="M0,0L0,6"/><path transform="translate(272,370)" d="M0,0L0,6"/><path transform="translate(388,370)" d="M0,0L0,6"/><path transform="translate(504,370)" d="M0,0L0,6"/><path transform="translate(620,370)" d="M0,0L0,6"/></g><g aria-label="x-axis tick label" font-variant="tabular-nums" transform="translate(0.5,9.5)"><text y="0.71em" transform="translate(40,370)">0</text><text y="0.71em" transform="translate(156,370)">12</text><text y="0.71em" transform="translate(272,370)">24</text><text y="0.71em" transform="translate(388,370)">36</text><text y="0.71em" transform="translate(504,370)">48</text><text y="0.71em" transform="translate(620,370)">60</text></g><g aria-label="x-axis label" text-anchor="end" transform="translate(17.5,27.5)"><text transform="translate(620,370)">Time (Months) →</text></g><rect aria-label="frame" fill="none" stroke="currentColor" transform="translate(0.5,0.5)" x="40" y="20" width="580" height="350"/><clipPath id="plot-clip-28"><rect x="40" y="20" width="580" height="350"/></clipPath><g aria-label="line" clip-path="url(#plot-clip-28)"><g fill="none" stroke-width="2" stroke-linejoin="round" stroke-linecap="round" transform="translate(0.5,0.5)"><path stroke="#e377c2" d="M40,361.25L49.667,361.25L59.333,361.25L69,361.25L78.667,361.25L88.333,361.25L98,361.25L107.667,361.25L117.333,361.25L127,361.25L136.667,361.25L146.333,361.25L156,361.25L165.667,361.25L175.333,361.25L185,361.25L194.667,361.25L204.333,361.25L214,361.25L223.667,361.25L233.333,361.25L243,361.25L252.667,361.25L262.333,361.25L272,361.25L281.667,361.25L291.333,361.25L301,361.25L310.667,361.25L320.333,361.25L330,361.25L339.667,361.25L349.333,361.25L359,361.25L368.667,361.25L378.333,361.25L388,361.25L397.667,361.25L407.333,361.25L417,361.25L426.667,361.25L436.333,361.25L446,361.25L455.667,361.25L465.333,361.25L475,361.25L484.667,361.25L494.333,361.25L504,361.25L513.667,361.25L523.333,361.25L533,361.25L542.667,361.25L552.333,361.25L562,361.25L571.667,361.25L581.333,361.25L591,361.25L600.667,361.25L610.333,361.25L620,361.25"/><path stroke="#8c564b" d="M40,361.25L49.667,361.25L59.333,361.25L69,361.135L78.667,361.009L88.333,360.872L98,360.723L107.667,360.562L117.333,360.389L127,360.202L136.667,360.001L146.333,359.787L156,359.558L165.667,359.316L175.333,359.06L185,358.79L194.667,358.508L204.333,358.214L214,357.908L223.667,357.594L233.333,357.271L243,356.941L252.667,356.607L262.333,356.27L272,355.932L281.667,355.595L291.333,355.261L301,354.931L310.667,354.608L320.333,354.294L330,353.989L339.667,353.694L349.333,353.412L359,353.142L368.667,352.886L378.333,352.644L388,352.415L397.667,352.201L407.333,352L417,351.813L426.667,351.64L436.333,351.479L446,351.33L455.667,351.193L465.333,351.068L475,350.952L484.667,350.847L494.333,350.75L504,350.75L513.667,350.75L523.333,350.75L533,350.75L542.667,350.75L552.333,350.75L562,350.75L571.667,350.75L581.333,350.75L591,350.75L600.667,350.75L610.333,350.75L620,350.75"/><path stroke="#9467bd" d="M40,345.5L49.667,345.5L59.333,345.5L69,345.385L78.667,345.259L88.333,345.122L98,344.973L107.667,344.812L117.333,344.639L127,344.452L136.667,344.251L146.333,344.037L156,343.808L165.667,343.566L175.333,343.31L185,343.04L194.667,342.758L204.333,342.464L214,342.158L223.667,341.844L233.333,341.521L243,341.191L252.667,340.857L262.333,340.52L272,340.182L281.667,339.845L291.333,339.511L301,339.181L310.667,338.858L320.333,338.544L330,338.239L339.667,337.944L349.333,337.662L359,337.392L368.667,337.136L378.333,336.894L388,336.665L397.667,336.451L407.333,336.25L417,336.063L426.667,335.89L436.333,335.729L446,335.58L455.667,335.443L465.333,335.318L475,335.202L484.667,335.097L494.333,335L504,335L513.667,335L523.333,335L533,335L542.667,335L552.333,335L562,335L571.667,335L581.333,335L591,335L600.667,335L610.333,335L620,335"/><path stroke="#d62728" d="M40,345.5L49.667,345.5L59.333,345.5L69,345.192L78.667,344.857L88.333,344.492L98,344.095L107.667,343.667L117.333,343.203L127,342.705L136.667,342.17L146.333,341.598L156,340.989L165.667,340.342L175.333,339.659L185,338.94L194.667,338.187L204.333,337.403L214,336.589L223.667,335.75L233.333,334.889L243,334.011L252.667,333.119L262.333,332.22L272,331.319L281.667,330.42L291.333,329.528L301,328.65L310.667,327.789L320.333,326.95L330,326.136L339.667,325.352L349.333,324.599L359,323.88L368.667,323.197L378.333,322.55L388,321.941L397.667,321.369L407.333,320.834L417,320.336L426.667,319.873L436.333,319.444L446,319.047L455.667,318.682L465.333,318.347L475,318.039L484.667,317.757L494.333,317.5L504,317.5L513.667,317.5L523.333,317.5L533,317.5L542.667,317.5L552.333,317.5L562,317.5L571.667,317.5L581.333,317.5L591,317.5L600.667,317.5L610.333,317.5L620,317.5"/><path stroke="#2ca02c" d="M40,345.5L49.667,345.5L59.333,345.5L69,345L78.667,344.455L88.333,343.861L98,343.218L107.667,342.521L117.333,341.768L127,340.958L136.667,340.089L146.333,339.16L156,338.169L165.667,337.119L175.333,336.009L185,334.84L194.667,333.617L204.333,332.342L214,331.02L223.667,329.656L233.333,328.257L243,326.83L252.667,325.381L262.333,323.921L272,322.455L281.667,320.995L291.333,319.546L301,318.119L310.667,316.72L320.333,315.356L330,314.034L339.667,312.759L349.333,311.536L359,310.367L368.667,309.257L378.333,308.207L388,307.216L397.667,306.287L407.333,305.418L417,304.608L426.667,303.855L436.333,303.158L446,302.515L455.667,301.921L465.333,301.376L475,300.876L484.667,300.418L494.333,300L504,300L513.667,300L523.333,300L533,300L542.667,300L552.333,300L562,300L571.667,300L581.333,300L591,300L600.667,300L610.333,300L620,300"/><path stroke="#ff7f0e" d="M40,345.5L49.667,345.5L59.333,345.5L69,343.461L78.667,341.238L88.333,338.82L98,336.195L107.667,333.353L117.333,330.285L127,326.983L136.667,323.439L146.333,319.65L156,315.614L165.667,311.331L175.333,306.804L185,302.042L194.667,297.054L204.333,291.856L214,286.466L223.667,280.907L233.333,275.203L243,269.383L252.667,263.478L262.333,257.522L272,251.549L281.667,245.593L291.333,239.689L301,233.869L310.667,228.165L320.333,222.605L330,217.215L339.667,212.017L349.333,207.03L359,202.267L368.667,197.741L378.333,193.457L388,189.421L397.667,185.632L407.333,182.089L417,178.786L426.667,175.718L436.333,172.876L446,170.251L455.667,167.833L465.333,165.61L475,163.571L484.667,161.705L494.333,160L504,160L513.667,160L523.333,160L533,160L542.667,160L552.333,160L562,160L571.667,160L581.333,160L591,160L600.667,160L610.333,160L620,160"/><path stroke="#1f77b4" d="M40,335.7L49.667,334.671L59.333,333.544L69,330.273L78.667,326.705L88.333,322.821L98,318.605L107.667,314.037L117.333,309.104L127,303.79L136.667,298.085L146.333,291.981L156,285.474L165.667,278.563L175.333,271.255L185,263.559L194.667,255.492L204.333,247.077L214,238.343L223.667,229.324L233.333,220.062L243,210.602L252.667,200.994L262.333,191.291L272,181.549L281.667,171.824L291.333,162.173L301,152.65L310.667,143.305L320.333,134.187L330,125.339L339.667,116.796L349.333,108.592L359,100.75L368.667,93.29L378.333,86.225L388,79.561L397.667,73.301L407.333,67.443L417,61.979L426.667,56.9L436.333,52.192L446,47.842L455.667,43.832L465.333,40.144L475,36.76L484.667,33.661L494.333,30.829L504,29.8L513.667,28.862L523.333,28.008L533,27.232L542.667,26.528L552.333,25.889L562,25.31L571.667,24.786L581.333,24.312L591,23.884L600.667,23.497L610.333,23.148L620,22.833"/></g></g><g aria-label="area" clip-path="url(#plot-clip-28)"><g fill-opacity="0.5"><path fill="#e377c2" d="M40,361.25L49.667,361.25L59.333,361.25L69,361.25L78.667,361.25L88.333,361.25L98,361.25L107.667,361.25L117.333,361.25L127,361.25L136.667,361.25L146.333,361.25L156,361.25L165.667,361.25L175.333,361.25L185,361.25L194.667,361.25L204.333,361.25L214,361.25L223.667,361.25L233.333,361.25L243,361.25L252.667,361.25L262.333,361.25L272,361.25L281.667,361.25L291.333,361.25L301,361.25L310.667,361.25L320.333,361.25L330,361.25L339.667,361.25L349.333,361.25L359,361.25L368.667,361.25L378.333,361.25L388,361.25L397.667,361.25L407.333,361.25L417,361.25L426.667,361.25L436.333,361.25L446,361.25L455.667,361.25L465.333,361.25L475,361.25L484.667,361.25L494.333,361.25L504,361.25L513.667,361.25L523.333,361.25L533,361.25L542.667,361.25L552.333,361.25L562,361.25L571.667,361.25L581.333,361.25L591,361.25L600.667,361.25L610.333,361.25L620,361.25L620,370L610.333,370L600.667,370L591,370L581.333,370L571.667,370L562,370L552.333,370L542.667,370L533,370L523.333,370L513.667,370L504,370L494.333,370L484.667,370L475,370L465.333,370L455.667,370L446,370L436.333,370L426.667,370L417,370L407.333,370L397.667,370L388,370L378.333,370L368.667,370L359,370L349.333,370L339.667,370L330,370L320.333,370L310.667,370L301,370L291.333,370L281.667,370L272,370L262.333,370L252.667,370L243,370L233.333,370L223.667,370L214,370L204.333,370L194.667,370L185,370L175.333,370L165.667,370L156,370L146.333,370L136.667,370L127,370L117.333,370L107.667,370L98,370L88.333,370L78.667,370L69,370L59.333,370L49.667,370L40,370Z"/><path fill="#8c564b" d="M40,361.25L49.667,361.25L59.333,361.25L69,361.135L78.667,361.009L88.333,360.872L98,360.723L107.667,360.562L117.333,360.389L127,360.202L136.667,360.001L146.333,359.787L156,359.558L165.667,359.316L175.333,359.06L185,358.79L194.667,358.508L204.333,358.214L214,357.908L223.667,357.594L233.333,357.271L243,356.941L252.667,356.607L262.333,356.27L272,355.932L281.667,355.595L291.333,355.261L301,354.931L310.667,354.608L320.333,354.294L330,353.989L339.667,353.694L349.333,353.412L359,353.142L368.667,352.886L378.333,352.644L388,352.415L397.667,352.201L407.333,352L417,351.813L426.667,351.64L436.333,351.479L446,351.33L455.667,351.193L465.333,351.068L475,350.952L484.667,350.847L494.333,350.75L504,350.75L513.667,350.75L523.333,350.75L533,350.75L542.667,350.75L552.333,350.75L562,350.75L571.667,350.75L581.333,350.75L591,350.75L600.667,350.75L610.333,350.75L620,350.75L620,361.25L610.333,361.25L600.667,361.25L591,361.25L581.333,361.25L571.667,361.25L562,361.25L552.333,361.25L542.667,361.25L533,361.25L523.333,361.25L513.667,361.25L504,361.25L494.333,361.25L484.667,361.25L475,361.25L465.333,361.25L455.667,361.25L446,361.25L436.333,361.25L426.667,361.25L417,361.25L407.333,361.25L397.667,361.25L388,361.25L378.333,361.25L368.667,361.25L359,361.25L349.333,361.25L339.667,361.25L330,361.25L320.333,361.25L310.667,361.25L301,361.25L291.333,361.25L281.667,361.25L272,361.25L262.333,361.25L252.667,361.25L243,361.25L233.333,361.25L223.667,361.25L214,361.25L204.333,361.25L194.667,361.25L185,361.25L175.333,361.25L165.667,361.25L156,361.25L146.333,361.25L136.667,361.25L127,361.25L117.333,361.25L107.667,361.25L98,361.25L88.333,361.25L78.667,361.25L69,361.25L59.333,361.25L49.667,361.25L40,361.25Z"/><path fill="#9467bd" d="M40,345.5L49.667,345.5L59.333,345.5L69,345.385L78.667,345.259L88.333,345.122L98,344.973L107.667,344.812L117.333,344.639L127,344.452L136.667,344.251L146.333,344.037L156,343.808L165.667,343.566L175.333,343.31L185,343.04L194.667,342.758L204.333,342.464L214,342.158L223.667,341.844L233.333,341.521L243,341.191L252.667,340.857L262.333,340.52L272,340.182L281.667,339.845L291.333,339.511L301,339.181L310.667,338.858L320.333,338.544L330,338.239L339.667,337.944L349.333,337.662L359,337.392L368.667,337.136L378.333,336.894L388,336.665L397.667,336.451L407.333,336.25L417,336.063L426.667,335.89L436.333,335.729L446,335.58L455.667,335.443L465.333,335.318L475,335.202L484.667,335.097L494.333,335L504,335L513.667,335L523.333,335L533,335L542.667,335L552.333,335L562,335L571.667,335L581.333,335L591,335L600.667,335L610.333,335L620,335L620,350.75L610.333,350.75L600.667,350.75L591,350.75L581.333,350.75L571.667,350.75L562,350.75L552.333,350.75L542.667,350.75L533,350.75L523.333,350.75L513.667,350.75L504,350.75L494.333,350.75L484.667,350.847L475,350.952L465.333,351.068L455.667,351.193L446,351.33L436.333,351.479L426.667,351.64L417,351.813L407.333,352L397.667,352.201L388,352.415L378.333,352.644L368.667,352.886L359,353.142L349.333,353.412L339.667,353.694L330,353.989L320.333,354.294L310.667,354.608L301,354.931L291.333,355.261L281.667,355.595L272,355.932L262.333,356.27L252.667,356.607L243,356.941L233.333,357.271L223.667,357.594L214,357.908L204.333,358.214L194.667,358.508L185,358.79L175.333,359.06L165.667,359.316L156,359.558L146.333,359.787L136.667,360.001L127,360.202L117.333,360.389L107.667,360.562L98,360.723L88.333,360.872L78.667,361.009L69,361.135L59.333,361.25L49.667,361.25L40,361.25Z"/><path fill="#d62728" d="M40,345.5L49.667,345.5L59.333,345.5L69,345.192L78.667,344.857L88.333,344.492L98,344.095L107.667,343.667L117.333,343.203L127,342.705L136.667,342.17L146.333,341.598L156,340.989L165.667,340.342L175.333,339.659L185,338.94L194.667,338.187L204.333,337.403L214,336.589L223.667,335.75L233.333,334.889L243,334.011L252.667,333.119L262.333,332.22L272,331.319L281.667,330.42L291.333,329.528L301,328.65L310.667,327.789L320.333,326.95L330,326.136L339.667,325.352L349.333,324.599L359,323.88L368.667,323.197L378.333,322.55L388,321.941L397.667,321.369L407.333,320.834L417,320.336L426.667,319.873L436.333,319.444L446,319.047L455.667,318.682L465.333,318.347L475,318.039L484.667,317.757L494.333,317.5L504,317.5L513.667,317.5L523.333,317.5L533,317.5L542.667,317.5L552.333,317.5L562,317.5L571.667,317.5L581.333,317.5L591,317.5L600.667,317.5L610.333,317.5L620,317.5L620,335L610.333,335L600.667,335L591,335L581.333,335L571.667,335L562,335L552.333,335L542.667,335L533,335L523.333,335L513.667,335L504,335L494.333,335L484.667,335.097L475,335.202L465.333,335.318L455.667,335.443L446,335.58L436.333,335.729L426.667,335.89L417,336.063L407.333,336.25L397.667,336.451L388,336.665L378.333,336.894L368.667,337.136L359,337.392L349.333,337.662L339.667,337.944L330,338.239L320.333,338.544L310.667,338.858L301,339.181L291.333,339.511L281.667,339.845L272,340.182L262.333,340.52L252.667,340.857L243,341.191L233.333,341.521L223.667,341.844L214,342.158L204.333,342.464L194.667,342.758L185,343.04L175.333,343.31L165.667,343.566L156,343.808L146.333,344.037L136.667,344.251L127,344.452L117.333,344.639L107.667,344.812L98,344.973L88.333,345.122L78.667,345.259L69,345.385L59.333,345.5L49.667,345.5L40,345.5Z"/><path fill="#2ca02c" d="M40,345.5L49.667,345.5L59.333,345.5L69,345L78.667,344.455L88.333,343.861L98,343.218L107.667,342.521L117.333,341.768L127,340.958L136.667,340.089L146.333,339.16L156,338.169L165.667,337.119L175.333,336.009L185,334.84L194.667,333.617L204.333,332.342L214,331.02L223.667,329.656L233.333,328.257L243,326.83L252.667,325.381L262.333,323.921L272,322.455L281.667,320.995L291.333,319.546L301,318.119L310.667,316.72L320.333,315.356L330,314.034L339.667,312.759L349.333,311.536L359,310.367L368.667,309.257L378.333,308.207L388,307.216L397.667,306.287L407.333,305.418L417,304.608L426.667,303.855L436.333,303.158L446,302.515L455.667,301.921L465.333,301.376L475,300.876L484.667,300.418L494.333,300L504,300L513.667,300L523.333,300L533,300L542.667,300L552.333,300L562,300L571.667,300L581.333,300L591,300L600.667,300L610.333,300L620,300L620,317.5L610.333,317.5L600.667,317.5L591,317.5L581.333,317.5L571.667,317.5L562,317.5L552.333,317.5L542.667,317.5L533,317.5L523.333,317.5L513.667,317.5L504,317.5L494.333,317.5L484.667,317.757L475,318.039L465.333,318.347L455.667,318.682L446,319.047L436.333,319.444L426.667,319.873L417,320.336L407.333,320.834L397.667,321.369L388,321.941L378.333,322.55L368.667,323.197L359,323.88L349.333,324.599L339.667,325.352L330,326.136L320.333,326.95L310.667,327.789L301,328.65L291.333,329.528L281.667,330.42L272,331.319L262.333,332.22L252.667,333.119L243,334.011L233.333,334.889L223.667,335.75L214,336.589L204.333,337.403L194.667,338.187L185,338.94L175.333,339.659L165.667,340.342L156,340.989L146.333,341.598L136.667,342.17L127,342.705L117.333,343.203L107.667,343.667L98,344.095L88.333,344.492L78.667,344.857L69,345.192L59.333,345.5L49.667,345.5L40,345.5Z"/><path fill="#ff7f0e" d="M40,345.5L49.667,345.5L59.333,345.5L69,343.461L78.667,341.238L88.333,338.82L98,336.195L107.667,333.353L117.333,330.285L127,326.983L136.667,323.439L146.333,319.65L156,315.614L165.667,311.331L175.333,306.804L185,302.042L194.667,297.054L204.333,291.856L214,286.466L223.667,280.907L233.333,275.203L243,269.383L252.667,263.478L262.333,257.522L272,251.549L281.667,245.593L291.333,239.689L301,233.869L310.667,228.165L320.333,222.605L330,217.215L339.667,212.017L349.333,207.03L359,202.267L368.667,197.741L378.333,193.457L388,189.421L397.667,185.632L407.333,182.089L417,178.786L426.667,175.718L436.333,172.876L446,170.251L455.667,167.833L465.333,165.61L475,163.571L484.667,161.705L494.333,160L504,160L513.667,160L523.333,160L533,160L542.667,160L552.333,160L562,160L571.667,160L581.333,160L591,160L600.667,160L610.333,160L620,160L620,300L610.333,300L600.667,300L591,300L581.333,300L571.667,300L562,300L552.333,300L542.667,300L533,300L523.333,300L513.667,300L504,300L494.333,300L484.667,300.418L475,300.876L465.333,301.376L455.667,301.921L446,302.515L436.333,303.158L426.667,303.855L417,304.608L407.333,305.418L397.667,306.287L388,307.216L378.333,308.207L368.667,309.257L359,310.367L349.333,311.536L339.667,312.759L330,314.034L320.333,315.356L310.667,316.72L301,318.119L291.333,319.546L281.667,320.995L272,322.455L262.333,323.921L252.667,325.381L243,326.83L233.333,328.257L223.667,329.656L214,331.02L204.333,332.342L194.667,333.617L185,334.84L175.333,336.009L165.667,337.119L156,338.169L146.333,339.16L136.667,340.089L127,340.958L117.333,341.768L107.667,342.521L98,343.218L88.333,343.861L78.667,344.455L69,345L59.333,345.5L49.667,345.5L40,345.5Z"/><path fill="#1f77b4" d="M40,335.7L49.667,334.671L59.333,333.544L69,330.273L78.667,326.705L88.333,322.821L98,318.605L107.667,314.037L117.333,309.104L127,303.79L136.667,298.085L146.333,291.981L156,285.474L165.667,278.563L175.333,271.255L185,263.559L194.667,255.492L204.333,247.077L214,238.343L223.667,229.324L233.333,220.062L243,210.602L252.667,200.994L262.333,191.291L272,181.549L281.667,171.824L291.333,162.173L301,152.65L310.667,143.305L320.333,134.187L330,125.339L339.667,116.796L349.333,108.592L359,100.75L368.667,93.29L378.333,86.225L388,79.561L397.667,73.301L407.333,67.443L417,61.979L426.667,56.9L436.333,52.192L446,47.842L455.667,43.832L465.333,40.144L475,36.76L484.667,33.661L494.333,30.829L504,29.8L513.667,28.862L523.333,28.008L533,27.232L542.667,26.528L552.333,25.889L562,25.31L571.667,24.786L581.333,24.312L591,23.884L600.667,23.497L610.333,23.148L620,22.833L620,160L610.333,160L600.667,160L591,160L581.333,160L571.667,160L562,160L552.333,160L542.667,160L533,160L523.333,160L513.667,160L504,160L494.333,160L484.667,161.705L475,163.571L465.333,165.61L455.667,167.833L446,170.251L436.333,172.876L426.667,175.718L417,178.786L407.333,182.089L397.667,185.632L388,189.421L378.333,193.457L368.667,197.741L359,202.267L349.333,207.03L339.667,212.017L330,217.215L320.333,222.605L310.667,228.165L301,233.869L291.333,239.689L281.667,245.593L272,251.549L262.333,257.522L252.667,263.478L243,269.383L233.333,275.203L223.667,280.907L214,286.466L204.333,291.856L194.667,297.054L185,302.042L175.333,306.804L165.667,311.331L156,315.614L146.333,319.65L136.667,323.439L127,326.983L117.333,330.285L107.667,333.353L98,336.195L88.333,338.82L78.667,341.238L69,343.461L59.333,345.5L49.667,345.5L40,345.5Z"/></g></g></svg></svg>