<svg width="660" height="462.75" viewBox="-10,-10,660,462.75" xmlns="http://www.w3.org/2000/svg" xmlns:xlink="http://www.w3.org/1999/xlink"><svg width="894" height="35" x="0" y="0"><g transform="translate(2.8000000000000007,19)"><svg width="15" height="15" fill="#1f77b4" y="-7.5px"><rect width="100%" height="100%"/></svg><text x="15" dx="5" dy="0.38em" font-family="system-ui, sans-serif" font-size="10px" fill="rgb(27, 30, 35)">Incentives</text></g><g transform="translate(91.50000610351562,19)"><svg width="15" height="15" fill="#ff7f0e" y="-7.5px"><rect width="100%" height="100%"/></svg><text x="15" dx="5" dy="0.38em" font-family="system-ui, sans-serif" font-size="10px" fill="rgb(27, 30, 35)">Klima Holders</text></g><g transform="translate(201.05999145507812,19)"><svg width="15" height="15" fill="#2ca02c" y="-7.5px"><rect width="100%" height="100%"/></svg><text x="15" dx="5" dy="0.38em" font-family="system-ui, sans-serif" font-size="10px" fill="rgb(27, 30, 35)">Product Design</text></g><g transform="translate(318.3000244140625,19)"><svg width="15" height="15" fill="#d62728" y="-7.5px"><rect width="100%" height="100%"/></svg><text x="15" dx="5" dy="0.38em" font-family="system-ui, sans-serif" font-size="10px" fill="rgb(27, 30, 35)">Ecosystem Grant</text></g><g transform="translate(442.3,19)"><svg width="15" height="15" fill="#9467bd" y="-7.5px"><rect width="100%" height="100%"/></svg><text x="15" dx="5" dy="0.38em" font-family="system-ui, sans-serif" font-size="10px" fill="rgb(27, 30, 35)">DAO/Treasury</text></g><g transform="translate(551.3200073242188,19)"><svg width="15" height="15" fill="#8c564b" y="-7.5px"><rect width="100%" height="100%"/></svg><text x="15" dx="5" dy="0.38em" font-family="system-ui, sans-serif" font-size="10px" fill="rgb(27, 30, 35)">pKlima Holders</text></g><g transform="translate(667.9399902343749,19)"><svg width="15" height="15" fill="#e377c2" y="-7.5px"><rect width="100%" height="100%"/></svg><text x="15" dx="5" dy="0.38em" font-family="system-ui, sans-serif" font-size="10px" fill="rgb(27, 30, 35)">01X</text></g></svg><svg class="plot-d6a7b5" fill="currentColor" font-family="system-ui, sans-serif" font-size="10" text-anchor="middle" width="640" height="400" viewBox="0 0 640 400" x="0" y="42.75"><style>:where(.plot-d6a7b5) {
  --plot-background: white;
  display: block;
  height: auto;
  height: intrinsic;
  max-width: 100%;
}
:where(.plot-d6a7b5 text),
:where(.plot-d6a7b5 tspan) {
  white-space: pre;
}</style><g aria-label="y-grid" aria-hidden="true" stroke="currentColor" stroke-opacity="0.1" transform="translate(0,0.5)"><line x1="40" x2="620" y1="370" y2="370"/><line x1="40" x2="620" y1="328.25" y2="328.25"/><line x1="40" x2="620" y1="286.5" y2="286.5"/><line x1="40" x2="620" y1="244.75" y2="244.75"/><line x1="40" x2="620" y1="203.00000000000003" y2="203.00000000000003"/><line x1="40" x2="620" y1="161.25000000000003" y2="161.25000000000003"/><line x1="40" x2="620" y1="119.50000000000004" y2="119.50000000000004"/><line x1="40" x2="620" y1="77.75000000000004" y2="77.75000000000004"/><line x1="40" x2="620" y1="36.00000000000008" y2="36.00000000000008"/></g><g aria-label="y-axis tick" aria-hidden="true" fill="none" stroke="currentColor" transform="translate(0,0.5)"><path transform="translate(40,370)" d="M0,0L-6,0"/><path transform="translate(40,328.25)" d="M0,0L-6,0"/><path transform="translate(40,286.5)" d="M0,0L-6,0"/><path transform="translate(40,244.75)" d="M0,0L-6,0"/><path transform="translate(40,203.00000000000003)" d="M0,0L-6,0"/><path transform="translate(40,161.25000000000003)" d="M0,0L-6,0"/><path transform="translate(40,119.50000000000004)" d="M0,0L-6,0"/><path transform="translate(40,77.75000000000004)" d="M0,0L-6,0"/><path transform="translate(40,36.00000000000008)" d="M0,0L-6,0"/></g><g aria-label="y-axis tick label" text-anchor="end" font-variant="tabular-nums" transform="translate(-8.5,0.5)"><text y="0.32em" transform="translate(40,370)">0</text><text y="0.32em" transform="translate(40,328.25)">5</text><text y="0.32em" transform="translate(40,286.5)">10</text><text y="0.32em" transform="translate(40,244.75)">15</text><text y="0.32em" transform="translate(40,203.00000000000003)">20</text><text y="0.32em" transform="translate(40,161.25000000000003)">25</text><text y="0.32em" transform="translate(40,119.50000000000004)">30</text><text y="0.32em" transform="translate(40,77.75000000000004)">35</text><text y="0.32em" transform="translate(40,36.00000000000008)">40</text></g><g aria-label="y-axis label" text-anchor="start" transform="translate(-36.5,-16.5)"><text y="0.71em" transform="translate(40,20)">↑ Total Supply (%)</text></g><g aria-label="x-grid" aria-hidden="true" stroke="currentColor" stroke-opacity="0.1" transform="translate(0.5,0)"><line x1="40" x2="40" y1="20" y2="370"/><line x1="156" x2="156" y1="20" y2="370"/><line x1="272" x2="272" y1="20" y2="370"/><line x1="388" x2="388" y1="20" y2="370"/><line x1="504" x2="504" y1="20" y2="370"/><line x1="620" x2="620" y1="20" y2="370"/></g><g aria-label="x-axis tick" aria-hidden="true" fill="none" stroke="currentColor" transform="translate(0.5,0)"><path transform="translate(40,370)" d="M0,0L0,6"/><path transform="translate(156,370)" d="M0,0L0,6"/><path transform="translate(272,370)" d="M0,0L0,6"/><path transform="translate(388,370)" d="M0,0L0,6"/><path transform="translate(504,370)" d="M0,0L0,6"/><path transform="translate(620,370)" d="M0,0L0,6"/></g><g aria-label="x-axis tick label" font-variant="tabular-nums" transform="translate(0.5,9.5)"><text y="0.71em" transform="translate(40,370)">0</text><text y="0.71em" transform="translate(156,370)">12</text><text y="0.71em" transform="translate(272,370)">24</text><text y="0.71em" transform="translate(388,370)">36</text><text y="0.71em" transform="translate(504,370)">48</text><text y="0.71em" transform="translate(620,370)">60</text></g><g aria-label="x-axis label" text-anchor="end" transform="translate(17.5,27.5)"><text transform="translate(620,370)">Time (Months) →</text></g><rect aria-label="frame" fill="none" stroke="currentColor" transform="translate(0.5,0.5)" x="40" y="20" width="580" height="350"/><clipPath id="plot-clip-27"><rect x="40" y="20" width="580" height="350"/></clipPath><g aria-label="line" clip-path="url(#plot-clip-27)"><g fill="none" stroke-width="2" stroke-linejoin="round" stroke-linecap="round" transform="translate(0.5,0.5)"><path stroke="#e377c2" d="M40,349.125L49.667,349.125L59.333,349.125L69,349.125L78.667,349.125L88.333,349.125L98,349.125L107.667,349.125L117.333,349.125L127,349.125L136.667,349.125L146.333,349.125L156,349.125L165.667,349.125L175.333,349.125L185,349.125L194.667,349.125L204.333,349.125L214,349.125L223.667,349.125L233.333,349.125L243,349.125L252.667,349.125L262.333,349.125L272,349.125L281.667,349.125L291.333,349.125L301,349.125L310.667,349.125L320.333,349.125L330,349.125L339.667,349.125L349.333,349.125L359,349.125L368.667,349.125L378.333,349.125L388,349.125L397.667,349.125L407.333,349.125L417,349.125L426.667,349.125L436.333,349.125L446,349.125L455.667,349.125L465.333,349.125L475,349.125L484.667,349.125L494.333,349.125L504,349.125L513.667,349.125L523.333,349.125L533,349.125L542.667,349.125L552.333,349.125L562,349.125L571.667,349.125L581.333,349.125L591,349.125L600.667,349.125L610.333,349.125L620,349.125"/><path stroke="#8c564b" d="M40,370L49.667,370L59.333,370L69,369.725L78.667,369.425L88.333,369.098L98,368.743L107.667,368.36L117.333,367.945L127,367.499L136.667,367.021L146.333,366.509L156,365.964L165.667,365.386L175.333,364.774L185,364.131L194.667,363.458L204.333,362.756L214,362.028L223.667,361.277L233.333,360.507L243,359.721L252.667,358.924L262.333,358.119L272,357.313L281.667,356.509L291.333,355.711L301,354.925L310.667,354.155L320.333,353.404L330,352.676L339.667,351.974L349.333,351.301L359,350.658L368.667,350.047L378.333,349.468L388,348.923L397.667,348.411L407.333,347.933L417,347.487L426.667,347.073L436.333,346.689L446,346.334L455.667,346.008L465.333,345.708L475,345.432L484.667,345.18L494.333,344.95L504,344.95L513.667,344.95L523.333,344.95L533,344.95L542.667,344.95L552.333,344.95L562,344.95L571.667,344.95L581.333,344.95L591,344.95L600.667,344.95L610.333,344.95L620,344.95"/><path stroke="#9467bd" d="M40,332.425L49.667,332.425L59.333,332.425L69,332.425L78.667,332.425L88.333,332.425L98,332.425L107.667,332.425L117.333,332.425L127,332.425L136.667,332.425L146.333,332.425L156,332.425L165.667,332.425L175.333,332.425L185,332.425L194.667,332.425L204.333,332.425L214,332.425L223.667,332.425L233.333,332.425L243,332.425L252.667,332.425L262.333,332.425L272,332.425L281.667,332.425L291.333,332.425L301,332.425L310.667,332.425L320.333,332.425L330,332.425L339.667,332.425L349.333,332.425L359,332.425L368.667,332.425L378.333,332.425L388,332.425L397.667,332.425L407.333,332.425L417,332.425L426.667,332.425L436.333,332.425L446,332.425L455.667,332.425L465.333,332.425L475,332.425L484.667,332.425L494.333,332.425L504,332.425L513.667,332.425L523.333,332.425L533,332.425L542.667,332.425L552.333,332.425L562,332.425L571.667,332.425L581.333,332.425L591,332.425L600.667,332.425L610.333,332.425L620,332.425"/><path stroke="#d62728" d="M40,370L49.667,370L59.333,370L69,369.541L78.667,369.041L88.333,368.497L98,367.906L107.667,367.266L117.333,366.576L127,365.832L136.667,365.035L146.333,364.182L156,363.274L165.667,362.31L175.333,361.291L185,360.219L194.667,359.096L204.333,357.927L214,356.713L223.667,355.462L233.333,354.178L243,352.868L252.667,351.54L262.333,350.199L272,348.855L281.667,347.514L291.333,346.185L301,344.875L310.667,343.592L320.333,342.34L330,341.127L339.667,339.957L349.333,338.835L359,337.763L368.667,336.744L378.333,335.78L388,334.872L397.667,334.019L407.333,333.221L417,332.478L426.667,331.788L436.333,331.148L446,330.557L455.667,330.013L465.333,329.513L475,329.054L484.667,328.634L494.333,328.25L504,328.25L513.667,328.25L523.333,328.25L533,328.25L542.667,328.25L552.333,328.25L562,328.25L571.667,328.25L581.333,328.25L591,328.25L600.667,328.25L610.333,328.25L620,328.25"/><path stroke="#2ca02c" d="M40,370L49.667,370L59.333,370L69,369.541L78.667,369.041L88.333,368.497L98,367.906L107.667,367.266L117.333,366.576L127,365.832L136.667,365.035L146.333,364.182L156,363.274L165.667,362.31L175.333,361.291L185,360.219L194.667,359.096L204.333,357.927L214,356.713L223.667,355.462L233.333,354.178L243,352.868L252.667,351.54L262.333,350.199L272,348.855L281.667,347.514L291.333,346.185L301,344.875L310.667,343.592L320.333,342.34L330,341.127L339.667,339.957L349.333,338.835L359,337.763L368.667,336.744L378.333,335.78L388,334.872L397.667,334.019L407.333,333.221L417,332.478L426.667,331.788L436.333,331.148L446,330.557L455.667,330.013L465.333,329.513L475,329.054L484.667,328.634L494.333,328.25L504,328.25L513.667,328.25L523.333,328.25L533,328.25L542.667,328.25L552.333,328.25L562,328.25L571.667,328.25L581.333,328.25L591,328.25L600.667,328.25L610.333,328.25L620,328.25"/><path stroke="#ff7f0e" d="M40,370L49.667,370L59.333,370L69,366.329L78.667,362.327L88.333,357.972L98,353.246L107.667,348.129L117.333,342.605L127,336.659L136.667,330.279L146.333,323.457L156,316.189L165.667,308.477L175.333,300.327L185,291.752L194.667,282.772L204.333,273.413L214,263.708L223.667,253.697L233.333,243.427L243,232.948L252.667,222.317L262.333,211.593L272,200.838L281.667,190.114L291.333,179.483L301,169.004L310.667,158.733L320.333,148.723L330,139.018L339.667,129.659L349.333,120.679L359,112.104L368.667,103.954L378.333,96.241L388,88.974L397.667,82.152L407.333,75.771L417,69.825L426.667,64.301L436.333,59.184L446,54.458L455.667,50.104L465.333,46.101L475,42.43L484.667,39.07L494.333,36L504,36L513.667,36L523.333,36L533,36L542.667,36L552.333,36L562,36L571.667,36L581.333,36L591,36L600.667,36L610.333,36L620,36"/><path stroke="#1f77b4" d="M40,346.62L49.667,344.165L59.333,341.476L69,338.536L78.667,335.327L88.333,331.832L98,328.034L107.667,323.917L117.333,319.467L127,314.669L136.667,309.512L146.333,303.989L156,298.094L165.667,291.826L175.333,285.189L185,278.19L194.667,270.844L204.333,263.169L214,255.191L223.667,246.939L233.333,238.451L243,229.766L252.667,220.93L262.333,211.991L272,203L281.667,194.009L291.333,185.07L301,176.234L310.667,167.549L320.333,159.061L330,150.809L339.667,142.831L349.333,135.156L359,127.81L368.667,120.811L378.333,114.174L388,107.906L397.667,102.011L407.333,96.488L417,91.331L426.667,86.533L436.333,82.083L446,77.966L455.667,74.168L465.333,70.673L475,67.464L484.667,64.524L494.333,61.835L504,59.38L513.667,57.142L523.333,55.106L533,53.255L542.667,51.574L552.333,50.049L562,48.668L571.667,47.418L581.333,46.288L591,45.266L600.667,44.343L610.333,43.509L620,42.758"/></g></g><g aria-label="area" clip-path="url(#plot-clip-27)"><g fill-opacity="0.2"><path fill="#e377c2" d="M40,349.125L49.667,349.125L59.333,349.125L69,349.125L78.667,349.125L88.333,349.125L98,349.125L107.667,349.125L117.333,349.125L127,349.125L136.667,349.125L146.333,349.125L156,349.125L165.667,349.125L175.333,349.125L185,349.125L194.667,349.125L204.333,349.125L214,349.125L223.667,349.125L233.333,349.125L243,349.125L252.667,349.125L262.333,349.125L272,349.125L281.667,349.125L291.333,349.125L301,349.125L310.667,349.125L320.333,349.125L330,349.125L339.667,349.125L349.333,349.125L359,349.125L368.667,349.125L378.333,349.125L388,349.125L397.667,349.125L407.333,349.125L417,349.125L426.667,349.125L436.333,349.125L446,349.125L455.667,349.125L465.333,349.125L475,349.125L484.667,349.125L494.333,349.125L504,349.125L513.667,349.125L523.333,349.125L533,349.125L542.667,349.125L552.333,349.125L562,349.125L571.667,349.125L581.333,349.125L591,349.125L600.667,349.125L610.333,349.125L620,349.125L620,370L610.333,370L600.667,370L591,370L581.333,370L571.667,370L562,370L552.333,370L542.667,370L533,370L523.333,370L513.667,370L504,370L494.333,370L484.667,370L475,370L465.333,370L455.667,370L446,370L436.333,370L426.667,370L417,370L407.333,370L397.667,370L388,370L378.333,370L368.667,370L359,370L349.333,370L339.667,370L330,370L320.333,370L310.667,370L301,370L291.333,370L281.667,370L272,370L262.333,370L252.667,370L243,370L233.333,370L223.667,370L214,370L204.333,370L194.667,370L185,370L175.333,370L165.667,370L156,370L146.333,370L136.667,370L127,370L117.333,370L107.667,370L98,370L88.333,370L78.667,370L69,370L59.333,370L49.667,370L40,370Z"/><path fill="#8c564b" d="M40,370L49.667,370L59.333,370L69,369.725L78.667,369.425L88.333,369.098L98,368.743L107.667,368.36L117.333,367.945L127,367.499L136.667,367.021L146.333,366.509L156,365.964L165.667,365.386L175.333,364.774L185,364.131L194.667,363.458L204.333,362.756L214,362.028L223.667,361.277L233.333,360.507L243,359.721L252.667,358.924L262.333,358.119L272,357.313L281.667,356.509L291.333,355.711L301,354.925L310.667,354.155L320.333,353.404L330,352.676L339.667,351.974L349.333,351.301L359,350.658L368.667,350.047L378.333,349.468L388,348.923L397.667,348.411L407.333,347.933L417,347.487L426.667,347.073L436.333,346.689L446,346.334L455.667,346.008L465.333,345.708L475,345.432L484.667,345.18L494.333,344.95L504,344.95L513.667,344.95L523.333,344.95L533,344.95L542.667,344.95L552.333,344.95L562,344.95L571.667,344.95L581.333,344.95L591,344.95L600.667,344.95L610.333,344.95L620,344.95L620,370L610.333,370L600.667,370L591,370L581.333,370L571.667,370L562,370L552.333,370L542.667,370L533,370L523.333,370L513.667,370L504,370L494.333,370L484.667,370L475,370L465.333,370L455.667,370L446,370L436.333,370L426.667,370L417,370L407.333,370L397.667,370L388,370L378.333,370L368.667,370L359,370L349.333,370L339.667,370L330,370L320.333,370L310.667,370L301,370L291.333,370L281.667,370L272,370L262.333,370L252.667,370L243,370L233.333,370L223.667,370L214,370L204.333,370L194.667,370L185,370L175.333,370L165.667,370L156,370L146.333,370L136.667,370L127,370L117.333,370L107.667,370L98,370L88.333,370L78.667,370L69,370L59.333,370L49.667,370L40,370Z"/><path fill="#9467bd" d="M40,332.425L49.667,332.425L59.333,332.425L69,332.425L78.667,332.425L88.333,332.425L98,332.425L107.667,332.425L117.333,332.425L127,332.425L136.667,332.425L146.333,332.425L156,332.425L165.667,332.425L175.333,332.425L185,332.425L194.667,332.425L204.333,332.425L214,332.425L223.667,332.425L233.333,332.425L243,332.425L252.667,332.425L262.333,332.425L272,332.425L281.667,332.425L291.333,332.425L301,332.425L310.667,332.425L320.333,332.425L330,332.425L339.667,332.425L349.333,332.425L359,332.425L368.667,332.425L378.333,332.425L388,332.425L397.667,332.425L407.333,332.425L417,332.425L426.667,332.425L436.333,332.425L446,332.425L455.667,332.425L465.333,332.425L475,332.425L484.667,332.425L494.333,332.425L504,332.425L513.667,332.425L523.333,332.425L533,332.425L542.667,332.425L552.333,332.425L562,332.425L571.667,332.425L581.333,332.425L591,332.425L600.667,332.425L610.333,332.425L620,332.425L620,370L610.333,370L600.667,370L591,370L581.333,370L571.667,370L562,370L552.333,370L542.667,370L533,370L523.333,370L513.667,370L504,370L494.333,370L484.667,370L475,370L465.333,370L455.667,370L446,370L436.333,370L426.667,370L417,370L407.333,370L397.667,370L388,370L378.333,370L368.667,370L359,370L349.333,370L339.667,370L330,370L320.333,370L310.667,370L301,370L291.333,370L281.667,370L272,370L262.333,370L252.667,370L243,370L233.333,370L223.667,370L214,370L204.333,370L194.667,370L185,370L175.333,370L165.667,370L156,370L146.333,370L136.667,370L127,370L117.333,370L107.667,370L98,370L88.333,370L78.667,370L69,370L59.333,370L49.667,370L40,370Z"/><path fill="#d62728" d="M40,370L49.667,370L59.333,370L69,369.541L78.667,369.041L88.333,368.497L98,367.906L107.667,367.266L117.333,366.576L127,365.832L136.667,365.035L146.333,364.182L156,363.274L165.667,362.31L175.333,361.291L185,360.219L194.667,359.096L204.333,357.927L214,356.713L223.667,355.462L233.333,354.178L243,352.868L252.667,351.54L262.333,350.199L272,348.855L281.667,347.514L291.333,346.185L301,344.875L310.667,343.592L320.333,342.34L330,341.127L339.667,339.957L349.333,338.835L359,337.763L368.667,336.744L378.333,335.78L388,334.872L397.667,334.019L407.333,333.221L417,332.478L426.667,331.788L436.333,331.148L446,330.557L455.667,330.013L465.333,329.513L475,329.054L484.667,328.634L494.333,328.25L504,328.25L513.667,328.25L523.333,328.25L533,328.25L542.667,328.25L552.333,328.25L562,328.25L571.667,328.25L581.333,328.25L591,328.25L600.667,328.25L610.333,328.25L620,328.25L620,370L610.333,370L600.667,370L591,370L581.333,370L571.667,370L562,370L552.333,370L542.667,370L533,370L523.333,370L513.667,370L504,370L494.333,370L484.667,370L475,370L465.333,370L455.667,370L446,370L436.333,370L426.667,370L417,370L407.333,370L397.667,370L388,370L378.333,370L368.667,370L359,370L349.333,370L339.667,370L330,370L320.333,370L310.667,370L301,370L291.333,370L281.667,370L272,370L262.333,370L252.667,370L243,370L233.333,370L223.667,370L214,370L204.333,370L194.667,370L185,370L175.333,370L165.667,370L156,370L146.333,370L136.667,370L127,370L117.333,370L107.667,370L98,370L88.333,370L78.667,370L69,370L59.333,370L49.667,370L40,370Z"/><path fill="#2ca02c" d="M40,370L49.667,370L59.333,370L69,369.541L78.667,369.041L88.333,368.497L98,367.906L107.667,367.266L117.333,366.576L127,365.832L136.667,365.035L146.333,364.182L156,363.274L165.667,362.31L175.333,361.291L185,360.219L194.667,359.096L204.333,357.927L214,356.713L223.667,355.462L233.333,354.178L243,352.868L252.667,351.54L262.333,350.199L272,348.855L281.667,347.514L291.333,346.185L301,344.875L310.667,343.592L320.333,342.34L330,341.127L339.667,339.957L349.333,338.835L359,337.763L368.667,336.744L378.333,335.78L388,334.872L397.667,334.019L407.333,333.221L417,332.478L426.667,331.788L436.333,331.148L446,330.557L455.667,330.013L465.333,329.513L475,329.054L484.667,328.634L494.333,328.25L504,328.25L513.667,328.25L523.333,328.25L533,328.25L542.667,328.25L552.333,328.25L562,328.25L571.667,328.25L581.333,328.25L591,328.25L600.667,328.25L610.333,328.25L620,328.25L620,370L610.333,370L600.667,370L591,370L581.333,370L571.667,370L562,370L552.333,370L542.667,370L533,370L523.333,370L513.667,370L504,370L494.333,370L484.667,370L475,370L465.333,370L455.667,370L446,370L436.333,370L426.667,370L417,370L407.333,370L397.667,370L388,370L378.333,370L368.667,370L359,370L349.333,370L339.667,370L330,370L320.333,370L310.667,370L301,370L291.333,370L281.667,370L272,370L262.333,370L252.667,370L243,370L233.333,370L223.667,370L214,370L204.333,370L194.667,370L185,370L175.333,370L165.667,370L156,370L146.333,370L136.667,370L127,370L117.333,370L107.667,370L98,370L88.333,370L78.667,370L69,370L59.333,370L49.667,370L40,370Z"/><path fill="#ff7f0e" d="M40,370L49.667,370L59.333,370L69,366.329L78.667,362.327L88.333,357.972L98,353.246L107.667,348.129L117.333,342.605L127,336.659L136.667,330.279L146.333,323.457L156,316.189L165.667,308.477L175.333,300.327L185,291.752L194.667,282.772L204.333,273.413L214,263.708L223.667,253.697L233.333,243.427L243,232.948L252.667,222.317L262.333,211.593L272,200.838L281.667,190.114L291.333,179.483L301,169.004L310.667,158.733L320.333,148.723L330,139.018L339.667,129.659L349.333,120.679L359,112.104L368.667,103.954L378.333,96.241L388,88.974L397.667,82.152L407.333,75.771L417,69.825L426.667,64.301L436.333,59.184L446,54.458L455.667,50.104L465.333,46.101L475,42.43L484.667,39.07L494.333,36L504,36L513.667,36L523.333,36L533,36L542.667,36L552.333,36L562,36L571.667,36L581.333,36L591,36L600.667,36L610.333,36L620,36L620,370L610.333,370L600.667,370L591,370L581.333,370L571.667,370L562,370L552.333,370L542.667,370L533,370L523.333,370L513.667,370L504,370L494.333,370L484.667,370L475,370L465.333,370L455.667,370L446,370L436.333,370L426.667,370L417,370L407.333,370L397.667,370L388,370L378.333,370L368.667,370L359,370L349.333,370L339.667,370L330,370L320.333,370L310.667,370L301,370L291.333,370L281.667,370L272,370L262.333,370L252.667,370L243,370L233.333,370L223.667,370L214,370L204.333,370L194.667,370L185,370L175.333,370L165.667,370L156,370L146.333,370L136.667,370L127,370L117.333,370L107.667,370L98,370L88.333,370L78.667,370L69,370L59.333,370L49.667,370L40,370Z"/><path fill="#1f77b4" d="M40,346.62L49.667,344.165L59.333,341.476L69,338.536L78.667,335.327L88.333,331.832L98,328.034L107.667,323.917L117.333,319.467L127,314.669L136.667,309.512L146.333,303.989L156,298.094L165.667,291.826L175.333,285.189L185,278.19L194.667,270.844L204.333,263.169L214,255.191L223.667,246.939L233.333,238.451L243,229.766L252.667,220.93L262.333,211.991L272,203L281.667,194.009L291.333,185.07L301,176.234L310.667,167.549L320.333,159.061L330,150.809L339.667,142.831L349.333,135.156L359,127.81L368.667,120.811L378.333,114.174L388,107.906L397.667,102.011L407.333,96.488L417,91.331L426.667,86.533L436.333,82.083L446,77.966L455.667,74.168L465.333,70.673L475,67.464L484.667,64.524L494.333,61.835L504,59.38L513.667,57.142L523.333,55.106L533,53.255L542.667,51.574L552.333,50.049L562,48.668L571.667,47.418L581.333,46.288L591,45.266L600.667,44.343L610.333,43.509L620,42.758L620,370L610.333,370L600.667,370L591,370L581.333,370L571.667,370L562,370L552.333,370L542.667,370L533,370L523.333,370L513.667,370L504,370L494.333,370L484.667,370L475,370L465.333,370L455.667,370L446,370L436.333,370L426.667,370L417,370L407.333,370L397.667,370L388,370L378.333,370L368.667,370L359,370L349.333,370L339.667,370L330,370L320.333,370L310.667,370L301,370L291.333,370L281.667,370L272,370L262.333,370L252.667,370L243,370L233.333,370L223.667,370L214,370L204.333,370L194.667,370L185,370L175.333,370L165.667,370L156,370L146.333,370L136.667,370L127,370L117.333,370L107.667,370L98,370L88.333,370L78.667,370L69,370L59.333,370L49.667,370L40,370Z"/></g></g></svg></svg>