<svg width="660" height="462.75" viewBox="-10,-10,660,462.75" xmlns="http://www.w3.org/2000/svg" xmlns:xlink="http://www.w3.org/1999/xlink"><svg width="894" height="35" x="0" y="0"><g transform="translate(2.8000000000000007,19)"><svg width="15" height="15" fill="#1f77b4" y="-7.5px"><rect width="100%" height="100%"/></svg><text x="15" dx="5" dy="0.38em" font-family="system-ui, sans-serif" font-size="10px" fill="rgb(27, 30, 35)">Stake A</text></g><g transform="translate(78.19999389648437,19)"><svg width="15" height="15" fill="#ff7f0e" y="-7.5px"><rect width="100%" height="100%"/></svg><text x="15" dx="5" dy="0.38em" font-family="system-ui, sans-serif" font-size="10px" fill="rgb(27, 30, 35)">Time-weighted Incentive Curve</text></g><g transform="translate(278.5,19)"><svg width="15" height="15" fill="#2ca02c" y="-7.5px"><rect width="100%" height="100%"/></svg><text x="15" dx="5" dy="0.38em" font-family="system-ui, sans-serif" font-size="10px" fill="rgb(27, 30, 35)">Inflation-adjusted Incentives</text></g><g transform="translate(464.2,19)"><svg width="15" height="15" fill="#d62728" y="-7.5px"><rect width="100%" height="100%"/></svg><text x="15" dx="5" dy="0.38em" font-family="system-ui, sans-serif" font-size="10px" fill="rgb(27, 30, 35)">D = 3.61 years</text></g><g transform="translate(576.1,19)"><svg width="15" height="15" fill="#9467bd" y="-7.5px"><rect width="100%" height="100%"/></svg><text x="15" dx="5" dy="0.38em" font-family="system-ui, sans-serif" font-size="10px" fill="rgb(27, 30, 35)">√C = 4.36 years</text></g></svg><svg class="plot-d6a7b5" fill="currentColor" font-family="system-ui, sans-serif" font-size="10" text-anchor="middle" width="640" height="400" viewBox="0 0 640 400" x="0" y="42.75"><style>:where(.plot-d6a7b5) {
  --plot-background: white;
  display: block;
  height: auto;
  height: intrinsic;
  max-width: 100%;
}
:where(.plot-d6a7b5 text),
:where(.plot-d6a7b5 tspan) {
  white-space: pre;
}</style><g aria-label="y-grid" aria-hidden="true" stroke="currentColor" stroke-opacity="0.1" transform="translate(0,0.5)"><line x1="40" x2="600" y1="370" y2="370"/><line x1="40" x2="600" y1="336.6307796420711" y2="336.6307796420711"/><line x1="40" x2="600" y1="303.2615592841422" y2="303.2615592841422"/><line x1="40" x2="600" y1="269.8923389262133" y2="269.8923389262133"/><line x1="40" x2="600" y1="236.5231185682844" y2="236.5231185682844"/><line x1="40" x2="600" y1="203.15389821035544" y2="203.15389821035544"/><line x1="40" x2="600" y1="169.78467785242654" y2="169.78467785242654"/><line x1="40" x2="600" y1="136.41545749449764" y2="136.41545749449764"/><line x1="40" x2="600" y1="103.04623713656875" y2="103.04623713656875"/><line x1="40" x2="600" y1="69.6770167786398" y2="69.6770167786398"/><line x1="40" x2="600" y1="36.3077964207109" y2="36.3077964207109"/></g><g aria-label="x-axis tick" aria-hidden="true" fill="none" stroke="currentColor" transform="translate(0.5,0)"><path transform="translate(88,370)" d="M0,0L0,6"/><path transform="translate(141.33333333333331,370)" d="M0,0L0,6"/><path transform="translate(194.66666666666669,370)" d="M0,0L0,6"/><path transform="translate(248,370)" d="M0,0L0,6"/><path transform="translate(301.3333333333333,370)" d="M0,0L0,6"/><path transform="translate(354.6666666666667,370)" d="M0,0L0,6"/><path transform="translate(408.00000000000006,370)" d="M0,0L0,6"/><path transform="translate(461.33333333333337,370)" d="M0,0L0,6"/><path transform="translate(514.6666666666667,370)" d="M0,0L0,6"/><path transform="translate(568,370)" d="M0,0L0,6"/></g><g aria-label="x-axis tick label" font-variant="tabular-nums" transform="translate(0.5,9.5)"><text y="0.71em" transform="translate(88,370)">1</text><text y="0.71em" transform="translate(141.33333333333331,370)">2</text><text y="0.71em" transform="translate(194.66666666666669,370)">3</text><text y="0.71em" transform="translate(248,370)">4</text><text y="0.71em" transform="translate(301.3333333333333,370)">5</text><text y="0.71em" transform="translate(354.6666666666667,370)">6</text><text y="0.71em" transform="translate(408.00000000000006,370)">7</text><text y="0.71em" transform="translate(461.33333333333337,370)">8</text><text y="0.71em" transform="translate(514.6666666666667,370)">9</text><text y="0.71em" transform="translate(568,370)">10</text></g><g aria-label="x-axis label" text-anchor="end" transform="translate(37.5,27.5)"><text transform="translate(600,370)">Time to Expiry (Years) →</text></g><rect aria-label="frame" fill="none" stroke="currentColor" transform="translate(0.5,0.5)" x="40" y="20" width="560" height="350"/><g aria-label="y-axis tick" aria-hidden="true" fill="none" stroke="currentColor" transform="translate(0,0.5)"><path transform="translate(40,370)" d="M0,0L-6,0"/><path transform="translate(40,336.6307796420711)" d="M0,0L-6,0"/><path transform="translate(40,303.2615592841422)" d="M0,0L-6,0"/><path transform="translate(40,269.8923389262133)" d="M0,0L-6,0"/><path transform="translate(40,236.5231185682844)" d="M0,0L-6,0"/><path transform="translate(40,203.15389821035544)" d="M0,0L-6,0"/><path transform="translate(40,169.78467785242654)" d="M0,0L-6,0"/><path transform="translate(40,136.41545749449764)" d="M0,0L-6,0"/><path transform="translate(40,103.04623713656875)" d="M0,0L-6,0"/><path transform="translate(40,69.6770167786398)" d="M0,0L-6,0"/><path transform="translate(40,36.3077964207109)" d="M0,0L-6,0"/></g><g aria-label="y-axis tick label" text-anchor="end" font-variant="tabular-nums" transform="translate(-8.5,0.5)"><text y="0.32em" transform="translate(40,370)">0</text><text y="0.32em" transform="translate(40,336.6307796420711)">1</text><text y="0.32em" transform="translate(40,303.2615592841422)">2</text><text y="0.32em" transform="translate(40,269.8923389262133)">3</text><text y="0.32em" transform="translate(40,236.5231185682844)">4</text><text y="0.32em" transform="translate(40,203.15389821035544)">5</text><text y="0.32em" transform="translate(40,169.78467785242654)">6</text><text y="0.32em" transform="translate(40,136.41545749449764)">7</text><text y="0.32em" transform="translate(40,103.04623713656875)">8</text><text y="0.32em" transform="translate(40,69.6770167786398)">9</text><text y="0.32em" transform="translate(40,36.3077964207109)">10</text></g><g aria-label="y-axis label" text-anchor="start" transform="translate(-36.5,-16.5)"><text y="0.71em" transform="translate(40,20)">↑ Stake A by Duration (%)</text></g><g aria-label="y-axis tick" aria-hidden="true" fill="none" stroke="currentColor" transform="translate(1,0.5)"><path transform="translate(600,370)" d="M0,0L6,0"/><path transform="translate(600,336.6307796420711)" d="M0,0L6,0"/><path transform="translate(600,303.2615592841422)" d="M0,0L6,0"/><path transform="translate(600,269.8923389262133)" d="M0,0L6,0"/><path transform="translate(600,236.5231185682844)" d="M0,0L6,0"/><path transform="translate(600,203.15389821035544)" d="M0,0L6,0"/><path transform="translate(600,169.78467785242654)" d="M0,0L6,0"/><path transform="translate(600,136.41545749449764)" d="M0,0L6,0"/><path transform="translate(600,103.04623713656875)" d="M0,0L6,0"/><path transform="translate(600,69.6770167786398)" d="M0,0L6,0"/><path transform="translate(600,36.3077964207109)" d="M0,0L6,0"/></g><g aria-label="y-axis tick label" text-anchor="start" font-variant="tabular-nums" transform="translate(9.5,0.5)"><text y="0.32em" transform="translate(600,370)">0</text><text y="0.32em" transform="translate(600,336.6307796420711)">1</text><text y="0.32em" transform="translate(600,303.2615592841422)">2</text><text y="0.32em" transform="translate(600,269.8923389262133)">3</text><text y="0.32em" transform="translate(600,236.5231185682844)">4</text><text y="0.32em" transform="translate(600,203.15389821035544)">5</text><text y="0.32em" transform="translate(600,169.78467785242654)">6</text><text y="0.32em" transform="translate(600,136.41545749449764)">7</text><text y="0.32em" transform="translate(600,103.04623713656875)">8</text><text y="0.32em" transform="translate(600,69.6770167786398)">9</text><text y="0.32em" transform="translate(600,36.3077964207109)">10</text></g><g aria-label="y-axis label" text-anchor="end" transform="translate(37.5,-16.5)"><text y="0.71em" transform="translate(600,20)">Incentive Rates (%) ↑</text></g><clipPath id="plot-clip-time-locked-incentives-example-curve"><rect x="40" y="20" width="560" height="350"/></clipPath><g aria-label="rect" clip-path="url(#plot-clip-time-locked-incentives-example-curve)"><g><rect x="64" y="36" width="48" height="334" fill="#1f77b4"/><rect x="64" y="36" width="48" height="0" fill="#ff7f0e"/><rect x="64" y="36" width="48" height="0" fill="#2ca02c"/><rect x="117.33333333333334" y="69.43761956253138" width="48.00000000000003" height="300.5623804374686" fill="#1f77b4"/><rect x="117.33333333333334" y="69.43761956253138" width="48.00000000000003" height="0" fill="#ff7f0e"/><rect x="117.33333333333334" y="69.43761956253138" width="48.00000000000003" height="0" fill="#2ca02c"/><rect x="170.66666666666669" y="102.8752391250627" width="48" height="267.1247608749373" fill="#1f77b4"/><rect x="170.66666666666669" y="102.8752391250627" width="48" height="0" fill="#ff7f0e"/><rect x="170.66666666666669" y="102.8752391250627" width="48" height="0" fill="#2ca02c"/><rect x="224" y="136.31285868759397" width="48" height="233.68714131240603" fill="#1f77b4"/><rect x="224" y="136.31285868759397" width="48" height="0" fill="#ff7f0e"/><rect x="224" y="136.31285868759397" width="48" height="0" fill="#2ca02c"/><rect x="277.3333333333333" y="169.75047825012535" width="48.00000000000006" height="200.24952174987465" fill="#1f77b4"/><rect x="277.3333333333333" y="169.75047825012535" width="48.00000000000006" height="0" fill="#ff7f0e"/><rect x="277.3333333333333" y="169.75047825012535" width="48.00000000000006" height="0" fill="#2ca02c"/><rect x="330.6666666666667" y="203.18809781265662" width="48" height="166.81190218734338" fill="#1f77b4"/><rect x="330.6666666666667" y="203.18809781265662" width="48" height="0" fill="#ff7f0e"/><rect x="330.6666666666667" y="203.18809781265662" width="48" height="0" fill="#2ca02c"/><rect x="384.00000000000006" y="236.62571737518797" width="48" height="133.37428262481203" fill="#1f77b4"/><rect x="384.00000000000006" y="236.62571737518797" width="48" height="0" fill="#ff7f0e"/><rect x="384.00000000000006" y="236.62571737518797" width="48" height="0" fill="#2ca02c"/><rect x="437.3333333333333" y="270.06333693771927" width="48.00000000000006" height="99.93666306228073" fill="#1f77b4"/><rect x="437.3333333333333" y="270.06333693771927" width="48.00000000000006" height="0" fill="#ff7f0e"/><rect x="437.3333333333333" y="270.06333693771927" width="48.00000000000006" height="0" fill="#2ca02c"/><rect x="490.66666666666674" y="303.5009565002506" width="48" height="66.4990434997494" fill="#1f77b4"/><rect x="490.66666666666674" y="303.5009565002506" width="48" height="0" fill="#ff7f0e"/><rect x="490.66666666666674" y="303.5009565002506" width="48" height="0" fill="#2ca02c"/><rect x="544.0000000000001" y="336.9385760627819" width="47.999999999999886" height="33.06142393721808" fill="#1f77b4"/><rect x="544.0000000000001" y="336.9385760627819" width="47.999999999999886" height="0" fill="#ff7f0e"/><rect x="544.0000000000001" y="336.9385760627819" width="47.999999999999886" height="0" fill="#2ca02c"/></g></g><g aria-label="rule" clip-path="url(#plot-clip-time-locked-incentives-example-curve)"><g stroke-width="2" stroke-dasharray="4" transform="translate(0.5,0)"><line x1="227.07688984011614" x2="227.07688984011614" y1="20" y2="370" stroke="#d62728"/><line x1="267.3940460456233" x2="267.3940460456233" y1="20" y2="370" stroke="#9467bd"/></g></g><g aria-label="line" clip-path="url(#plot-clip-time-locked-incentives-example-curve)"><g fill="none" stroke-width="1.5" stroke-linejoin="round" stroke-linecap="round" transform="translate(0.5,0.5)"><path stroke="#ff7f0e" d="M88,322.819L141.333,290.847L194.667,264.008L248,242.302L301.333,225.727L354.667,214.285L408,207.975L461.333,206.797L514.667,210.752L568,219.839"/></g></g><g aria-label="dot" clip-path="url(#plot-clip-time-locked-incentives-example-curve)"><g transform="translate(0.5,0.5)"><circle cx="88" cy="322.8186861633901" r="3" fill="#ff7f0e"/><circle cx="141.33333333333331" cy="290.8474224562856" r="3" fill="#ff7f0e"/><circle cx="194.66666666666669" cy="264.0084141822331" r="3" fill="#ff7f0e"/><circle cx="248" cy="242.30166134123246" r="3" fill="#ff7f0e"/><circle cx="301.3333333333333" cy="225.7271639332838" r="3" fill="#ff7f0e"/><circle cx="354.6666666666667" cy="214.28492195838714" r="3" fill="#ff7f0e"/><circle cx="408.00000000000006" cy="207.97493541654245" r="3" fill="#ff7f0e"/><circle cx="461.33333333333337" cy="206.7972043077496" r="3" fill="#ff7f0e"/><circle cx="514.6666666666667" cy="210.7517286320088" r="3" fill="#ff7f0e"/><circle cx="568" cy="219.8385083893199" r="3" fill="#ff7f0e"/></g></g><g aria-label="line" clip-path="url(#plot-clip-time-locked-incentives-example-curve)"><g fill="none" stroke-width="1.5" stroke-linejoin="round" stroke-linecap="round" transform="translate(0.5,0.5)"><path stroke="#2ca02c" d="M88,381.288L141.333,349.317L194.667,322.478L248,300.771L301.333,284.197L354.667,272.755L408,266.445L461.333,265.267L514.667,269.221L568,278.308"/></g></g><g aria-label="dot" clip-path="url(#plot-clip-time-locked-incentives-example-curve)"><g transform="translate(0.5,0.5)"><circle cx="88" cy="381.2884324223981" r="3" fill="#2ca02c"/><circle cx="141.33333333333331" cy="349.3171687152936" r="3" fill="#2ca02c"/><circle cx="194.66666666666669" cy="322.47816044124113" r="3" fill="#2ca02c"/><circle cx="248" cy="300.77140760024054" r="3" fill="#2ca02c"/><circle cx="301.3333333333333" cy="284.19691019229185" r="3" fill="#2ca02c"/><circle cx="354.6666666666667" cy="272.75466821739514" r="3" fill="#2ca02c"/><circle cx="408.00000000000006" cy="266.44468167555044" r="3" fill="#2ca02c"/><circle cx="461.33333333333337" cy="265.2669505667576" r="3" fill="#2ca02c"/><circle cx="514.6666666666667" cy="269.2214748910168" r="3" fill="#2ca02c"/><circle cx="568" cy="278.30825464832793" r="3" fill="#2ca02c"/></g></g></svg></svg>