<svg width="660" height="462.75" viewBox="-10,-10,660,462.75" xmlns="http://www.w3.org/2000/svg" xmlns:xlink="http://www.w3.org/1999/xlink"><svg width="894" height="35" x="0" y="0"><g transform="translate(2.8000000000000007,19)"><svg width="15" height="15" fill="#bcbd22" y="-7.5px"><rect width="100%" height="100%"/></svg><text x="15" dx="5" dy="0.38em" font-family="system-ui, sans-serif" font-size="10px" fill="rgb(27, 30, 35)">Cumulative Stake A</text></g><g transform="translate(140.8199951171875,19)"><svg width="15" height="15" fill="#8c564b" y="-7.5px"><rect width="100%" height="100%"/></svg><text x="15" dx="5" dy="0.38em" font-family="system-ui, sans-serif" font-size="10px" fill="rgb(27, 30, 35)">Discount Curve</text></g><g transform="translate(257.1800048828125,19)"><svg width="15" height="15" fill="#d62728" y="-7.5px"><rect width="100%" height="100%"/></svg><text x="15" dx="5" dy="0.38em" font-family="system-ui, sans-serif" font-size="10px" fill="rgb(27, 30, 35)">D = 3.61 years</text></g><g transform="translate(369.0800048828125,19)"><svg width="15" height="15" fill="#9467bd" y="-7.5px"><rect width="100%" height="100%"/></svg><text x="15" dx="5" dy="0.38em" font-family="system-ui, sans-serif" font-size="10px" fill="rgb(27, 30, 35)">√C = 4.36 years</text></g></svg><svg class="plot-d6a7b5" fill="currentColor" font-family="system-ui, sans-serif" font-size="10" text-anchor="middle" width="640" height="400" viewBox="0 0 640 400" x="0" y="42.75"><style>:where(.plot-d6a7b5) {
  --plot-background: white;
  display: block;
  height: auto;
  height: intrinsic;
  max-width: 100%;
}
:where(.plot-d6a7b5 text),
:where(.plot-d6a7b5 tspan) {
  white-space: pre;
}</style><g aria-label="y-grid" aria-hidden="true" stroke="currentColor" stroke-opacity="0.1" transform="translate(0,0.5)"><line x1="40" x2="600" y1="370" y2="370"/><line x1="40" x2="600" y1="336.6" y2="336.6"/><line x1="40" x2="600" y1="303.2" y2="303.2"/><line x1="40" x2="600" y1="269.8" y2="269.8"/><line x1="40" x2="600" y1="236.4" y2="236.4"/><line x1="40" x2="600" y1="203" y2="203"/><line x1="40" x2="600" y1="169.6" y2="169.6"/><line x1="40" x2="600" y1="136.20000000000002" y2="136.20000000000002"/><line x1="40" x2="600" y1="102.79999999999998" y2="102.79999999999998"/><line x1="40" x2="600" y1="69.39999999999999" y2="69.39999999999999"/><line x1="40" x2="600" y1="36" y2="36"/></g><g aria-label="x-axis tick" aria-hidden="true" fill="none" stroke="currentColor" transform="translate(0.5,0)"><path transform="translate(88,370)" d="M0,0L0,6"/><path transform="translate(141.33333333333331,370)" d="M0,0L0,6"/><path transform="translate(194.66666666666669,370)" d="M0,0L0,6"/><path transform="translate(248,370)" d="M0,0L0,6"/><path transform="translate(301.3333333333333,370)" d="M0,0L0,6"/><path transform="translate(354.6666666666667,370)" d="M0,0L0,6"/><path transform="translate(408.00000000000006,370)" d="M0,0L0,6"/><path transform="translate(461.33333333333337,370)" d="M0,0L0,6"/><path transform="translate(514.6666666666667,370)" d="M0,0L0,6"/><path transform="translate(568,370)" d="M0,0L0,6"/></g><g aria-label="x-axis tick label" font-variant="tabular-nums" transform="translate(0.5,9.5)"><text y="0.71em" transform="translate(88,370)">1</text><text y="0.71em" transform="translate(141.33333333333331,370)">2</text><text y="0.71em" transform="translate(194.66666666666669,370)">3</text><text y="0.71em" transform="translate(248,370)">4</text><text y="0.71em" transform="translate(301.3333333333333,370)">5</text><text y="0.71em" transform="translate(354.6666666666667,370)">6</text><text y="0.71em" transform="translate(408.00000000000006,370)">7</text><text y="0.71em" transform="translate(461.33333333333337,370)">8</text><text y="0.71em" transform="translate(514.6666666666667,370)">9</text><text y="0.71em" transform="translate(568,370)">10</text></g><g aria-label="x-axis label" text-anchor="end" transform="translate(37.5,27.5)"><text transform="translate(600,370)">Time to Expiry (Years) →</text></g><rect aria-label="frame" fill="none" stroke="currentColor" transform="translate(0.5,0.5)" x="40" y="20" width="560" height="350"/><g aria-label="y-axis tick" aria-hidden="true" fill="none" stroke="currentColor" transform="translate(0,0.5)"><path transform="translate(40,370)" d="M0,0L-6,0"/><path transform="translate(40,336.6)" d="M0,0L-6,0"/><path transform="translate(40,303.2)" d="M0,0L-6,0"/><path transform="translate(40,269.8)" d="M0,0L-6,0"/><path transform="translate(40,236.4)" d="M0,0L-6,0"/><path transform="translate(40,203)" d="M0,0L-6,0"/><path transform="translate(40,169.6)" d="M0,0L-6,0"/><path transform="translate(40,136.20000000000002)" d="M0,0L-6,0"/><path transform="translate(40,102.79999999999998)" d="M0,0L-6,0"/><path transform="translate(40,69.39999999999999)" d="M0,0L-6,0"/><path transform="translate(40,36)" d="M0,0L-6,0"/></g><g aria-label="y-axis tick label" text-anchor="end" font-variant="tabular-nums" transform="translate(-8.5,0.5)"><text y="0.32em" transform="translate(40,370)">0</text><text y="0.32em" transform="translate(40,336.6)">10</text><text y="0.32em" transform="translate(40,303.2)">20</text><text y="0.32em" transform="translate(40,269.8)">30</text><text y="0.32em" transform="translate(40,236.4)">40</text><text y="0.32em" transform="translate(40,203)">50</text><text y="0.32em" transform="translate(40,169.6)">60</text><text y="0.32em" transform="translate(40,136.20000000000002)">70</text><text y="0.32em" transform="translate(40,102.79999999999998)">80</text><text y="0.32em" transform="translate(40,69.39999999999999)">90</text><text y="0.32em" transform="translate(40,36)">100</text></g><g aria-label="y-axis label" text-anchor="start" transform="translate(-36.5,-16.5)"><text y="0.71em" transform="translate(40,20)">↑ Cumulative Stake (%)</text></g><g aria-label="y-axis tick" aria-hidden="true" fill="none" stroke="currentColor" transform="translate(1,0.5)"><path transform="translate(600,370)" d="M0,0L6,0"/><path transform="translate(600,336.6)" d="M0,0L6,0"/><path transform="translate(600,303.2)" d="M0,0L6,0"/><path transform="translate(600,269.8)" d="M0,0L6,0"/><path transform="translate(600,236.4)" d="M0,0L6,0"/><path transform="translate(600,203)" d="M0,0L6,0"/><path transform="translate(600,169.6)" d="M0,0L6,0"/><path transform="translate(600,136.20000000000002)" d="M0,0L6,0"/><path transform="translate(600,102.79999999999998)" d="M0,0L6,0"/><path transform="translate(600,69.39999999999999)" d="M0,0L6,0"/><path transform="translate(600,36)" d="M0,0L6,0"/></g><g aria-label="y-axis tick label" text-anchor="start" font-variant="tabular-nums" transform="translate(9.5,0.5)"><text y="0.32em" transform="translate(600,370)">0</text><text y="0.32em" transform="translate(600,336.6)">10</text><text y="0.32em" transform="translate(600,303.2)">20</text><text y="0.32em" transform="translate(600,269.8)">30</text><text y="0.32em" transform="translate(600,236.4)">40</text><text y="0.32em" transform="translate(600,203)">50</text><text y="0.32em" transform="translate(600,169.6)">60</text><text y="0.32em" transform="translate(600,136.20000000000002)">70</text><text y="0.32em" transform="translate(600,102.79999999999998)">80</text><text y="0.32em" transform="translate(600,69.39999999999999)">90</text><text y="0.32em" transform="translate(600,36)">100</text></g><g aria-label="y-axis label" text-anchor="end" transform="translate(37.5,-16.5)"><text y="0.71em" transform="translate(600,20)">Discount (%) ↑</text></g><clipPath id="plot-clip-time-locked-incentives-example-discount-rates"><rect x="40" y="20" width="560" height="350"/></clipPath><g aria-label="rect" clip-path="url(#plot-clip-time-locked-incentives-example-discount-rates)"><g><rect x="64" y="370" width="48" height="0" fill="#8c564b"/><rect x="64" y="186.29999999999998" width="48" height="183.70000000000002" fill="#bcbd22"/><rect x="117.33333333333334" y="370" width="48.00000000000003" height="0" fill="#8c564b"/><rect x="117.33333333333334" y="219.73080803309597" width="48.00000000000003" height="150.26919196690403" fill="#bcbd22"/><rect x="170.66666666666669" y="370" width="48" height="0" fill="#8c564b"/><rect x="170.66666666666669" y="249.81476983661508" width="48" height="120.18523016338492" fill="#bcbd22"/><rect x="224" y="370" width="48" height="0" fill="#8c564b"/><rect x="224" y="276.55188541055725" width="48" height="93.44811458944275" fill="#bcbd22"/><rect x="277.3333333333333" y="370" width="48.00000000000006" height="0" fill="#8c564b"/><rect x="277.3333333333333" y="299.9421547549226" width="48.00000000000006" height="70.05784524507737" fill="#bcbd22"/><rect x="330.6666666666667" y="370" width="48" height="0" fill="#8c564b"/><rect x="330.6666666666667" y="319.98557786971105" width="48" height="50.01442213028895" fill="#bcbd22"/><rect x="384.00000000000006" y="370" width="48" height="0" fill="#8c564b"/><rect x="384.00000000000006" y="336.68215475492264" width="48" height="33.317845245077365" fill="#bcbd22"/><rect x="437.3333333333333" y="370" width="48.00000000000006" height="0" fill="#8c564b"/><rect x="437.3333333333333" y="350.0318854105573" width="48.00000000000006" height="19.968114589442678" fill="#bcbd22"/><rect x="490.66666666666674" y="370" width="48" height="0" fill="#8c564b"/><rect x="490.66666666666674" y="360.03476983661506" width="48" height="9.965230163384945" fill="#bcbd22"/><rect x="544.0000000000001" y="370" width="47.999999999999886" height="0" fill="#8c564b"/><rect x="544.0000000000001" y="366.690808033096" width="47.999999999999886" height="3.3091919669039953" fill="#bcbd22"/></g></g><g aria-label="rule" clip-path="url(#plot-clip-time-locked-incentives-example-discount-rates)"><g stroke-width="2" stroke-dasharray="4" transform="translate(0.5,0)"><line x1="227.07688984011614" x2="227.07688984011614" y1="20" y2="370" stroke="#d62728"/><line x1="267.3940460456233" x2="267.3940460456233" y1="20" y2="370" stroke="#9467bd"/></g></g><g aria-label="line" clip-path="url(#plot-clip-time-locked-incentives-example-discount-rates)"><g fill="none" stroke-width="1.5" stroke-linejoin="round" stroke-linecap="round" transform="translate(0.5,0.5)"><path stroke="#8c564b" d="M88,40.689L141.333,51.475L194.667,66.357L248,83.406L301.333,100.932L354.667,117.565L408,132.242L461.333,144.149L514.667,152.623L568,157.032"/></g></g><g aria-label="dot" clip-path="url(#plot-clip-time-locked-incentives-example-discount-rates)"><g transform="translate(0.5,0.5)"><circle cx="88" cy="40.689254163861406" r="3" fill="#8c564b"/><circle cx="141.33333333333331" cy="51.47514126447896" r="3" fill="#8c564b"/><circle cx="194.66666666666669" cy="66.35745953853547" r="3" fill="#8c564b"/><circle cx="248" cy="83.40565414679607" r="3" fill="#8c564b"/><circle cx="301.3333333333333" cy="100.9319082276755" r="3" fill="#8c564b"/><circle cx="354.6666666666667" cy="117.56462178015504" r="3" fill="#8c564b"/><circle cx="408.00000000000006" cy="132.24177808064846" r="3" fill="#8c564b"/><circle cx="461.33333333333337" cy="144.14899229569838" r="3" fill="#8c564b"/><circle cx="514.6666666666667" cy="152.62302178129028" r="3" fill="#8c564b"/><circle cx="568" cy="157.03219735832772" r="3" fill="#8c564b"/></g></g></svg></svg>